<ttFont>
    <TTGlyph name="A" xMin="-16" yMin="0" xMax="515" yMax="642">
      <contour>
        <pt x="416" y="0" on="1"/>
        <pt x="409" y="71" on="1"/>
        <pt x="393" y="163" on="1"/>
        <pt x="264" y="166" on="1"/>
        <pt x="147" y="164" on="1"/>
        <pt x="107" y="75" on="1"/>
        <pt x="81" y="0" on="1"/>
        <pt x="-16" y="0" on="1"/>
        <pt x="282" y="642" on="1"/>
        <pt x="397" y="642" on="1"/>
        <pt x="515" y="0" on="1"/>
      </contour>
      <contour>
        <pt x="329" y="544" on="1"/>
        <pt x="321" y="544" on="1"/>
        <pt x="185" y="245" on="1"/>
        <pt x="281" y="243" on="1"/>
        <pt x="380" y="244" on="1"/>
      </contour>
    </TTGlyph>
    <TTGlyph name="AE" xMin="-44" yMin="0" xMax="747" yMax="642">
      <contour>
        <pt x="730" y="0" on="1"/>
        <pt x="382" y="0" on="1"/>
        <pt x="386" y="71" on="1"/>
        <pt x="385" y="247" on="1"/>
        <pt x="162" y="193" on="1"/>
        <pt x="91" y="75" on="1"/>
        <pt x="55" y="0" on="1"/>
        <pt x="-44" y="0" on="1"/>
        <pt x="349" y="642" on="1"/>
        <pt x="731" y="642" on="1"/>
        <pt x="736" y="633" on="1"/>
        <pt x="719" y="557" on="1"/>
        <pt x="567" y="562" on="1"/>
        <pt x="478" y="562" on="1"/>
        <pt x="478" y="344" on="1"/>
        <pt x="682" y="391" on="1"/>
        <pt x="689" y="385" on="1"/>
        <pt x="687" y="314" on="1"/>
        <pt x="479" y="269" on="1"/>
        <pt x="479" y="78" on="1"/>
        <pt x="585" y="78" on="1"/>
        <pt x="742" y="84" on="1"/>
        <pt x="747" y="76" on="1"/>
      </contour>
      <contour>
        <pt x="382" y="544" on="1"/>
        <pt x="376" y="544" on="1"/>
        <pt x="217" y="283" on="1"/>
        <pt x="384" y="322" on="1"/>
      </contour>
    </TTGlyph>
    <TTGlyph name="AEacute" xMin="-44" yMin="0" xMax="747" yMax="872">
      <component glyphName="AE" x="0" y="0" flags="0x1000"/>
      <component glyphName="acute.cap" x="316" y="181" flags="0x1000"/>
    </TTGlyph>
    <TTGlyph name="Aacute" xMin="-16" yMin="0" xMax="515" yMax="872">
      <component glyphName="A" x="0" y="0" flags="0x1000"/>
      <component glyphName="acute.cap" x="122" y="181" flags="0x1000"/>
    </TTGlyph>
    <TTGlyph name="Abreve" xMin="-16" yMin="0" xMax="515" yMax="851">
      <component glyphName="A" x="0" y="0" flags="0x1000"/>
      <component glyphName="breve.cap" x="108" y="181" flags="0x1000"/>
    </TTGlyph>
    <TTGlyph name="Abreveacute" xMin="-16" yMin="0" xMax="515" yMax="965">
      <component glyphName="A" x="0" y="0" flags="0x1000"/>
      <component glyphName="breveacute" x="113" y="181" flags="0x1000"/>
    </TTGlyph>
    <TTGlyph name="Abrevedotbelow" xMin="-16" yMin="-175" xMax="515" yMax="851">
      <contour>
        <pt x="297" y="723" on="0"/>
        <pt x="229" y="772" on="0"/>
        <pt x="219" y="818" on="1"/>
        <pt x="248" y="851" on="1"/>
        <pt x="263" y="851" on="1"/>
        <pt x="279" y="792" on="0"/>
        <pt x="351" y="792" on="1"/>
        <pt x="420" y="792" on="0"/>
        <pt x="453" y="851" on="1"/>
        <pt x="467" y="851" on="1"/>
        <pt x="488" y="818" on="1"/>
        <pt x="444" y="723" on="0"/>
        <pt x="350" y="723" on="1"/>
      </contour>
      <contour>
        <pt x="416" y="0" on="1"/>
        <pt x="410" y="71" on="1"/>
        <pt x="394" y="163" on="1"/>
        <pt x="264" y="166" on="1"/>
        <pt x="147" y="164" on="1"/>
        <pt x="107" y="75" on="1"/>
        <pt x="81" y="0" on="1"/>
        <pt x="-16" y="0" on="1"/>
        <pt x="282" y="642" on="1"/>
        <pt x="397" y="642" on="1"/>
        <pt x="515" y="0" on="1"/>
      </contour>
      <contour>
        <pt x="329" y="544" on="1"/>
        <pt x="321" y="544" on="1"/>
        <pt x="185" y="245" on="1"/>
        <pt x="281" y="243" on="1"/>
        <pt x="380" y="244" on="1"/>
      </contour>
      <contour>
        <pt x="266" y="-66" on="0"/>
        <pt x="293" y="-94" on="0"/>
        <pt x="293" y="-118" on="1"/>
        <pt x="293" y="-144" on="0"/>
        <pt x="263" y="-175" on="0"/>
        <pt x="238" y="-175" on="1"/>
        <pt x="186" y="-175" on="0"/>
        <pt x="186" y="-122" on="1"/>
        <pt x="186" y="-96" on="0"/>
        <pt x="216" y="-66" on="0"/>
        <pt x="242" y="-66" on="1"/>
      </contour>
    </TTGlyph>
    <TTGlyph name="Abrevegrave" xMin="-16" yMin="0" xMax="515" yMax="965">
      <component glyphName="A" x="0" y="0" flags="0x1000"/>
      <component glyphName="brevegrave" x="113" y="181" flags="0x1000"/>
    </TTGlyph>
    <TTGlyph name="Abrevehookabove" xMin="-16" yMin="0" xMax="515" yMax="1017">
      <component glyphName="A" x="0" y="0" flags="0x1000"/>
      <component glyphName="brevehookabove" x="113" y="181" flags="0x1000"/>
    </TTGlyph>
    <TTGlyph name="Abrevetilde" xMin="-16" yMin="0" xMax="523" yMax="986">
      <component glyphName="A" x="0" y="0" flags="0x1000"/>
      <component glyphName="brevetilde" x="113" y="181" flags="0x1000"/>
    </TTGlyph>
    <TTGlyph name="Acaron" xMin="-16" yMin="0" xMax="515" yMax="858">
      <component glyphName="A" x="0" y="0" flags="0x1000"/>
      <component glyphName="caron.cap" x="108" y="181" flags="0x1000"/>
    </TTGlyph>
    <TTGlyph name="Acircumflex" xMin="-16" yMin="0" xMax="515" yMax="866">
      <component glyphName="A" x="0" y="0" flags="0x1000"/>
      <component glyphName="circumflex.cap" x="115" y="181" flags="0x1000"/>
    </TTGlyph>
    <TTGlyph name="Acircumflexacute" xMin="-16" yMin="0" xMax="529" yMax="963">
      <component glyphName="A" x="0" y="0" flags="0x1000"/>
      <component glyphName="circumflexacute" x="113" y="181" flags="0x1000"/>
    </TTGlyph>
    <TTGlyph name="Acircumflexdotbelow" xMin="-16" yMin="-175" xMax="515" yMax="866">
      <contour>
        <pt x="220" y="771" on="1"/>
        <pt x="285" y="812" on="0"/>
        <pt x="351" y="866" on="1"/>
        <pt x="375" y="866" on="1"/>
        <pt x="424" y="820" on="0"/>
        <pt x="489" y="771" on="1"/>
        <pt x="464" y="730" on="1"/>
        <pt x="454" y="730" on="1"/>
        <pt x="410" y="759" on="0"/>
        <pt x="359" y="796" on="1"/>
        <pt x="283" y="752" on="1"/>
        <pt x="245" y="730" on="1"/>
        <pt x="234" y="730" on="1"/>
      </contour>
      <contour>
        <pt x="416" y="0" on="1"/>
        <pt x="410" y="71" on="1"/>
        <pt x="394" y="163" on="1"/>
        <pt x="264" y="166" on="1"/>
        <pt x="147" y="164" on="1"/>
        <pt x="107" y="75" on="1"/>
        <pt x="81" y="0" on="1"/>
        <pt x="-16" y="0" on="1"/>
        <pt x="282" y="642" on="1"/>
        <pt x="397" y="642" on="1"/>
        <pt x="515" y="0" on="1"/>
      </contour>
      <contour>
        <pt x="329" y="544" on="1"/>
        <pt x="321" y="544" on="1"/>
        <pt x="185" y="245" on="1"/>
        <pt x="281" y="243" on="1"/>
        <pt x="380" y="244" on="1"/>
      </contour>
      <contour>
        <pt x="266" y="-66" on="0"/>
        <pt x="293" y="-94" on="0"/>
        <pt x="293" y="-118" on="1"/>
        <pt x="293" y="-144" on="0"/>
        <pt x="263" y="-175" on="0"/>
        <pt x="238" y="-175" on="1"/>
        <pt x="186" y="-175" on="0"/>
        <pt x="186" y="-122" on="1"/>
        <pt x="186" y="-96" on="0"/>
        <pt x="216" y="-66" on="0"/>
        <pt x="242" y="-66" on="1"/>
      </contour>
    </TTGlyph>
    <TTGlyph name="Acircumflexgrave" xMin="-16" yMin="0" xMax="515" yMax="963">
      <component glyphName="A" x="0" y="0" flags="0x1000"/>
      <component glyphName="circumflexgrave" x="113" y="181" flags="0x1000"/>
    </TTGlyph>
    <TTGlyph name="Acircumflexhookabove" xMin="-16" yMin="0" xMax="515" yMax="1005">
      <component glyphName="A" x="0" y="0" flags="0x1000"/>
      <component glyphName="circumflexhookabove" x="113" y="181" flags="0x1000"/>
    </TTGlyph>
    <TTGlyph name="Acircumflextilde" xMin="-16" yMin="0" xMax="540" yMax="986">
      <component glyphName="A" x="0" y="0" flags="0x1000"/>
      <component glyphName="circumflextilde" x="132" y="181" flags="0x1000"/>
    </TTGlyph>
    <TTGlyph name="Adieresis" xMin="-16" yMin="0" xMax="515" yMax="843">
      <component glyphName="A" x="0" y="0" flags="0x1000"/>
      <component glyphName="dieresis" x="112" y="181" flags="0x1000"/>
    </TTGlyph>
    <TTGlyph name="Adotbelow" xMin="-16" yMin="-175" xMax="515" yMax="642">
      <component glyphName="A" x="0" y="0" flags="0x1000"/>
      <component glyphName="dotbelowcomb" x="89" y="0" flags="0x1000"/>
    </TTGlyph>
    <TTGlyph name="Agrave" xMin="-16" yMin="0" xMax="515" yMax="874">
      <component glyphName="A" x="0" y="0" flags="0x1000"/>
      <component glyphName="grave.cap" x="113" y="181" flags="0x1000"/>
    </TTGlyph>
    <TTGlyph name="Ahookabove" xMin="-16" yMin="0" xMax="515" yMax="903">
      <component glyphName="A" x="0" y="0" flags="0x1000"/>
      <component glyphName="hookabove" x="80" y="181" flags="0x1000"/>
    </TTGlyph>
    <TTGlyph name="Amacron" xMin="-16" yMin="0" xMax="515" yMax="824">
      <component glyphName="A" x="0" y="0" flags="0x1000"/>
      <component glyphName="macron" x="112" y="181" flags="0x1000"/>
    </TTGlyph>
    <TTGlyph name="Aogonek" xMin="-16" yMin="-196" xMax="515" yMax="642">
      <contour>
        <pt x="507" y="-147" on="1"/>
        <pt x="463" y="-196" on="0"/>
        <pt x="419" y="-196" on="1"/>
        <pt x="388" y="-196" on="0"/>
        <pt x="349" y="-158" on="0"/>
        <pt x="349" y="-126" on="1"/>
        <pt x="349" y="-103" on="0"/>
        <pt x="377" y="-49" on="0"/>
        <pt x="416" y="0" on="1"/>
        <pt x="410" y="71" on="1"/>
        <pt x="394" y="163" on="1"/>
        <pt x="264" y="166" on="1"/>
        <pt x="147" y="164" on="1"/>
        <pt x="107" y="75" on="1"/>
        <pt x="81" y="0" on="1"/>
        <pt x="-16" y="0" on="1"/>
        <pt x="282" y="642" on="1"/>
        <pt x="397" y="642" on="1"/>
        <pt x="515" y="0" on="1"/>
        <pt x="483" y="0" on="1"/>
        <pt x="442" y="-42" on="0"/>
        <pt x="413" y="-89" on="0"/>
        <pt x="413" y="-107" on="1"/>
        <pt x="413" y="-134" on="0"/>
        <pt x="437" y="-134" on="1"/>
        <pt x="465" y="-134" on="0"/>
        <pt x="499" y="-95" on="1"/>
        <pt x="504" y="-95" on="1"/>
      </contour>
      <contour>
        <pt x="329" y="544" on="1"/>
        <pt x="321" y="544" on="1"/>
        <pt x="185" y="245" on="1"/>
        <pt x="281" y="243" on="1"/>
        <pt x="380" y="244" on="1"/>
      </contour>
    </TTGlyph>
    <TTGlyph name="Aring" xMin="-16" yMin="0" xMax="515" yMax="887">
      <component glyphName="A" x="0" y="0" flags="0x1000"/>
      <component glyphName="ring" x="112" y="181" flags="0x1000"/>
    </TTGlyph>
    <TTGlyph name="Aringacute" xMin="-11" yMin="0" xMax="520" yMax="910">
      <contour>
        <pt x="253" y="836" on="1"/>
        <pt x="365" y="871" on="0"/>
        <pt x="464" y="910" on="1"/>
        <pt x="474" y="906" on="1"/>
        <pt x="489" y="846" on="1"/>
        <pt x="485" y="837" on="1"/>
        <pt x="414" y="817" on="0"/>
        <pt x="324" y="798" on="1"/>
        <pt x="273" y="786" on="1"/>
        <pt x="263" y="792" on="1"/>
      </contour>
      <contour>
        <pt x="421" y="0" on="1"/>
        <pt x="415" y="69" on="1"/>
        <pt x="399" y="161" on="1"/>
        <pt x="268" y="164" on="1"/>
        <pt x="152" y="162" on="1"/>
        <pt x="111" y="74" on="1"/>
        <pt x="86" y="0" on="1"/>
        <pt x="-11" y="0" on="1"/>
        <pt x="284" y="618" on="1"/>
        <pt x="259" y="640" on="0"/>
        <pt x="259" y="683" on="1"/>
        <pt x="259" y="724" on="0"/>
        <pt x="306" y="770" on="0"/>
        <pt x="348" y="770" on="1"/>
        <pt x="390" y="770" on="0"/>
        <pt x="435" y="724" on="0"/>
        <pt x="435" y="686" on="1"/>
        <pt x="435" y="637" on="0"/>
        <pt x="400" y="613" on="1"/>
        <pt x="520" y="0" on="1"/>
      </contour>
      <contour>
        <pt x="303" y="725" on="0"/>
        <pt x="303" y="685" on="1"/>
        <pt x="303" y="641" on="0"/>
        <pt x="347" y="641" on="1"/>
        <pt x="391" y="641" on="0"/>
        <pt x="391" y="682" on="1"/>
        <pt x="391" y="725" on="0"/>
        <pt x="346" y="725" on="1"/>
      </contour>
      <contour>
        <pt x="334" y="537" on="1"/>
        <pt x="326" y="537" on="1"/>
        <pt x="189" y="242" on="1"/>
        <pt x="285" y="240" on="1"/>
        <pt x="385" y="242" on="1"/>
      </contour>
    </TTGlyph>
    <TTGlyph name="Atilde" xMin="-16" yMin="0" xMax="516" yMax="860">
      <component glyphName="A" x="0" y="0" flags="0x1000"/>
      <component glyphName="tilde" x="112" y="181" flags="0x1000"/>
    </TTGlyph>
    <TTGlyph name="B" xMin="57" yMin="-4" xMax="496" yMax="643">
      <contour>
        <pt x="440" y="315" on="0"/>
        <pt x="494" y="251" on="0"/>
        <pt x="494" y="200" on="1"/>
        <pt x="494" y="-4" on="0"/>
        <pt x="208" y="-4" on="1"/>
        <pt x="113" y="-4" on="0"/>
        <pt x="58" y="0" on="1"/>
        <pt x="57" y="0" on="1"/>
        <pt x="87" y="193" on="1"/>
        <pt x="138" y="642" on="1"/>
        <pt x="323" y="643" on="1"/>
        <pt x="404" y="643" on="0"/>
        <pt x="496" y="573" on="0"/>
        <pt x="496" y="506" on="1"/>
        <pt x="496" y="446" on="0"/>
        <pt x="437" y="357" on="0"/>
        <pt x="383" y="334" on="1"/>
      </contour>
      <contour>
        <pt x="395" y="530" on="0"/>
        <pt x="347" y="566" on="0"/>
        <pt x="293" y="566" on="1"/>
        <pt x="225" y="566" on="1"/>
        <pt x="198" y="365" on="1"/>
        <pt x="296" y="362" on="1"/>
        <pt x="395" y="386" on="0"/>
        <pt x="395" y="489" on="1"/>
      </contour>
      <contour>
        <pt x="309" y="73" on="0"/>
        <pt x="394" y="138" on="0"/>
        <pt x="394" y="197" on="1"/>
        <pt x="394" y="275" on="0"/>
        <pt x="300" y="289" on="1"/>
        <pt x="187" y="288" on="1"/>
        <pt x="175" y="201" on="1"/>
        <pt x="163" y="77" on="1"/>
        <pt x="211" y="73" on="0"/>
        <pt x="232" y="73" on="1"/>
      </contour>
    </TTGlyph>
    <TTGlyph name="C" xMin="43" yMin="-7" xMax="530" yMax="648">
      <contour>
        <pt x="463" y="648" on="0"/>
        <pt x="530" y="603" on="1"/>
        <pt x="500" y="516" on="1"/>
        <pt x="491" y="513" on="1"/>
        <pt x="433" y="566" on="0"/>
        <pt x="354" y="566" on="1"/>
        <pt x="255" y="566" on="0"/>
        <pt x="147" y="413" on="0"/>
        <pt x="147" y="272" on="1"/>
        <pt x="147" y="176" on="0"/>
        <pt x="223" y="76" on="0"/>
        <pt x="294" y="76" on="1"/>
        <pt x="379" y="76" on="0"/>
        <pt x="455" y="132" on="1"/>
        <pt x="464" y="126" on="1"/>
        <pt x="444" y="36" on="1"/>
        <pt x="364" y="-7" on="0"/>
        <pt x="279" y="-7" on="1"/>
        <pt x="166" y="-7" on="0"/>
        <pt x="43" y="131" on="0"/>
        <pt x="43" y="257" on="1"/>
        <pt x="43" y="378" on="0"/>
        <pt x="119" y="554" on="0"/>
        <pt x="265" y="648" on="0"/>
        <pt x="366" y="648" on="1"/>
      </contour>
    </TTGlyph>
    <TTGlyph name="C.ss01" xMin="-124" yMin="0" xMax="569" yMax="501">
      <contour>
        <pt x="215" y="426" on="0"/>
        <pt x="136" y="321" on="0"/>
        <pt x="136" y="218" on="1"/>
        <pt x="136" y="148" on="0"/>
        <pt x="194" y="76" on="0"/>
        <pt x="249" y="76" on="1"/>
        <pt x="316" y="76" on="0"/>
        <pt x="375" y="117" on="1"/>
        <pt x="384" y="113" on="1"/>
        <pt x="368" y="39" on="1"/>
        <pt x="511" y="39" on="1"/>
        <pt x="506" y="0" on="1"/>
        <pt x="-124" y="0" on="1"/>
        <pt x="-119" y="39" on="1"/>
        <pt x="109" y="39" on="1"/>
        <pt x="43" y="90" on="0"/>
        <pt x="43" y="205" on="1"/>
        <pt x="43" y="295" on="0"/>
        <pt x="105" y="426" on="0"/>
        <pt x="162" y="461" on="1"/>
        <pt x="-67" y="461" on="1"/>
        <pt x="-62" y="501" on="1"/>
        <pt x="569" y="501" on="1"/>
        <pt x="562" y="461" on="1"/>
        <pt x="432" y="461" on="1"/>
        <pt x="409" y="388" on="1"/>
        <pt x="399" y="384" on="1"/>
        <pt x="357" y="426" on="0"/>
        <pt x="290" y="426" on="1"/>
      </contour>
    </TTGlyph>
    <TTGlyph name="Cacute" xMin="43" yMin="-7" xMax="530" yMax="872">
      <component glyphName="C" x="0" y="0" flags="0x1000"/>
      <component glyphName="acute.cap" x="125" y="181" flags="0x1000"/>
    </TTGlyph>
    <TTGlyph name="Ccaron" xMin="43" yMin="-7" xMax="530" yMax="858">
      <component glyphName="C" x="0" y="0" flags="0x1000"/>
      <component glyphName="caron.cap" x="111" y="181" flags="0x1000"/>
    </TTGlyph>
    <TTGlyph name="Ccedilla" xMin="43" yMin="-196" xMax="530" yMax="648">
      <contour>
        <pt x="463" y="648" on="0"/>
        <pt x="530" y="603" on="1"/>
        <pt x="501" y="516" on="1"/>
        <pt x="491" y="513" on="1"/>
        <pt x="433" y="566" on="0"/>
        <pt x="354" y="566" on="1"/>
        <pt x="255" y="566" on="0"/>
        <pt x="147" y="413" on="0"/>
        <pt x="147" y="272" on="1"/>
        <pt x="147" y="176" on="0"/>
        <pt x="223" y="76" on="0"/>
        <pt x="294" y="76" on="1"/>
        <pt x="379" y="76" on="0"/>
        <pt x="455" y="132" on="1"/>
        <pt x="464" y="126" on="1"/>
        <pt x="444" y="36" on="1"/>
        <pt x="378" y="1" on="0"/>
        <pt x="314" y="-5" on="1"/>
        <pt x="302" y="-49" on="1"/>
        <pt x="336" y="-69" on="1"/>
        <pt x="375" y="-91" on="0"/>
        <pt x="375" y="-126" on="1"/>
        <pt x="375" y="-157" on="0"/>
        <pt x="328" y="-196" on="0"/>
        <pt x="289" y="-196" on="1"/>
        <pt x="248" y="-196" on="0"/>
        <pt x="213" y="-165" on="1"/>
        <pt x="222" y="-120" on="1"/>
        <pt x="227" y="-118" on="1"/>
        <pt x="255" y="-148" on="0"/>
        <pt x="284" y="-148" on="1"/>
        <pt x="314" y="-148" on="0"/>
        <pt x="314" y="-124" on="1"/>
        <pt x="314" y="-110" on="0"/>
        <pt x="294" y="-101" on="1"/>
        <pt x="245" y="-72" on="1"/>
        <pt x="262" y="-7" on="1"/>
        <pt x="157" y="-1" on="0"/>
        <pt x="43" y="136" on="0"/>
        <pt x="43" y="257" on="1"/>
        <pt x="43" y="378" on="0"/>
        <pt x="119" y="554" on="0"/>
        <pt x="265" y="648" on="0"/>
        <pt x="366" y="648" on="1"/>
      </contour>
    </TTGlyph>
    <TTGlyph name="Ccircumflex" xMin="43" yMin="-7" xMax="530" yMax="866">
      <component glyphName="C" x="0" y="0" flags="0x1000"/>
      <component glyphName="circumflex.cap" x="118" y="181" flags="0x1000"/>
    </TTGlyph>
    <TTGlyph name="Cdotaccent" xMin="43" yMin="-7" xMax="530" yMax="855">
      <component glyphName="C" x="0" y="0" flags="0x1000"/>
      <component glyphName="dotaccent" x="115" y="181" flags="0x1000"/>
    </TTGlyph>
    <TTGlyph name="D" xMin="57" yMin="-6" xMax="610" yMax="646">
      <contour>
        <pt x="481" y="646" on="0"/>
        <pt x="610" y="515" on="0"/>
        <pt x="610" y="395" on="1"/>
        <pt x="610" y="271" on="0"/>
        <pt x="531" y="91" on="0"/>
        <pt x="378" y="-6" on="0"/>
        <pt x="269" y="-6" on="1"/>
        <pt x="170" y="-6" on="0"/>
        <pt x="58" y="0" on="1"/>
        <pt x="57" y="0" on="1"/>
        <pt x="87" y="193" on="1"/>
        <pt x="138" y="642" on="1"/>
        <pt x="139" y="642" on="1"/>
        <pt x="363" y="646" on="1"/>
      </contour>
      <contour>
        <pt x="393" y="73" on="0"/>
        <pt x="506" y="228" on="0"/>
        <pt x="506" y="378" on="1"/>
        <pt x="506" y="565" on="0"/>
        <pt x="352" y="565" on="1"/>
        <pt x="298" y="565" on="0"/>
        <pt x="226" y="561" on="1"/>
        <pt x="175" y="201" on="1"/>
        <pt x="164" y="80" on="1"/>
        <pt x="241" y="73" on="0"/>
        <pt x="289" y="73" on="1"/>
      </contour>
    </TTGlyph>
    <TTGlyph name="D.ss01" xMin="-124" yMin="0" xMax="673" yMax="501">
      <contour>
        <pt x="437" y="461" on="1"/>
        <pt x="505" y="412" on="0"/>
        <pt x="505" y="304" on="1"/>
        <pt x="505" y="211" on="0"/>
        <pt x="440" y="75" on="0"/>
        <pt x="379" y="39" on="1"/>
        <pt x="616" y="39" on="1"/>
        <pt x="610" y="0" on="1"/>
        <pt x="-124" y="0" on="1"/>
        <pt x="-119" y="39" on="1"/>
        <pt x="63" y="39" on="1"/>
        <pt x="80" y="152" on="1"/>
        <pt x="115" y="461" on="1"/>
        <pt x="-67" y="461" on="1"/>
        <pt x="-62" y="501" on="1"/>
        <pt x="673" y="501" on="1"/>
        <pt x="667" y="461" on="1"/>
      </contour>
      <contour>
        <pt x="329" y="72" on="0"/>
        <pt x="412" y="179" on="0"/>
        <pt x="412" y="286" on="1"/>
        <pt x="412" y="422" on="0"/>
        <pt x="294" y="422" on="1"/>
        <pt x="237" y="422" on="0"/>
        <pt x="198" y="418" on="1"/>
        <pt x="162" y="160" on="1"/>
        <pt x="154" y="78" on="1"/>
        <pt x="214" y="72" on="0"/>
        <pt x="250" y="72" on="1"/>
      </contour>
    </TTGlyph>
    <TTGlyph name="Dcaron" xMin="57" yMin="-6" xMax="610" yMax="858">
      <component glyphName="D" x="0" y="0" flags="0x1000"/>
      <component glyphName="caron.cap" x="105" y="181" flags="0x1000"/>
    </TTGlyph>
    <TTGlyph name="Dcroat" xMin="57" yMin="-6" xMax="610" yMax="824">
      <component glyphName="D" x="0" y="0" flags="0x1000"/>
      <component glyphName="macron" x="109" y="181" flags="0x1000"/>
    </TTGlyph>
    <TTGlyph name="Delta" xMin="-16" yMin="0" xMax="515" yMax="642">
      <contour>
        <pt x="-16" y="0" on="1"/>
        <pt x="282" y="642" on="1"/>
        <pt x="397" y="642" on="1"/>
        <pt x="515" y="0" on="1"/>
      </contour>
      <contour>
        <pt x="110" y="80" on="1"/>
        <pt x="407" y="80" on="1"/>
        <pt x="329" y="544" on="1"/>
        <pt x="321" y="544" on="1"/>
      </contour>
    </TTGlyph>
    <TTGlyph name="E" xMin="57" yMin="0" xMax="505" yMax="642">
      <contour>
        <pt x="199" y="368" on="1"/>
        <pt x="311" y="366" on="1"/>
        <pt x="412" y="369" on="1"/>
        <pt x="417" y="362" on="1"/>
        <pt x="401" y="286" on="1"/>
        <pt x="293" y="289" on="1"/>
        <pt x="188" y="287" on="1"/>
        <pt x="176" y="201" on="1"/>
        <pt x="164" y="81" on="1"/>
        <pt x="283" y="79" on="1"/>
        <pt x="430" y="84" on="1"/>
        <pt x="433" y="76" on="1"/>
        <pt x="418" y="0" on="1"/>
        <pt x="57" y="0" on="1"/>
        <pt x="87" y="193" on="1"/>
        <pt x="138" y="642" on="1"/>
        <pt x="500" y="642" on="1"/>
        <pt x="505" y="633" on="1"/>
        <pt x="488" y="557" on="1"/>
        <pt x="343" y="561" on="1"/>
        <pt x="226" y="560" on="1"/>
      </contour>
    </TTGlyph>
    <TTGlyph name="Eacute" xMin="57" yMin="0" xMax="505" yMax="872">
      <component glyphName="E" x="0" y="0" flags="0x1000"/>
      <component glyphName="acute.cap" x="100" y="181" flags="0x1000"/>
    </TTGlyph>
    <TTGlyph name="Ebreve" xMin="57" yMin="0" xMax="505" yMax="851">
      <component glyphName="E" x="0" y="0" flags="0x1000"/>
      <component glyphName="breve.cap" x="86" y="181" flags="0x1000"/>
    </TTGlyph>
    <TTGlyph name="Ecaron" xMin="57" yMin="0" xMax="505" yMax="858">
      <component glyphName="E" x="0" y="0" flags="0x1000"/>
      <component glyphName="caron.cap" x="86" y="181" flags="0x1000"/>
    </TTGlyph>
    <TTGlyph name="Ecircumflex" xMin="57" yMin="0" xMax="505" yMax="866">
      <component glyphName="E" x="0" y="0" flags="0x1000"/>
      <component glyphName="circumflex.cap" x="93" y="181" flags="0x1000"/>
    </TTGlyph>
    <TTGlyph name="Ecircumflexacute" xMin="57" yMin="0" xMax="507" yMax="963">
      <component glyphName="E" x="0" y="0" flags="0x1000"/>
      <component glyphName="circumflexacute" x="91" y="181" flags="0x1000"/>
    </TTGlyph>
    <TTGlyph name="Ecircumflexdotbelow" xMin="57" yMin="-175" xMax="505" yMax="866">
      <component glyphName="E" x="0" y="0" flags="0x1000"/>
      <component glyphName="dotbelowcomb" x="108" y="0" flags="0x1000"/>
      <component glyphName="circumflex.cap" x="93" y="181" flags="0x1000"/>
    </TTGlyph>
    <TTGlyph name="Ecircumflexgrave" xMin="57" yMin="0" xMax="505" yMax="963">
      <component glyphName="E" x="0" y="0" flags="0x1000"/>
      <component glyphName="circumflexgrave" x="91" y="181" flags="0x1000"/>
    </TTGlyph>
    <TTGlyph name="Ecircumflexhookabove" xMin="57" yMin="0" xMax="505" yMax="1005">
      <component glyphName="E" x="0" y="0" flags="0x1000"/>
      <component glyphName="circumflexhookabove" x="91" y="181" flags="0x1000"/>
    </TTGlyph>
    <TTGlyph name="Ecircumflextilde" xMin="57" yMin="0" xMax="505" yMax="963">
      <component glyphName="E" x="0" y="0" flags="0x1000"/>
      <component glyphName="circumflexgrave" x="91" y="181" flags="0x1000"/>
    </TTGlyph>
    <TTGlyph name="Edieresis" xMin="57" yMin="0" xMax="505" yMax="843">
      <component glyphName="E" x="0" y="0" flags="0x1000"/>
      <component glyphName="dieresis" x="90" y="181" flags="0x1000"/>
    </TTGlyph>
    <TTGlyph name="Edotaccent" xMin="57" yMin="0" xMax="505" yMax="855">
      <component glyphName="E" x="0" y="0" flags="0x1000"/>
      <component glyphName="dotaccent" x="90" y="181" flags="0x1000"/>
    </TTGlyph>
    <TTGlyph name="Edotbelow" xMin="57" yMin="-175" xMax="505" yMax="642">
      <component glyphName="E" x="0" y="0" flags="0x1000"/>
      <component glyphName="dotbelowcomb" x="108" y="0" flags="0x1000"/>
    </TTGlyph>
    <TTGlyph name="Egrave" xMin="57" yMin="0" xMax="505" yMax="874">
      <component glyphName="E" x="0" y="0" flags="0x1000"/>
      <component glyphName="grave.cap" x="91" y="181" flags="0x1000"/>
    </TTGlyph>
    <TTGlyph name="Ehookabove" xMin="57" yMin="0" xMax="505" yMax="903">
      <component glyphName="E" x="0" y="0" flags="0x1000"/>
      <component glyphName="hookabove" x="59" y="181" flags="0x1000"/>
    </TTGlyph>
    <TTGlyph name="Emacron" xMin="57" yMin="0" xMax="505" yMax="824">
      <component glyphName="E" x="0" y="0" flags="0x1000"/>
      <component glyphName="macron" x="90" y="181" flags="0x1000"/>
    </TTGlyph>
    <TTGlyph name="Eng" xMin="57" yMin="-164" xMax="632" yMax="644">
      <contour>
        <pt x="556" y="58" on="1"/>
        <pt x="545" y="-20" on="0"/>
        <pt x="454" y="-120" on="0"/>
        <pt x="352" y="-164" on="1"/>
        <pt x="324" y="-110" on="1"/>
        <pt x="326" y="-99" on="1"/>
        <pt x="420" y="-49" on="0"/>
        <pt x="447" y="1" on="1"/>
        <pt x="212" y="487" on="1"/>
        <pt x="205" y="487" on="1"/>
        <pt x="172" y="214" on="1"/>
        <pt x="149" y="0" on="1"/>
        <pt x="57" y="0" on="1"/>
        <pt x="87" y="190" on="1"/>
        <pt x="138" y="642" on="1"/>
        <pt x="243" y="642" on="1"/>
        <pt x="475" y="158" on="1"/>
        <pt x="482" y="158" on="1"/>
        <pt x="538" y="637" on="1"/>
        <pt x="632" y="644" on="1"/>
        <pt x="569" y="191" on="1"/>
      </contour>
    </TTGlyph>
    <TTGlyph name="Eogonek" xMin="57" yMin="-197" xMax="505" yMax="642">
      <contour>
        <pt x="199" y="368" on="1"/>
        <pt x="312" y="366" on="1"/>
        <pt x="412" y="369" on="1"/>
        <pt x="418" y="362" on="1"/>
        <pt x="401" y="286" on="1"/>
        <pt x="293" y="289" on="1"/>
        <pt x="188" y="287" on="1"/>
        <pt x="176" y="201" on="1"/>
        <pt x="164" y="81" on="1"/>
        <pt x="284" y="79" on="1"/>
        <pt x="430" y="84" on="1"/>
        <pt x="434" y="76" on="1"/>
        <pt x="418" y="0" on="1"/>
        <pt x="354" y="0" on="1"/>
        <pt x="323" y="-48" on="1"/>
        <pt x="306" y="-74" on="0"/>
        <pt x="306" y="-96" on="1"/>
        <pt x="306" y="-135" on="0"/>
        <pt x="345" y="-135" on="1"/>
        <pt x="377" y="-135" on="0"/>
        <pt x="412" y="-100" on="1"/>
        <pt x="418" y="-100" on="1"/>
        <pt x="429" y="-146" on="1"/>
        <pt x="376" y="-197" on="0"/>
        <pt x="330" y="-197" on="1"/>
        <pt x="292" y="-197" on="0"/>
        <pt x="246" y="-150" on="0"/>
        <pt x="246" y="-114" on="1"/>
        <pt x="246" y="-75" on="0"/>
        <pt x="273" y="-37" on="1"/>
        <pt x="298" y="0" on="1"/>
        <pt x="57" y="0" on="1"/>
        <pt x="87" y="193" on="1"/>
        <pt x="138" y="642" on="1"/>
        <pt x="500" y="642" on="1"/>
        <pt x="505" y="633" on="1"/>
        <pt x="488" y="557" on="1"/>
        <pt x="343" y="561" on="1"/>
        <pt x="226" y="560" on="1"/>
      </contour>
    </TTGlyph>
    <TTGlyph name="Eth" xMin="29" yMin="-6" xMax="635" yMax="646">
      <contour>
        <pt x="505" y="646" on="0"/>
        <pt x="635" y="515" on="0"/>
        <pt x="635" y="395" on="1"/>
        <pt x="635" y="271" on="0"/>
        <pt x="556" y="91" on="0"/>
        <pt x="403" y="-6" on="0"/>
        <pt x="294" y="-6" on="1"/>
        <pt x="195" y="-6" on="0"/>
        <pt x="83" y="0" on="1"/>
        <pt x="82" y="0" on="1"/>
        <pt x="112" y="193" on="1"/>
        <pt x="123" y="289" on="1"/>
        <pt x="33" y="289" on="1"/>
        <pt x="29" y="297" on="1"/>
        <pt x="38" y="357" on="1"/>
        <pt x="130" y="357" on="1"/>
        <pt x="162" y="642" on="1"/>
        <pt x="163" y="642" on="1"/>
        <pt x="388" y="646" on="1"/>
      </contour>
      <contour>
        <pt x="418" y="73" on="0"/>
        <pt x="531" y="228" on="0"/>
        <pt x="531" y="378" on="1"/>
        <pt x="531" y="565" on="0"/>
        <pt x="377" y="565" on="1"/>
        <pt x="325" y="565" on="0"/>
        <pt x="251" y="561" on="1"/>
        <pt x="222" y="357" on="1"/>
        <pt x="365" y="357" on="1"/>
        <pt x="368" y="349" on="1"/>
        <pt x="361" y="289" on="1"/>
        <pt x="212" y="289" on="1"/>
        <pt x="200" y="201" on="1"/>
        <pt x="188" y="80" on="1"/>
        <pt x="265" y="73" on="0"/>
        <pt x="314" y="73" on="1"/>
      </contour>
    </TTGlyph>
    <TTGlyph name="Etilde" xMin="57" yMin="0" xMax="505" yMax="860">
      <component glyphName="E" x="0" y="0" flags="0x1000"/>
      <component glyphName="tilde" x="90" y="181" flags="0x1000"/>
    </TTGlyph>
    <TTGlyph name="Euro" xMin="10" yMin="-6" xMax="485" yMax="504">
      <contour>
        <pt x="428" y="504" on="0"/>
        <pt x="485" y="471" on="1"/>
        <pt x="462" y="405" on="1"/>
        <pt x="455" y="403" on="1"/>
        <pt x="409" y="437" on="0"/>
        <pt x="344" y="437" on="1"/>
        <pt x="232" y="437" on="0"/>
        <pt x="191" y="327" on="1"/>
        <pt x="365" y="327" on="1"/>
        <pt x="370" y="321" on="1"/>
        <pt x="360" y="273" on="1"/>
        <pt x="176" y="273" on="1"/>
        <pt x="172" y="253" on="0"/>
        <pt x="170" y="214" on="1"/>
        <pt x="352" y="214" on="1"/>
        <pt x="355" y="208" on="1"/>
        <pt x="346" y="160" on="1"/>
        <pt x="174" y="160" on="1"/>
        <pt x="191" y="61" on="0"/>
        <pt x="295" y="61" on="1"/>
        <pt x="364" y="61" on="0"/>
        <pt x="424" y="98" on="1"/>
        <pt x="432" y="92" on="1"/>
        <pt x="417" y="29" on="1"/>
        <pt x="354" y="-6" on="0"/>
        <pt x="284" y="-6" on="1"/>
        <pt x="103" y="-6" on="0"/>
        <pt x="86" y="160" on="1"/>
        <pt x="13" y="160" on="1"/>
        <pt x="10" y="166" on="1"/>
        <pt x="19" y="214" on="1"/>
        <pt x="87" y="214" on="1"/>
        <pt x="91" y="251" on="0"/>
        <pt x="94" y="273" on="1"/>
        <pt x="26" y="273" on="1"/>
        <pt x="23" y="279" on="1"/>
        <pt x="32" y="327" on="1"/>
        <pt x="107" y="327" on="1"/>
        <pt x="136" y="413" on="0"/>
        <pt x="261" y="504" on="0"/>
        <pt x="353" y="504" on="1"/>
      </contour>
    </TTGlyph>
    <TTGlyph name="F" xMin="57" yMin="0" xMax="485" yMax="642">
      <contour>
        <pt x="197" y="354" on="1"/>
        <pt x="293" y="352" on="1"/>
        <pt x="396" y="355" on="1"/>
        <pt x="401" y="346" on="1"/>
        <pt x="384" y="272" on="1"/>
        <pt x="275" y="275" on="1"/>
        <pt x="186" y="274" on="1"/>
        <pt x="176" y="201" on="1"/>
        <pt x="156" y="0" on="1"/>
        <pt x="57" y="0" on="1"/>
        <pt x="87" y="193" on="1"/>
        <pt x="138" y="642" on="1"/>
        <pt x="480" y="642" on="1"/>
        <pt x="485" y="633" on="1"/>
        <pt x="467" y="555" on="1"/>
        <pt x="326" y="561" on="1"/>
        <pt x="226" y="560" on="1"/>
      </contour>
    </TTGlyph>
    <TTGlyph name="G" xMin="41" yMin="-8" xMax="570" yMax="648">
      <contour>
        <pt x="487" y="648" on="0"/>
        <pt x="570" y="605" on="1"/>
        <pt x="537" y="513" on="1"/>
        <pt x="527" y="511" on="1"/>
        <pt x="483" y="541" on="0"/>
        <pt x="411" y="566" on="0"/>
        <pt x="368" y="566" on="1"/>
        <pt x="142" y="566" on="0"/>
        <pt x="142" y="256" on="1"/>
        <pt x="142" y="162" on="0"/>
        <pt x="221" y="74" on="0"/>
        <pt x="304" y="74" on="1"/>
        <pt x="345" y="74" on="0"/>
        <pt x="411" y="95" on="1"/>
        <pt x="422" y="162" on="1"/>
        <pt x="432" y="256" on="1"/>
        <pt x="524" y="263" on="1"/>
        <pt x="512" y="176" on="1"/>
        <pt x="497" y="31" on="1"/>
        <pt x="386" y="-8" on="0"/>
        <pt x="296" y="-8" on="1"/>
        <pt x="171" y="-8" on="0"/>
        <pt x="41" y="127" on="0"/>
        <pt x="41" y="249" on="1"/>
        <pt x="41" y="440" on="0"/>
        <pt x="221" y="648" on="0"/>
        <pt x="387" y="648" on="1"/>
      </contour>
    </TTGlyph>
    <TTGlyph name="Gbreve" xMin="41" yMin="-8" xMax="570" yMax="851">
      <component glyphName="G" x="0" y="0" flags="0x1000"/>
      <component glyphName="breve.cap" x="127" y="181" flags="0x1000"/>
    </TTGlyph>
    <TTGlyph name="Gcircumflex" xMin="41" yMin="-8" xMax="570" yMax="866">
      <component glyphName="G" x="0" y="0" flags="0x1000"/>
      <component glyphName="circumflex.cap" x="134" y="181" flags="0x1000"/>
    </TTGlyph>
    <TTGlyph name="Gcommaaccent" xMin="41" yMin="-253" xMax="570" yMax="648">
      <component glyphName="G" x="0" y="0" flags="0x1000"/>
      <component glyphName="commaaccentcomb" x="147" y="4" flags="0x1000"/>
    </TTGlyph>
    <TTGlyph name="Gdieresis" xMin="41" yMin="-8" xMax="570" yMax="843">
      <component glyphName="G" x="0" y="0" flags="0x1000"/>
      <component glyphName="dieresis" x="131" y="181" flags="0x1000"/>
    </TTGlyph>
    <TTGlyph name="Gdotaccent" xMin="41" yMin="-8" xMax="570" yMax="855">
      <component glyphName="G" x="0" y="0" flags="0x1000"/>
      <component glyphName="dotaccent" x="131" y="181" flags="0x1000"/>
    </TTGlyph>
    <TTGlyph name="Gtilde" xMin="41" yMin="-8" xMax="570" yMax="860">
      <component glyphName="G" x="0" y="0" flags="0x1000"/>
      <component glyphName="tilde" x="131" y="181" flags="0x1000"/>
    </TTGlyph>
    <TTGlyph name="H" xMin="57" yMin="0" xMax="629" yMax="642">
      <contour>
        <pt x="568" y="201" on="1"/>
        <pt x="548" y="0" on="1"/>
        <pt x="450" y="0" on="1"/>
        <pt x="479" y="193" on="1"/>
        <pt x="489" y="282" on="1"/>
        <pt x="330" y="285" on="1"/>
        <pt x="186" y="282" on="1"/>
        <pt x="175" y="201" on="1"/>
        <pt x="156" y="0" on="1"/>
        <pt x="57" y="0" on="1"/>
        <pt x="86" y="193" on="1"/>
        <pt x="137" y="642" on="1"/>
        <pt x="236" y="642" on="1"/>
        <pt x="198" y="366" on="1"/>
        <pt x="348" y="363" on="1"/>
        <pt x="498" y="366" on="1"/>
        <pt x="529" y="642" on="1"/>
        <pt x="629" y="642" on="1"/>
      </contour>
    </TTGlyph>
    <TTGlyph name="Hbar" xMin="69" yMin="0" xMax="692" yMax="642">
      <contour>
        <pt x="619" y="476" on="1"/>
        <pt x="581" y="201" on="1"/>
        <pt x="560" y="0" on="1"/>
        <pt x="462" y="0" on="1"/>
        <pt x="492" y="193" on="1"/>
        <pt x="502" y="282" on="1"/>
        <pt x="343" y="285" on="1"/>
        <pt x="199" y="282" on="1"/>
        <pt x="188" y="201" on="1"/>
        <pt x="168" y="0" on="1"/>
        <pt x="69" y="0" on="1"/>
        <pt x="99" y="193" on="1"/>
        <pt x="131" y="476" on="1"/>
        <pt x="73" y="476" on="1"/>
        <pt x="69" y="482" on="1"/>
        <pt x="73" y="541" on="1"/>
        <pt x="138" y="541" on="1"/>
        <pt x="149" y="642" on="1"/>
        <pt x="248" y="642" on="1"/>
        <pt x="234" y="541" on="1"/>
        <pt x="531" y="541" on="1"/>
        <pt x="542" y="642" on="1"/>
        <pt x="642" y="642" on="1"/>
        <pt x="628" y="541" on="1"/>
        <pt x="686" y="541" on="1"/>
        <pt x="692" y="535" on="1"/>
        <pt x="687" y="476" on="1"/>
      </contour>
      <contour>
        <pt x="225" y="476" on="1"/>
        <pt x="210" y="366" on="1"/>
        <pt x="360" y="363" on="1"/>
        <pt x="511" y="366" on="1"/>
        <pt x="524" y="476" on="1"/>
      </contour>
    </TTGlyph>
    <TTGlyph name="Hcircumflex" xMin="57" yMin="0" xMax="629" yMax="866">
      <component glyphName="H" x="0" y="0" flags="0x1000"/>
      <component glyphName="circumflex.cap" x="163" y="181" flags="0x1000"/>
    </TTGlyph>
    <TTGlyph name="I" xMin="57" yMin="0" xMax="236" yMax="642">
      <contour>
        <pt x="156" y="0" on="1"/>
        <pt x="57" y="0" on="1"/>
        <pt x="86" y="193" on="1"/>
        <pt x="137" y="642" on="1"/>
        <pt x="236" y="642" on="1"/>
        <pt x="175" y="201" on="1"/>
      </contour>
    </TTGlyph>
    <TTGlyph name="I.ss01" xMin="-124" yMin="0" xMax="385" yMax="501">
      <contour>
        <pt x="146" y="39" on="1"/>
        <pt x="328" y="39" on="1"/>
        <pt x="323" y="0" on="1"/>
        <pt x="-124" y="0" on="1"/>
        <pt x="-119" y="39" on="1"/>
        <pt x="57" y="39" on="1"/>
        <pt x="73" y="150" on="1"/>
        <pt x="109" y="461" on="1"/>
        <pt x="-67" y="461" on="1"/>
        <pt x="-62" y="501" on="1"/>
        <pt x="385" y="501" on="1"/>
        <pt x="380" y="461" on="1"/>
        <pt x="200" y="461" on="1"/>
        <pt x="158" y="158" on="1"/>
      </contour>
    </TTGlyph>
    <TTGlyph name="IJ" xMin="57" yMin="-103" xMax="542" yMax="642">
      <component glyphName="I" x="0" y="0" flags="0x1000"/>
      <component glyphName="J" x="270" y="0" flags="0x1000"/>
    </TTGlyph>
    <TTGlyph name="Iacute" xMin="57" yMin="0" xMax="330" yMax="872">
      <component glyphName="I" x="0" y="0" flags="0x1000"/>
      <component glyphName="acute.cap" x="-27" y="181" flags="0x1000"/>
    </TTGlyph>
    <TTGlyph name="Iacute_J.loclNLD" xMin="57" yMin="-103" xMax="596" yMax="872">
      <component glyphName="I" x="0" y="0" flags="0x1000"/>
      <component glyphName="acute.cap" x="-27" y="181" flags="0x1000"/>
      <component glyphName="J" x="270" y="0" flags="0x1000"/>
      <component glyphName="acute.cap" x="239" y="181" flags="0x1000"/>
    </TTGlyph>
    <TTGlyph name="Ibreve" xMin="57" yMin="0" xMax="339" yMax="851">
      <component glyphName="I" x="0" y="0" flags="0x1000"/>
      <component glyphName="breve.cap" x="-41" y="181" flags="0x1000"/>
    </TTGlyph>
    <TTGlyph name="Icaron" xMin="57" yMin="0" xMax="338" yMax="858">
      <component glyphName="I" x="0" y="0" flags="0x1000"/>
      <component glyphName="caron.cap" x="-41" y="181" flags="0x1000"/>
    </TTGlyph>
    <TTGlyph name="Icircumflex" xMin="57" yMin="0" xMax="340" yMax="866">
      <component glyphName="I" x="0" y="0" flags="0x1000"/>
      <component glyphName="circumflex.cap" x="-34" y="181" flags="0x1000"/>
    </TTGlyph>
    <TTGlyph name="Idieresis" xMin="57" yMin="0" xMax="322" yMax="842">
      <component glyphName="I" x="0" y="0" flags="0x1000"/>
      <component glyphName="dieresis.i" x="-37" y="181" flags="0x1000"/>
    </TTGlyph>
    <TTGlyph name="Idotaccent" xMin="57" yMin="0" xMax="259" yMax="855">
      <component glyphName="I" x="0" y="0" flags="0x1000"/>
      <component glyphName="dotaccent" x="-37" y="181" flags="0x1000"/>
    </TTGlyph>
    <TTGlyph name="Idotbelow" xMin="43" yMin="-175" xMax="236" yMax="642">
      <component glyphName="I" x="0" y="0" flags="0x1000"/>
      <component glyphName="dotbelowcomb" x="-54" y="0" flags="0x1000"/>
    </TTGlyph>
    <TTGlyph name="Igrave" xMin="57" yMin="0" xMax="321" yMax="874">
      <component glyphName="I" x="0" y="0" flags="0x1000"/>
      <component glyphName="grave.cap" x="-36" y="181" flags="0x1000"/>
    </TTGlyph>
    <TTGlyph name="Ihookabove" xMin="57" yMin="0" xMax="261" yMax="903">
      <component glyphName="I" x="0" y="0" flags="0x1000"/>
      <component glyphName="hookabove" x="-68" y="181" flags="0x1000"/>
    </TTGlyph>
    <TTGlyph name="Imacron" xMin="57" yMin="0" xMax="320" yMax="824">
      <component glyphName="I" x="0" y="0" flags="0x1000"/>
      <component glyphName="macron.i" x="-37" y="181" flags="0x1000"/>
    </TTGlyph>
    <TTGlyph name="Iogonek" xMin="-12" yMin="-197" xMax="236" yMax="642">
      <contour>
        <pt x="176" y="201" on="1"/>
        <pt x="156" y="0" on="1"/>
        <pt x="115" y="0" on="1"/>
        <pt x="76" y="-46" on="0"/>
        <pt x="48" y="-90" on="0"/>
        <pt x="48" y="-106" on="1"/>
        <pt x="48" y="-135" on="0"/>
        <pt x="77" y="-135" on="1"/>
        <pt x="108" y="-135" on="0"/>
        <pt x="135" y="-102" on="1"/>
        <pt x="140" y="-102" on="1"/>
        <pt x="154" y="-149" on="1"/>
        <pt x="106" y="-197" on="0"/>
        <pt x="63" y="-197" on="1"/>
        <pt x="30" y="-197" on="0"/>
        <pt x="-12" y="-155" on="0"/>
        <pt x="-12" y="-121" on="1"/>
        <pt x="-12" y="-98" on="0"/>
        <pt x="17" y="-45" on="0"/>
        <pt x="57" y="3" on="1"/>
        <pt x="87" y="193" on="1"/>
        <pt x="137" y="642" on="1"/>
        <pt x="236" y="642" on="1"/>
      </contour>
    </TTGlyph>
    <TTGlyph name="Itilde" xMin="57" yMin="0" xMax="349" yMax="857">
      <component glyphName="I" x="0" y="0" flags="0x1000"/>
      <component glyphName="tilde.i" x="-37" y="181" flags="0x1000"/>
    </TTGlyph>
    <TTGlyph name="J" xMin="-30" yMin="-103" xMax="272" yMax="642">
      <contour>
        <pt x="212" y="212" on="1"/>
        <pt x="203" y="119" on="1"/>
        <pt x="193" y="41" on="0"/>
        <pt x="101" y="-59" on="0"/>
        <pt x="-2" y="-103" on="1"/>
        <pt x="-30" y="-49" on="1"/>
        <pt x="-29" y="-38" on="1"/>
        <pt x="42" y="-2" on="0"/>
        <pt x="105" y="67" on="0"/>
        <pt x="112" y="120" on="1"/>
        <pt x="123" y="203" on="1"/>
        <pt x="163" y="565" on="1"/>
        <pt x="50" y="563" on="1"/>
        <pt x="42" y="571" on="1"/>
        <pt x="56" y="642" on="1"/>
        <pt x="272" y="642" on="1"/>
      </contour>
    </TTGlyph>
    <TTGlyph name="Jcircumflex" xMin="-30" yMin="-103" xMax="335" yMax="866">
      <component glyphName="J" x="0" y="0" flags="0x1000"/>
      <component glyphName="circumflex.cap" x="-39" y="181" flags="0x1000"/>
    </TTGlyph>
    <TTGlyph name="K" xMin="56" yMin="-9" xMax="577" yMax="642">
      <contour>
        <pt x="155" y="0" on="1"/>
        <pt x="56" y="0" on="1"/>
        <pt x="86" y="193" on="1"/>
        <pt x="137" y="642" on="1"/>
        <pt x="236" y="642" on="1"/>
        <pt x="175" y="201" on="1"/>
      </contour>
      <contour>
        <pt x="392" y="186" on="0"/>
        <pt x="517" y="21" on="1"/>
        <pt x="514" y="9" on="1"/>
        <pt x="463" y="-3" on="0"/>
        <pt x="417" y="-9" on="1"/>
        <pt x="407" y="-4" on="1"/>
        <pt x="285" y="181" on="0"/>
        <pt x="200" y="336" on="1"/>
        <pt x="201" y="342" on="1"/>
        <pt x="424" y="584" on="1"/>
        <pt x="469" y="642" on="1"/>
        <pt x="577" y="642" on="1"/>
        <pt x="303" y="337" on="1"/>
      </contour>
    </TTGlyph>
    <TTGlyph name="Kcommaaccent" xMin="56" yMin="-253" xMax="577" yMax="642">
      <component glyphName="K" x="0" y="0" flags="0x1000"/>
      <component glyphName="commaaccentcomb" x="119" y="4" flags="0x1000"/>
    </TTGlyph>
    <TTGlyph name="L" xMin="54" yMin="0" xMax="385" yMax="642">
      <contour>
        <pt x="368" y="0" on="1"/>
        <pt x="54" y="0" on="1"/>
        <pt x="84" y="193" on="1"/>
        <pt x="134" y="642" on="1"/>
        <pt x="234" y="642" on="1"/>
        <pt x="173" y="201" on="1"/>
        <pt x="161" y="82" on="1"/>
        <pt x="381" y="82" on="1"/>
        <pt x="385" y="74" on="1"/>
      </contour>
    </TTGlyph>
    <TTGlyph name="L.ss01" xMin="-127" yMin="0" xMax="492" yMax="501">
      <contour>
        <pt x="147" y="78" on="1"/>
        <pt x="322" y="78" on="1"/>
        <pt x="317" y="39" on="1"/>
        <pt x="433" y="39" on="1"/>
        <pt x="428" y="0" on="1"/>
        <pt x="-127" y="0" on="1"/>
        <pt x="-122" y="39" on="1"/>
        <pt x="56" y="39" on="1"/>
        <pt x="74" y="160" on="1"/>
        <pt x="109" y="461" on="1"/>
        <pt x="-69" y="461" on="1"/>
        <pt x="-64" y="501" on="1"/>
        <pt x="492" y="501" on="1"/>
        <pt x="486" y="461" on="1"/>
        <pt x="199" y="461" on="1"/>
        <pt x="159" y="168" on="1"/>
      </contour>
    </TTGlyph>
    <TTGlyph name="Lacute" xMin="54" yMin="0" xMax="385" yMax="872">
      <component glyphName="L" x="0" y="0" flags="0x1000"/>
      <component glyphName="acute.cap" x="-28" y="181" flags="0x1000"/>
    </TTGlyph>
    <TTGlyph name="Lcaron" xMin="54" yMin="0" xMax="437" yMax="642">
      <contour>
        <pt x="385" y="74" on="1"/>
        <pt x="369" y="0" on="1"/>
        <pt x="54" y="0" on="1"/>
        <pt x="84" y="193" on="1"/>
        <pt x="135" y="642" on="1"/>
        <pt x="234" y="642" on="1"/>
        <pt x="173" y="201" on="1"/>
        <pt x="161" y="82" on="1"/>
        <pt x="381" y="82" on="1"/>
      </contour>
      <contour>
        <pt x="389" y="396" on="1"/>
        <pt x="343" y="389" on="1"/>
        <pt x="336" y="396" on="1"/>
        <pt x="361" y="581" on="1"/>
        <pt x="431" y="585" on="1"/>
        <pt x="437" y="578" on="1"/>
      </contour>
    </TTGlyph>
    <TTGlyph name="Lcommaaccent" xMin="54" yMin="-253" xMax="385" yMax="642">
      <component glyphName="L" x="0" y="0" flags="0x1000"/>
      <component glyphName="commaaccentcomb" x="40" y="4" flags="0x1000"/>
    </TTGlyph>
    <TTGlyph name="Ldot" xMin="55" yMin="0" xMax="398" yMax="642">
      <component glyphName="L" x="1" y="0" flags="0x1000"/>
      <component glyphName="period" x="252" y="332" flags="0x1000"/>
    </TTGlyph>
    <TTGlyph name="Lslash" xMin="13" yMin="0" xMax="394" yMax="642">
      <contour>
        <pt x="377" y="0" on="1"/>
        <pt x="62" y="0" on="1"/>
        <pt x="93" y="193" on="1"/>
        <pt x="102" y="274" on="1"/>
        <pt x="33" y="239" on="1"/>
        <pt x="23" y="245" on="1"/>
        <pt x="13" y="303" on="1"/>
        <pt x="111" y="353" on="1"/>
        <pt x="143" y="642" on="1"/>
        <pt x="242" y="642" on="1"/>
        <pt x="209" y="403" on="1"/>
        <pt x="332" y="465" on="1"/>
        <pt x="342" y="460" on="1"/>
        <pt x="353" y="402" on="1"/>
        <pt x="199" y="323" on="1"/>
        <pt x="182" y="201" on="1"/>
        <pt x="170" y="82" on="1"/>
        <pt x="389" y="82" on="1"/>
        <pt x="394" y="74" on="1"/>
      </contour>
    </TTGlyph>
    <TTGlyph name="M" xMin="25" yMin="0" xMax="701" yMax="642">
      <contour>
        <pt x="590" y="0" on="1"/>
        <pt x="603" y="195" on="1"/>
        <pt x="611" y="491" on="1"/>
        <pt x="604" y="491" on="1"/>
        <pt x="394" y="72" on="1"/>
        <pt x="315" y="72" on="1"/>
        <pt x="220" y="491" on="1"/>
        <pt x="212" y="491" on="1"/>
        <pt x="148" y="203" on="1"/>
        <pt x="107" y="0" on="1"/>
        <pt x="25" y="0" on="1"/>
        <pt x="168" y="642" on="1"/>
        <pt x="280" y="642" on="1"/>
        <pt x="297" y="545" on="1"/>
        <pt x="372" y="199" on="1"/>
        <pt x="380" y="199" on="1"/>
        <pt x="549" y="549" on="1"/>
        <pt x="590" y="642" on="1"/>
        <pt x="701" y="642" on="1"/>
        <pt x="678" y="0" on="1"/>
      </contour>
    </TTGlyph>
    <TTGlyph name="M.ss01" xMin="-124" yMin="0" xMax="785" yMax="501">
      <contour>
        <pt x="559" y="39" on="1"/>
        <pt x="726" y="39" on="1"/>
        <pt x="721" y="0" on="1"/>
        <pt x="-124" y="0" on="1"/>
        <pt x="-119" y="39" on="1"/>
        <pt x="42" y="39" on="1"/>
        <pt x="140" y="461" on="1"/>
        <pt x="-67" y="461" on="1"/>
        <pt x="-62" y="501" on="1"/>
        <pt x="785" y="501" on="1"/>
        <pt x="780" y="461" on="1"/>
        <pt x="571" y="461" on="1"/>
      </contour>
      <contour>
        <pt x="252" y="461" on="1"/>
        <pt x="260" y="423" on="1"/>
        <pt x="319" y="197" on="1"/>
        <pt x="325" y="197" on="1"/>
        <pt x="443" y="424" on="1"/>
        <pt x="462" y="461" on="1"/>
      </contour>
      <contour>
        <pt x="492" y="166" on="1"/>
        <pt x="497" y="366" on="1"/>
        <pt x="491" y="366" on="1"/>
        <pt x="338" y="85" on="1"/>
        <pt x="269" y="85" on="1"/>
        <pt x="192" y="366" on="1"/>
        <pt x="186" y="366" on="1"/>
        <pt x="142" y="172" on="1"/>
        <pt x="117" y="39" on="1"/>
        <pt x="483" y="39" on="1"/>
      </contour>
    </TTGlyph>
    <TTGlyph name="N" xMin="57" yMin="0" xMax="630" yMax="644">
      <contour>
        <pt x="547" y="0" on="1"/>
        <pt x="443" y="0" on="1"/>
        <pt x="213" y="488" on="1"/>
        <pt x="206" y="488" on="1"/>
        <pt x="171" y="214" on="1"/>
        <pt x="148" y="0" on="1"/>
        <pt x="57" y="0" on="1"/>
        <pt x="86" y="190" on="1"/>
        <pt x="139" y="642" on="1"/>
        <pt x="242" y="642" on="1"/>
        <pt x="472" y="153" on="1"/>
        <pt x="479" y="153" on="1"/>
        <pt x="537" y="637" on="1"/>
        <pt x="630" y="644" on="1"/>
        <pt x="567" y="191" on="1"/>
      </contour>
    </TTGlyph>
    <TTGlyph name="Nacute" xMin="57" yMin="0" xMax="630" yMax="872">
      <component glyphName="N" x="0" y="0" flags="0x1000"/>
      <component glyphName="acute.cap" x="170" y="181" flags="0x1000"/>
    </TTGlyph>
    <TTGlyph name="Ncaron" xMin="57" yMin="0" xMax="630" yMax="858">
      <component glyphName="N" x="0" y="0" flags="0x1000"/>
      <component glyphName="caron.cap" x="156" y="181" flags="0x1000"/>
    </TTGlyph>
    <TTGlyph name="Ncommaaccent" xMin="57" yMin="-253" xMax="630" yMax="644">
      <component glyphName="N" x="0" y="0" flags="0x1000"/>
      <component glyphName="commaaccentcomb" x="141" y="4" flags="0x1000"/>
    </TTGlyph>
    <TTGlyph name="Ntilde" xMin="57" yMin="0" xMax="630" yMax="860">
      <component glyphName="N" x="0" y="0" flags="0x1000"/>
      <component glyphName="tilde" x="160" y="181" flags="0x1000"/>
    </TTGlyph>
    <TTGlyph name="O" xMin="43" yMin="-8" xMax="601" yMax="649">
      <contour>
        <pt x="476" y="649" on="0"/>
        <pt x="601" y="514" on="0"/>
        <pt x="601" y="389" on="1"/>
        <pt x="601" y="267" on="0"/>
        <pt x="526" y="89" on="0"/>
        <pt x="381" y="-8" on="0"/>
        <pt x="279" y="-8" on="1"/>
        <pt x="168" y="-8" on="0"/>
        <pt x="43" y="131" on="0"/>
        <pt x="43" y="257" on="1"/>
        <pt x="43" y="441" on="0"/>
        <pt x="209" y="649" on="0"/>
        <pt x="363" y="649" on="1"/>
      </contour>
      <contour>
        <pt x="144" y="568" on="0"/>
        <pt x="144" y="262" on="1"/>
        <pt x="144" y="165" on="0"/>
        <pt x="215" y="71" on="0"/>
        <pt x="289" y="71" on="1"/>
        <pt x="497" y="71" on="0"/>
        <pt x="497" y="379" on="1"/>
        <pt x="497" y="476" on="0"/>
        <pt x="426" y="568" on="0"/>
        <pt x="352" y="568" on="1"/>
      </contour>
    </TTGlyph>
    <TTGlyph name="OE" xMin="42" yMin="-12" xMax="855" yMax="654">
      <contour>
        <pt x="429" y="654" on="0"/>
        <pt x="483" y="648" on="1"/>
        <pt x="535" y="642" on="0"/>
        <pt x="560" y="642" on="1"/>
        <pt x="849" y="642" on="1"/>
        <pt x="855" y="633" on="1"/>
        <pt x="837" y="557" on="1"/>
        <pt x="698" y="561" on="1"/>
        <pt x="574" y="561" on="1"/>
        <pt x="550" y="368" on="1"/>
        <pt x="655" y="366" on="1"/>
        <pt x="763" y="369" on="1"/>
        <pt x="767" y="362" on="1"/>
        <pt x="751" y="286" on="1"/>
        <pt x="638" y="289" on="1"/>
        <pt x="536" y="287" on="1"/>
        <pt x="526" y="198" on="1"/>
        <pt x="513" y="81" on="1"/>
        <pt x="626" y="79" on="1"/>
        <pt x="779" y="84" on="1"/>
        <pt x="784" y="76" on="1"/>
        <pt x="768" y="0" on="1"/>
        <pt x="480" y="0" on="1"/>
        <pt x="460" y="1" on="0"/>
        <pt x="388" y="-6" on="1"/>
        <pt x="326" y="-12" on="0"/>
        <pt x="294" y="-12" on="1"/>
        <pt x="173" y="-12" on="0"/>
        <pt x="42" y="132" on="0"/>
        <pt x="42" y="261" on="1"/>
        <pt x="42" y="382" on="0"/>
        <pt x="127" y="559" on="0"/>
        <pt x="286" y="654" on="0"/>
        <pt x="395" y="654" on="1"/>
      </contour>
      <contour>
        <pt x="261" y="573" on="0"/>
        <pt x="143" y="417" on="0"/>
        <pt x="143" y="266" on="1"/>
        <pt x="143" y="68" on="0"/>
        <pt x="313" y="68" on="1"/>
        <pt x="368" y="68" on="0"/>
        <pt x="400" y="78" on="1"/>
        <pt x="414" y="83" on="0"/>
        <pt x="426" y="99" on="0"/>
        <pt x="428" y="115" on="1"/>
        <pt x="474" y="520" on="1"/>
        <pt x="475" y="527" on="0"/>
        <pt x="475" y="537" on="1"/>
        <pt x="475" y="555" on="0"/>
        <pt x="466" y="559" on="1"/>
        <pt x="440" y="573" on="0"/>
        <pt x="376" y="573" on="1"/>
      </contour>
    </TTGlyph>
    <TTGlyph name="Oacute" xMin="43" yMin="-8" xMax="601" yMax="872">
      <component glyphName="O" x="0" y="0" flags="0x1000"/>
      <component glyphName="acute.cap" x="148" y="181" flags="0x1000"/>
    </TTGlyph>
    <TTGlyph name="Obreve" xMin="43" yMin="-8" xMax="601" yMax="851">
      <component glyphName="O" x="0" y="0" flags="0x1000"/>
      <component glyphName="breve.cap" x="133" y="181" flags="0x1000"/>
    </TTGlyph>
    <TTGlyph name="Ocaron" xMin="43" yMin="-8" xMax="601" yMax="858">
      <component glyphName="O" x="0" y="0" flags="0x1000"/>
      <component glyphName="caron.cap" x="133" y="181" flags="0x1000"/>
    </TTGlyph>
    <TTGlyph name="Ocircumflex" xMin="43" yMin="-8" xMax="601" yMax="866">
      <component glyphName="O" x="0" y="0" flags="0x1000"/>
      <component glyphName="circumflex.cap" x="140" y="181" flags="0x1000"/>
    </TTGlyph>
    <TTGlyph name="Ocircumflexacute" xMin="43" yMin="-8" xMax="601" yMax="963">
      <component glyphName="O" x="0" y="0" flags="0x1000"/>
      <component glyphName="circumflexacute" x="138" y="181" flags="0x1000"/>
    </TTGlyph>
    <TTGlyph name="Ocircumflexdotbelow" xMin="43" yMin="-175" xMax="601" yMax="866">
      <contour>
        <pt x="311" y="812" on="0"/>
        <pt x="377" y="866" on="1"/>
        <pt x="401" y="866" on="1"/>
        <pt x="450" y="820" on="0"/>
        <pt x="515" y="771" on="1"/>
        <pt x="490" y="730" on="1"/>
        <pt x="480" y="730" on="1"/>
        <pt x="436" y="759" on="0"/>
        <pt x="385" y="796" on="1"/>
        <pt x="309" y="752" on="1"/>
        <pt x="271" y="730" on="1"/>
        <pt x="260" y="730" on="1"/>
        <pt x="246" y="771" on="1"/>
      </contour>
      <contour>
        <pt x="476" y="649" on="0"/>
        <pt x="601" y="514" on="0"/>
        <pt x="601" y="389" on="1"/>
        <pt x="601" y="267" on="0"/>
        <pt x="526" y="89" on="0"/>
        <pt x="382" y="-8" on="0"/>
        <pt x="280" y="-8" on="1"/>
        <pt x="168" y="-8" on="0"/>
        <pt x="43" y="131" on="0"/>
        <pt x="43" y="257" on="1"/>
        <pt x="43" y="441" on="0"/>
        <pt x="210" y="649" on="0"/>
        <pt x="363" y="649" on="1"/>
      </contour>
      <contour>
        <pt x="144" y="568" on="0"/>
        <pt x="144" y="262" on="1"/>
        <pt x="144" y="165" on="0"/>
        <pt x="215" y="71" on="0"/>
        <pt x="289" y="71" on="1"/>
        <pt x="497" y="71" on="0"/>
        <pt x="497" y="379" on="1"/>
        <pt x="497" y="476" on="0"/>
        <pt x="425" y="568" on="0"/>
        <pt x="351" y="568" on="1"/>
      </contour>
      <contour>
        <pt x="321" y="-66" on="0"/>
        <pt x="348" y="-94" on="0"/>
        <pt x="348" y="-118" on="1"/>
        <pt x="348" y="-144" on="0"/>
        <pt x="318" y="-175" on="0"/>
        <pt x="293" y="-175" on="1"/>
        <pt x="241" y="-175" on="0"/>
        <pt x="241" y="-122" on="1"/>
        <pt x="241" y="-96" on="0"/>
        <pt x="271" y="-66" on="0"/>
        <pt x="297" y="-66" on="1"/>
      </contour>
    </TTGlyph>
    <TTGlyph name="Ocircumflexgrave" xMin="43" yMin="-8" xMax="601" yMax="963">
      <component glyphName="O" x="0" y="0" flags="0x1000"/>
      <component glyphName="circumflexgrave" x="138" y="181" flags="0x1000"/>
    </TTGlyph>
    <TTGlyph name="Ocircumflexhookabove" xMin="43" yMin="-8" xMax="601" yMax="1005">
      <component glyphName="O" x="0" y="0" flags="0x1000"/>
      <component glyphName="circumflexhookabove" x="138" y="181" flags="0x1000"/>
    </TTGlyph>
    <TTGlyph name="Ocircumflextilde" xMin="43" yMin="-8" xMax="601" yMax="986">
      <component glyphName="O" x="0" y="0" flags="0x1000"/>
      <component glyphName="circumflextilde" x="157" y="181" flags="0x1000"/>
    </TTGlyph>
    <TTGlyph name="Odieresis" xMin="43" yMin="-8" xMax="601" yMax="843">
      <component glyphName="O" x="0" y="0" flags="0x1000"/>
      <component glyphName="dieresis" x="137" y="181" flags="0x1000"/>
    </TTGlyph>
    <TTGlyph name="Odotbelow" xMin="43" yMin="-175" xMax="601" yMax="649">
      <component glyphName="O" x="0" y="0" flags="0x1000"/>
      <component glyphName="dotbelowcomb" x="144" y="0" flags="0x1000"/>
    </TTGlyph>
    <TTGlyph name="Ograve" xMin="43" yMin="-8" xMax="601" yMax="874">
      <component glyphName="O" x="0" y="0" flags="0x1000"/>
      <component glyphName="grave.cap" x="138" y="181" flags="0x1000"/>
    </TTGlyph>
    <TTGlyph name="Ohm" xMin="6" yMin="-4" xMax="668" yMax="649">
      <component glyphName="Omega" x="0" y="0" flags="0x1000"/>
    </TTGlyph>
    <TTGlyph name="Ohookabove" xMin="43" yMin="-8" xMax="601" yMax="903">
      <component glyphName="O" x="0" y="0" flags="0x1000"/>
      <component glyphName="hookabove" x="106" y="181" flags="0x1000"/>
    </TTGlyph>
    <TTGlyph name="Ohorn" xMin="43" yMin="-8" xMax="676" yMax="769">
      <contour>
        <pt x="648" y="769" on="0"/>
        <pt x="676" y="726" on="0"/>
        <pt x="676" y="693" on="1"/>
        <pt x="676" y="640" on="0"/>
        <pt x="604" y="574" on="0"/>
        <pt x="549" y="569" on="1"/>
        <pt x="600" y="500" on="0"/>
        <pt x="600" y="380" on="1"/>
        <pt x="600" y="266" on="0"/>
        <pt x="523" y="90" on="0"/>
        <pt x="378" y="-8" on="0"/>
        <pt x="279" y="-8" on="1"/>
        <pt x="164" y="-8" on="0"/>
        <pt x="43" y="131" on="0"/>
        <pt x="43" y="269" on="1"/>
        <pt x="43" y="382" on="0"/>
        <pt x="120" y="554" on="0"/>
        <pt x="263" y="649" on="0"/>
        <pt x="359" y="649" on="1"/>
        <pt x="415" y="649" on="0"/>
        <pt x="472" y="630" on="1"/>
        <pt x="509" y="619" on="0"/>
        <pt x="528" y="619" on="1"/>
        <pt x="558" y="619" on="0"/>
        <pt x="598" y="651" on="0"/>
        <pt x="598" y="681" on="1"/>
        <pt x="598" y="716" on="0"/>
        <pt x="576" y="741" on="1"/>
        <pt x="579" y="749" on="1"/>
        <pt x="606" y="769" on="0"/>
        <pt x="628" y="769" on="1"/>
      </contour>
      <contour>
        <pt x="249" y="568" on="0"/>
        <pt x="144" y="416" on="0"/>
        <pt x="144" y="275" on="1"/>
        <pt x="144" y="168" on="0"/>
        <pt x="212" y="71" on="0"/>
        <pt x="290" y="71" on="1"/>
        <pt x="392" y="71" on="0"/>
        <pt x="497" y="225" on="0"/>
        <pt x="497" y="367" on="1"/>
        <pt x="497" y="473" on="0"/>
        <pt x="429" y="568" on="0"/>
        <pt x="352" y="568" on="1"/>
      </contour>
    </TTGlyph>
    <TTGlyph name="Ohornacute" xMin="43" yMin="-8" xMax="676" yMax="872">
      <component glyphName="Ohorn" x="0" y="0" flags="0x1000"/>
      <component glyphName="acute.cap" x="148" y="181" flags="0x1000"/>
    </TTGlyph>
    <TTGlyph name="Ohorndotbelow" xMin="43" yMin="-175" xMax="676" yMax="769">
      <component glyphName="Ohorn" x="0" y="0" flags="0x1000"/>
      <component glyphName="dotbelowcomb" x="144" y="0" flags="0x1000"/>
    </TTGlyph>
    <TTGlyph name="Ohorngrave" xMin="43" yMin="-8" xMax="676" yMax="874">
      <component glyphName="Ohorn" x="0" y="0" flags="0x1000"/>
      <component glyphName="grave.cap" x="138" y="181" flags="0x1000"/>
    </TTGlyph>
    <TTGlyph name="Ohornhookabove" xMin="43" yMin="-8" xMax="676" yMax="903">
      <component glyphName="Ohorn" x="0" y="0" flags="0x1000"/>
      <component glyphName="hookabove" x="106" y="181" flags="0x1000"/>
    </TTGlyph>
    <TTGlyph name="Ohorntilde" xMin="43" yMin="-8" xMax="676" yMax="860">
      <component glyphName="Ohorn" x="0" y="0" flags="0x1000"/>
      <component glyphName="tilde" x="137" y="181" flags="0x1000"/>
    </TTGlyph>
    <TTGlyph name="Ohungarumlaut" xMin="43" yMin="-8" xMax="601" yMax="871">
      <component glyphName="O" x="0" y="0" flags="0x1000"/>
      <component glyphName="hungarumlaut.cap" x="138" y="181" flags="0x1000"/>
    </TTGlyph>
    <TTGlyph name="Omacron" xMin="43" yMin="-8" xMax="601" yMax="824">
      <component glyphName="O" x="0" y="0" flags="0x1000"/>
      <component glyphName="macron" x="137" y="181" flags="0x1000"/>
    </TTGlyph>
    <TTGlyph name="Omega" xMin="6" yMin="-4" xMax="668" yMax="649">
      <contour>
        <pt x="490" y="649" on="0"/>
        <pt x="602" y="584" on="0"/>
        <pt x="657" y="473" on="0"/>
        <pt x="657" y="404" on="1"/>
        <pt x="657" y="318" on="0"/>
        <pt x="573" y="146" on="0"/>
        <pt x="494" y="79" on="1"/>
        <pt x="496" y="75" on="1"/>
        <pt x="584" y="75" on="1"/>
        <pt x="663" y="83" on="1"/>
        <pt x="668" y="77" on="1"/>
        <pt x="646" y="-4" on="1"/>
        <pt x="546" y="0" on="1"/>
        <pt x="416" y="0" on="1"/>
        <pt x="379" y="-2" on="1"/>
        <pt x="375" y="2" on="1"/>
        <pt x="383" y="76" on="1"/>
        <pt x="464" y="136" on="0"/>
        <pt x="554" y="309" on="0"/>
        <pt x="554" y="396" on="1"/>
        <pt x="554" y="474" on="0"/>
        <pt x="479" y="569" on="0"/>
        <pt x="400" y="569" on="1"/>
        <pt x="336" y="569" on="0"/>
        <pt x="246" y="505" on="0"/>
        <pt x="201" y="394" on="0"/>
        <pt x="201" y="325" on="1"/>
        <pt x="201" y="254" on="0"/>
        <pt x="251" y="119" on="0"/>
        <pt x="297" y="76" on="1"/>
        <pt x="289" y="2" on="1"/>
        <pt x="283" y="-2" on="1"/>
        <pt x="246" y="0" on="1"/>
        <pt x="99" y="0" on="1"/>
        <pt x="11" y="-3" on="1"/>
        <pt x="6" y="4" on="1"/>
        <pt x="28" y="82" on="1"/>
        <pt x="111" y="75" on="1"/>
        <pt x="187" y="75" on="1"/>
        <pt x="188" y="79" on="1"/>
        <pt x="144" y="126" on="0"/>
        <pt x="99" y="257" on="0"/>
        <pt x="99" y="326" on="1"/>
        <pt x="99" y="413" on="0"/>
        <pt x="171" y="560" on="0"/>
        <pt x="311" y="649" on="0"/>
        <pt x="408" y="649" on="1"/>
      </contour>
    </TTGlyph>
    <TTGlyph name="Oogonek" xMin="43" yMin="-197" xMax="601" yMax="649">
      <contour>
        <pt x="360" y="-74" on="0"/>
        <pt x="360" y="-96" on="1"/>
        <pt x="360" y="-135" on="0"/>
        <pt x="399" y="-135" on="1"/>
        <pt x="431" y="-135" on="0"/>
        <pt x="466" y="-100" on="1"/>
        <pt x="472" y="-100" on="1"/>
        <pt x="483" y="-146" on="1"/>
        <pt x="430" y="-197" on="0"/>
        <pt x="384" y="-197" on="1"/>
        <pt x="346" y="-197" on="0"/>
        <pt x="300" y="-150" on="0"/>
        <pt x="300" y="-114" on="1"/>
        <pt x="300" y="-75" on="0"/>
        <pt x="327" y="-37" on="1"/>
        <pt x="352" y="-1" on="1"/>
        <pt x="320" y="-8" on="0"/>
        <pt x="280" y="-8" on="1"/>
        <pt x="168" y="-8" on="0"/>
        <pt x="43" y="131" on="0"/>
        <pt x="43" y="257" on="1"/>
        <pt x="43" y="441" on="0"/>
        <pt x="210" y="649" on="0"/>
        <pt x="363" y="649" on="1"/>
        <pt x="476" y="649" on="0"/>
        <pt x="601" y="514" on="0"/>
        <pt x="601" y="389" on="1"/>
        <pt x="601" y="254" on="0"/>
        <pt x="510" y="65" on="0"/>
        <pt x="423" y="22" on="1"/>
        <pt x="377" y="-48" on="1"/>
      </contour>
      <contour>
        <pt x="144" y="165" on="0"/>
        <pt x="215" y="71" on="0"/>
        <pt x="289" y="71" on="1"/>
        <pt x="497" y="71" on="0"/>
        <pt x="497" y="379" on="1"/>
        <pt x="497" y="476" on="0"/>
        <pt x="425" y="568" on="0"/>
        <pt x="351" y="568" on="1"/>
        <pt x="144" y="568" on="0"/>
        <pt x="144" y="262" on="1"/>
      </contour>
    </TTGlyph>
    <TTGlyph name="Oslash" xMin="43" yMin="-107" xMax="601" yMax="728">
      <contour>
        <pt x="601" y="533" on="0"/>
        <pt x="601" y="389" on="1"/>
        <pt x="601" y="267" on="0"/>
        <pt x="526" y="89" on="0"/>
        <pt x="382" y="-8" on="0"/>
        <pt x="280" y="-8" on="1"/>
        <pt x="224" y="-8" on="0"/>
        <pt x="179" y="10" on="1"/>
        <pt x="112" y="-107" on="1"/>
        <pt x="57" y="-85" on="1"/>
        <pt x="54" y="-76" on="1"/>
        <pt x="123" y="44" on="1"/>
        <pt x="43" y="113" on="0"/>
        <pt x="43" y="257" on="1"/>
        <pt x="43" y="441" on="0"/>
        <pt x="210" y="649" on="0"/>
        <pt x="363" y="649" on="1"/>
        <pt x="419" y="649" on="0"/>
        <pt x="461" y="633" on="1"/>
        <pt x="515" y="728" on="1"/>
        <pt x="569" y="706" on="1"/>
        <pt x="573" y="695" on="1"/>
        <pt x="519" y="600" on="1"/>
      </contour>
      <contour>
        <pt x="144" y="176" on="0"/>
        <pt x="172" y="129" on="1"/>
        <pt x="417" y="556" on="1"/>
        <pt x="388" y="568" on="0"/>
        <pt x="351" y="568" on="1"/>
        <pt x="144" y="568" on="0"/>
        <pt x="144" y="262" on="1"/>
      </contour>
      <contour>
        <pt x="497" y="71" on="0"/>
        <pt x="497" y="379" on="1"/>
        <pt x="497" y="465" on="0"/>
        <pt x="468" y="512" on="1"/>
        <pt x="222" y="84" on="1"/>
        <pt x="249" y="71" on="0"/>
        <pt x="289" y="71" on="1"/>
      </contour>
    </TTGlyph>
    <TTGlyph name="Oslashacute" xMin="43" yMin="-107" xMax="601" yMax="874">
      <component glyphName="Oslash" x="0" y="0" flags="0x1000"/>
      <component glyphName="acute.cap" x="135" y="183" flags="0x1000"/>
    </TTGlyph>
    <TTGlyph name="Otilde" xMin="43" yMin="-8" xMax="601" yMax="860">
      <component glyphName="O" x="0" y="0" flags="0x1000"/>
      <component glyphName="tilde" x="137" y="181" flags="0x1000"/>
    </TTGlyph>
    <TTGlyph name="P" xMin="57" yMin="0" xMax="515" yMax="643">
      <contour>
        <pt x="419" y="643" on="0"/>
        <pt x="515" y="557" on="0"/>
        <pt x="515" y="474" on="1"/>
        <pt x="515" y="401" on="0"/>
        <pt x="450" y="285" on="0"/>
        <pt x="329" y="219" on="0"/>
        <pt x="249" y="219" on="1"/>
        <pt x="178" y="219" on="1"/>
        <pt x="176" y="201" on="1"/>
        <pt x="156" y="0" on="1"/>
        <pt x="57" y="0" on="1"/>
        <pt x="87" y="193" on="1"/>
        <pt x="138" y="642" on="1"/>
        <pt x="335" y="643" on="1"/>
      </contour>
      <contour>
        <pt x="348" y="305" on="0"/>
        <pt x="413" y="394" on="0"/>
        <pt x="413" y="459" on="1"/>
        <pt x="413" y="511" on="0"/>
        <pt x="364" y="562" on="0"/>
        <pt x="308" y="565" on="1"/>
        <pt x="226" y="562" on="1"/>
        <pt x="189" y="298" on="1"/>
        <pt x="294" y="295" on="1"/>
      </contour>
    </TTGlyph>
    <TTGlyph name="Q" xMin="43" yMin="-195" xMax="680" yMax="649">
      <contour>
        <pt x="661" y="-164" on="0"/>
        <pt x="635" y="-192" on="1"/>
        <pt x="627" y="-195" on="1"/>
        <pt x="435" y="-143" on="0"/>
        <pt x="294" y="-8" on="1"/>
        <pt x="279" y="-8" on="1"/>
        <pt x="168" y="-8" on="0"/>
        <pt x="43" y="131" on="0"/>
        <pt x="43" y="257" on="1"/>
        <pt x="43" y="441" on="0"/>
        <pt x="210" y="649" on="0"/>
        <pt x="363" y="649" on="1"/>
        <pt x="476" y="649" on="0"/>
        <pt x="601" y="514" on="0"/>
        <pt x="601" y="389" on="1"/>
        <pt x="601" y="241" on="0"/>
        <pt x="491" y="43" on="0"/>
        <pt x="388" y="9" on="1"/>
        <pt x="516" y="-85" on="0"/>
        <pt x="678" y="-117" on="1"/>
        <pt x="680" y="-129" on="1"/>
      </contour>
      <contour>
        <pt x="144" y="165" on="0"/>
        <pt x="215" y="71" on="0"/>
        <pt x="289" y="71" on="1"/>
        <pt x="497" y="71" on="0"/>
        <pt x="497" y="379" on="1"/>
        <pt x="497" y="476" on="0"/>
        <pt x="426" y="568" on="0"/>
        <pt x="352" y="568" on="1"/>
        <pt x="144" y="568" on="0"/>
        <pt x="144" y="262" on="1"/>
      </contour>
    </TTGlyph>
    <TTGlyph name="R" xMin="57" yMin="-9" xMax="516" yMax="643">
      <contour>
        <pt x="516" y="409" on="0"/>
        <pt x="437" y="290" on="0"/>
        <pt x="367" y="257" on="1"/>
        <pt x="424" y="138" on="0"/>
        <pt x="493" y="23" on="1"/>
        <pt x="491" y="12" on="1"/>
        <pt x="442" y="-5" on="0"/>
        <pt x="395" y="-9" on="1"/>
        <pt x="385" y="-1" on="1"/>
        <pt x="321" y="134" on="0"/>
        <pt x="283" y="231" on="1"/>
        <pt x="179" y="231" on="1"/>
        <pt x="175" y="201" on="1"/>
        <pt x="156" y="0" on="1"/>
        <pt x="57" y="0" on="1"/>
        <pt x="86" y="193" on="1"/>
        <pt x="138" y="642" on="1"/>
        <pt x="338" y="643" on="1"/>
        <pt x="421" y="643" on="0"/>
        <pt x="516" y="560" on="0"/>
        <pt x="516" y="484" on="1"/>
      </contour>
      <contour>
        <pt x="298" y="308" on="1"/>
        <pt x="413" y="344" on="0"/>
        <pt x="413" y="468" on="1"/>
        <pt x="413" y="560" on="0"/>
        <pt x="308" y="565" on="1"/>
        <pt x="226" y="562" on="1"/>
        <pt x="191" y="311" on="1"/>
      </contour>
    </TTGlyph>
    <TTGlyph name="Racute" xMin="57" yMin="-9" xMax="516" yMax="887">
      <component glyphName="R" x="0" y="0" flags="0x1000"/>
      <component glyphName="acute" x="103" y="181" flags="0x1000"/>
    </TTGlyph>
    <TTGlyph name="Rcaron" xMin="57" yMin="-9" xMax="516" yMax="878">
      <component glyphName="R" x="0" y="0" flags="0x1000"/>
      <component glyphName="caron" x="95" y="181" flags="0x1000"/>
    </TTGlyph>
    <TTGlyph name="Rcommaaccent" xMin="57" yMin="-253" xMax="516" yMax="643">
      <component glyphName="R" x="0" y="0" flags="0x1000"/>
      <component glyphName="commaaccentcomb" x="82" y="4" flags="0x1000"/>
    </TTGlyph>
    <TTGlyph name="S" xMin="15" yMin="-8" xMax="457" yMax="648">
      <contour>
        <pt x="383" y="648" on="0"/>
        <pt x="457" y="617" on="1"/>
        <pt x="430" y="527" on="1"/>
        <pt x="413" y="521" on="1"/>
        <pt x="359" y="569" on="0"/>
        <pt x="292" y="569" on="1"/>
        <pt x="241" y="569" on="0"/>
        <pt x="179" y="515" on="0"/>
        <pt x="179" y="477" on="1"/>
        <pt x="179" y="444" on="0"/>
        <pt x="228" y="398" on="0"/>
        <pt x="280" y="367" on="1"/>
        <pt x="325" y="340" on="0"/>
        <pt x="382" y="296" on="0"/>
        <pt x="422" y="231" on="0"/>
        <pt x="422" y="186" on="1"/>
        <pt x="422" y="132" on="0"/>
        <pt x="363" y="44" on="0"/>
        <pt x="257" y="-8" on="0"/>
        <pt x="191" y="-8" on="1"/>
        <pt x="95" y="-8" on="0"/>
        <pt x="15" y="36" on="1"/>
        <pt x="40" y="133" on="1"/>
        <pt x="52" y="139" on="1"/>
        <pt x="83" y="105" on="0"/>
        <pt x="165" y="70" on="0"/>
        <pt x="203" y="70" on="1"/>
        <pt x="256" y="70" on="0"/>
        <pt x="322" y="126" on="0"/>
        <pt x="322" y="167" on="1"/>
        <pt x="322" y="202" on="0"/>
        <pt x="272" y="248" on="0"/>
        <pt x="220" y="280" on="1"/>
        <pt x="176" y="306" on="0"/>
        <pt x="121" y="349" on="0"/>
        <pt x="82" y="414" on="0"/>
        <pt x="82" y="458" on="1"/>
        <pt x="82" y="511" on="0"/>
        <pt x="141" y="598" on="0"/>
        <pt x="243" y="648" on="0"/>
        <pt x="307" y="648" on="1"/>
      </contour>
    </TTGlyph>
    <TTGlyph name="Sacute" xMin="15" yMin="-8" xMax="457" yMax="887">
      <component glyphName="S" x="0" y="0" flags="0x1000"/>
      <component glyphName="acute" x="64" y="181" flags="0x1000"/>
    </TTGlyph>
    <TTGlyph name="Scaron" xMin="15" yMin="-8" xMax="457" yMax="878">
      <component glyphName="S" x="0" y="0" flags="0x1000"/>
      <component glyphName="caron" x="56" y="181" flags="0x1000"/>
    </TTGlyph>
    <TTGlyph name="Scedilla" xMin="15" yMin="-196" xMax="457" yMax="648">
      <contour>
        <pt x="242" y="569" on="0"/>
        <pt x="179" y="514" on="0"/>
        <pt x="179" y="477" on="1"/>
        <pt x="179" y="444" on="0"/>
        <pt x="229" y="398" on="0"/>
        <pt x="281" y="367" on="1"/>
        <pt x="326" y="340" on="0"/>
        <pt x="383" y="296" on="0"/>
        <pt x="423" y="231" on="0"/>
        <pt x="423" y="186" on="1"/>
        <pt x="423" y="135" on="0"/>
        <pt x="370" y="51" on="0"/>
        <pt x="275" y="-3" on="0"/>
        <pt x="214" y="-7" on="1"/>
        <pt x="202" y="-49" on="1"/>
        <pt x="236" y="-69" on="1"/>
        <pt x="275" y="-91" on="0"/>
        <pt x="275" y="-126" on="1"/>
        <pt x="275" y="-157" on="0"/>
        <pt x="228" y="-196" on="0"/>
        <pt x="189" y="-196" on="1"/>
        <pt x="148" y="-196" on="0"/>
        <pt x="113" y="-165" on="1"/>
        <pt x="122" y="-120" on="1"/>
        <pt x="127" y="-118" on="1"/>
        <pt x="155" y="-148" on="0"/>
        <pt x="184" y="-148" on="1"/>
        <pt x="214" y="-148" on="0"/>
        <pt x="214" y="-124" on="1"/>
        <pt x="214" y="-110" on="0"/>
        <pt x="194" y="-101" on="1"/>
        <pt x="145" y="-72" on="1"/>
        <pt x="162" y="-7" on="1"/>
        <pt x="82" y="0" on="0"/>
        <pt x="15" y="36" on="1"/>
        <pt x="40" y="133" on="1"/>
        <pt x="52" y="139" on="1"/>
        <pt x="83" y="105" on="0"/>
        <pt x="165" y="70" on="0"/>
        <pt x="203" y="70" on="1"/>
        <pt x="256" y="70" on="0"/>
        <pt x="322" y="126" on="0"/>
        <pt x="322" y="167" on="1"/>
        <pt x="322" y="202" on="0"/>
        <pt x="272" y="248" on="0"/>
        <pt x="220" y="280" on="1"/>
        <pt x="176" y="306" on="0"/>
        <pt x="121" y="349" on="0"/>
        <pt x="82" y="414" on="0"/>
        <pt x="82" y="458" on="1"/>
        <pt x="82" y="511" on="0"/>
        <pt x="141" y="598" on="0"/>
        <pt x="243" y="648" on="0"/>
        <pt x="307" y="648" on="1"/>
        <pt x="384" y="648" on="0"/>
        <pt x="457" y="617" on="1"/>
        <pt x="430" y="527" on="1"/>
        <pt x="414" y="521" on="1"/>
        <pt x="358" y="569" on="0"/>
        <pt x="292" y="569" on="1"/>
      </contour>
    </TTGlyph>
    <TTGlyph name="Scircumflex" xMin="15" yMin="-8" xMax="457" yMax="880">
      <component glyphName="S" x="0" y="0" flags="0x1000"/>
      <component glyphName="circumflex" x="68" y="181" flags="0x1000"/>
    </TTGlyph>
    <TTGlyph name="Scommaaccent" xMin="15" yMin="-253" xMax="457" yMax="648">
      <component glyphName="S" x="0" y="0" flags="0x1000"/>
      <component glyphName="commaaccentcomb" x="42" y="4" flags="0x1000"/>
    </TTGlyph>
    <TTGlyph name="T" xMin="61" yMin="0" xMax="508" yMax="642">
      <contour>
        <pt x="491" y="558" on="1"/>
        <pt x="382" y="564" on="1"/>
        <pt x="330" y="564" on="1"/>
        <pt x="280" y="201" on="1"/>
        <pt x="260" y="0" on="1"/>
        <pt x="161" y="0" on="1"/>
        <pt x="192" y="193" on="1"/>
        <pt x="232" y="564" on="1"/>
        <pt x="180" y="564" on="1"/>
        <pt x="67" y="558" on="1"/>
        <pt x="61" y="567" on="1"/>
        <pt x="79" y="642" on="1"/>
        <pt x="503" y="642" on="1"/>
        <pt x="508" y="633" on="1"/>
      </contour>
    </TTGlyph>
    <TTGlyph name="Tbar" xMin="61" yMin="0" xMax="507" yMax="642">
      <contour>
        <pt x="299" y="344" on="1"/>
        <pt x="392" y="344" on="1"/>
        <pt x="400" y="337" on="1"/>
        <pt x="396" y="286" on="1"/>
        <pt x="291" y="286" on="1"/>
        <pt x="279" y="201" on="1"/>
        <pt x="260" y="0" on="1"/>
        <pt x="161" y="0" on="1"/>
        <pt x="191" y="193" on="1"/>
        <pt x="201" y="286" on="1"/>
        <pt x="114" y="286" on="1"/>
        <pt x="107" y="292" on="1"/>
        <pt x="111" y="344" on="1"/>
        <pt x="208" y="344" on="1"/>
        <pt x="232" y="564" on="1"/>
        <pt x="180" y="564" on="1"/>
        <pt x="67" y="558" on="1"/>
        <pt x="61" y="567" on="1"/>
        <pt x="78" y="642" on="1"/>
        <pt x="503" y="642" on="1"/>
        <pt x="507" y="633" on="1"/>
        <pt x="491" y="558" on="1"/>
        <pt x="382" y="564" on="1"/>
        <pt x="329" y="564" on="1"/>
      </contour>
    </TTGlyph>
    <TTGlyph name="Tcaron" xMin="61" yMin="0" xMax="508" yMax="878">
      <component glyphName="T" x="0" y="0" flags="0x1000"/>
      <component glyphName="caron" x="61" y="181" flags="0x1000"/>
    </TTGlyph>
    <TTGlyph name="Tcedilla" xMin="61" yMin="-189" xMax="507" yMax="642">
      <contour>
        <pt x="491" y="558" on="1"/>
        <pt x="382" y="564" on="1"/>
        <pt x="329" y="564" on="1"/>
        <pt x="279" y="201" on="1"/>
        <pt x="260" y="0" on="1"/>
        <pt x="232" y="0" on="1"/>
        <pt x="220" y="-49" on="1"/>
        <pt x="250" y="-68" on="1"/>
        <pt x="287" y="-91" on="0"/>
        <pt x="287" y="-123" on="1"/>
        <pt x="287" y="-152" on="0"/>
        <pt x="243" y="-189" on="0"/>
        <pt x="209" y="-189" on="1"/>
        <pt x="173" y="-189" on="0"/>
        <pt x="139" y="-159" on="1"/>
        <pt x="147" y="-118" on="1"/>
        <pt x="153" y="-116" on="1"/>
        <pt x="176" y="-146" on="0"/>
        <pt x="204" y="-146" on="1"/>
        <pt x="230" y="-146" on="0"/>
        <pt x="230" y="-121" on="1"/>
        <pt x="230" y="-108" on="0"/>
        <pt x="214" y="-97" on="1"/>
        <pt x="169" y="-69" on="1"/>
        <pt x="186" y="0" on="1"/>
        <pt x="161" y="0" on="1"/>
        <pt x="191" y="193" on="1"/>
        <pt x="232" y="564" on="1"/>
        <pt x="180" y="564" on="1"/>
        <pt x="67" y="558" on="1"/>
        <pt x="61" y="567" on="1"/>
        <pt x="78" y="642" on="1"/>
        <pt x="503" y="642" on="1"/>
        <pt x="507" y="633" on="1"/>
      </contour>
    </TTGlyph>
    <TTGlyph name="Thorn" xMin="58" yMin="0" xMax="506" yMax="642">
      <contour>
        <pt x="411" y="535" on="0"/>
        <pt x="506" y="450" on="0"/>
        <pt x="506" y="366" on="1"/>
        <pt x="506" y="293" on="0"/>
        <pt x="441" y="178" on="0"/>
        <pt x="321" y="112" on="0"/>
        <pt x="241" y="112" on="1"/>
        <pt x="167" y="112" on="1"/>
        <pt x="156" y="0" on="1"/>
        <pt x="58" y="0" on="1"/>
        <pt x="86" y="193" on="1"/>
        <pt x="139" y="642" on="1"/>
        <pt x="237" y="642" on="1"/>
        <pt x="222" y="534" on="1"/>
        <pt x="326" y="535" on="1"/>
      </contour>
      <contour>
        <pt x="339" y="198" on="0"/>
        <pt x="404" y="287" on="0"/>
        <pt x="404" y="352" on="1"/>
        <pt x="404" y="403" on="0"/>
        <pt x="355" y="454" on="0"/>
        <pt x="299" y="457" on="1"/>
        <pt x="211" y="454" on="1"/>
        <pt x="176" y="201" on="1"/>
        <pt x="175" y="191" on="1"/>
        <pt x="285" y="188" on="1"/>
      </contour>
    </TTGlyph>
    <TTGlyph name="U" xMin="65" yMin="-8" xMax="590" yMax="642">
      <contour>
        <pt x="538" y="241" on="1"/>
        <pt x="524" y="121" on="0"/>
        <pt x="391" y="-8" on="0"/>
        <pt x="276" y="-8" on="1"/>
        <pt x="177" y="-8" on="0"/>
        <pt x="65" y="90" on="0"/>
        <pt x="65" y="180" on="1"/>
        <pt x="65" y="205" on="0"/>
        <pt x="68" y="233" on="1"/>
        <pt x="81" y="321" on="1"/>
        <pt x="118" y="642" on="1"/>
        <pt x="215" y="642" on="1"/>
        <pt x="162" y="246" on="1"/>
        <pt x="159" y="222" on="0"/>
        <pt x="159" y="203" on="1"/>
        <pt x="159" y="77" on="0"/>
        <pt x="283" y="77" on="1"/>
        <pt x="429" y="77" on="0"/>
        <pt x="447" y="236" on="1"/>
        <pt x="492" y="642" on="1"/>
        <pt x="590" y="642" on="1"/>
        <pt x="547" y="315" on="1"/>
      </contour>
    </TTGlyph>
    <TTGlyph name="Uacute" xMin="65" yMin="-8" xMax="590" yMax="872">
      <component glyphName="U" x="0" y="0" flags="0x1000"/>
      <component glyphName="acute.cap" x="142" y="181" flags="0x1000"/>
    </TTGlyph>
    <TTGlyph name="Ubreve" xMin="65" yMin="-8" xMax="590" yMax="862">
      <component glyphName="U" x="0" y="0" flags="0x1000"/>
      <component glyphName="breve" x="127" y="181" flags="0x1000"/>
    </TTGlyph>
    <TTGlyph name="Ucaron" xMin="65" yMin="-8" xMax="590" yMax="878">
      <component glyphName="U" x="0" y="0" flags="0x1000"/>
      <component glyphName="caron" x="126" y="181" flags="0x1000"/>
    </TTGlyph>
    <TTGlyph name="Ucircumflex" xMin="65" yMin="-8" xMax="590" yMax="866">
      <component glyphName="U" x="0" y="0" flags="0x1000"/>
      <component glyphName="circumflex.cap" x="135" y="181" flags="0x1000"/>
    </TTGlyph>
    <TTGlyph name="Udieresis" xMin="65" yMin="-8" xMax="590" yMax="843">
      <component glyphName="U" x="0" y="0" flags="0x1000"/>
      <component glyphName="dieresis" x="132" y="181" flags="0x1000"/>
    </TTGlyph>
    <TTGlyph name="Udieresisacute" xMin="65" yMin="-8" xMax="590" yMax="991">
      <component glyphName="U" x="0" y="0" flags="0x1000"/>
      <component glyphName="dieresisacute" x="133" y="181" flags="0x1000"/>
    </TTGlyph>
    <TTGlyph name="Udieresiscaron" xMin="65" yMin="-8" xMax="590" yMax="976">
      <component glyphName="U" x="0" y="0" flags="0x1000"/>
      <component glyphName="dieresiscaron" x="133" y="181" flags="0x1000"/>
    </TTGlyph>
    <TTGlyph name="Udieresisgrave" xMin="65" yMin="-8" xMax="590" yMax="991">
      <component glyphName="U" x="0" y="0" flags="0x1000"/>
      <component glyphName="dieresisgrave" x="128" y="181" flags="0x1000"/>
    </TTGlyph>
    <TTGlyph name="Udieresismacron" xMin="65" yMin="-8" xMax="590" yMax="947">
      <component glyphName="U" x="0" y="0" flags="0x1000"/>
      <component glyphName="dieresismacron" x="133" y="181" flags="0x1000"/>
    </TTGlyph>
    <TTGlyph name="Udotbelow" xMin="65" yMin="-175" xMax="590" yMax="642">
      <component glyphName="U" x="0" y="0" flags="0x1000"/>
      <component glyphName="dotbelowcomb" x="126" y="0" flags="0x1000"/>
    </TTGlyph>
    <TTGlyph name="Ugrave" xMin="65" yMin="-8" xMax="590" yMax="874">
      <component glyphName="U" x="0" y="0" flags="0x1000"/>
      <component glyphName="grave.cap" x="133" y="181" flags="0x1000"/>
    </TTGlyph>
    <TTGlyph name="Uhookabove" xMin="65" yMin="-8" xMax="590" yMax="903">
      <component glyphName="U" x="0" y="0" flags="0x1000"/>
      <component glyphName="hookabove" x="100" y="181" flags="0x1000"/>
    </TTGlyph>
    <TTGlyph name="Uhorn" xMin="65" yMin="-8" xMax="665" yMax="780">
      <contour>
        <pt x="665" y="666" on="0"/>
        <pt x="622" y="613" on="0"/>
        <pt x="585" y="600" on="1"/>
        <pt x="547" y="315" on="1"/>
        <pt x="538" y="241" on="1"/>
        <pt x="525" y="121" on="0"/>
        <pt x="391" y="-8" on="0"/>
        <pt x="276" y="-8" on="1"/>
        <pt x="177" y="-8" on="0"/>
        <pt x="65" y="90" on="0"/>
        <pt x="65" y="180" on="1"/>
        <pt x="65" y="208" on="0"/>
        <pt x="69" y="233" on="1"/>
        <pt x="81" y="321" on="1"/>
        <pt x="119" y="642" on="1"/>
        <pt x="216" y="642" on="1"/>
        <pt x="162" y="246" on="1"/>
        <pt x="159" y="222" on="0"/>
        <pt x="159" y="203" on="1"/>
        <pt x="159" y="77" on="0"/>
        <pt x="283" y="77" on="1"/>
        <pt x="429" y="77" on="0"/>
        <pt x="447" y="236" on="1"/>
        <pt x="493" y="642" on="1"/>
        <pt x="528" y="642" on="1"/>
        <pt x="589" y="642" on="0"/>
        <pt x="589" y="692" on="1"/>
        <pt x="589" y="723" on="0"/>
        <pt x="560" y="752" on="1"/>
        <pt x="563" y="761" on="1"/>
        <pt x="589" y="780" on="0"/>
        <pt x="609" y="780" on="1"/>
        <pt x="630" y="780" on="0"/>
        <pt x="665" y="733" on="0"/>
        <pt x="665" y="700" on="1"/>
      </contour>
    </TTGlyph>
    <TTGlyph name="Uhornacute" xMin="65" yMin="-8" xMax="665" yMax="873">
      <component glyphName="Uhorn" x="0" y="0" flags="0x1000"/>
      <component glyphName="acute.cap" x="131" y="182" flags="0x1000"/>
    </TTGlyph>
    <TTGlyph name="Uhorndotbelow" xMin="65" yMin="-175" xMax="665" yMax="780">
      <component glyphName="Uhorn" x="0" y="0" flags="0x1000"/>
      <component glyphName="dotbelowcomb" x="122" y="0" flags="0x1000"/>
    </TTGlyph>
    <TTGlyph name="Uhorngrave" xMin="65" yMin="-8" xMax="665" yMax="875">
      <component glyphName="Uhorn" x="0" y="0" flags="0x1000"/>
      <component glyphName="grave.cap" x="122" y="182" flags="0x1000"/>
    </TTGlyph>
    <TTGlyph name="Uhornhookabove" xMin="65" yMin="-8" xMax="665" yMax="904">
      <component glyphName="Uhorn" x="0" y="0" flags="0x1000"/>
      <component glyphName="hookabove" x="90" y="182" flags="0x1000"/>
    </TTGlyph>
    <TTGlyph name="Uhorntilde" xMin="65" yMin="-8" xMax="665" yMax="861">
      <component glyphName="Uhorn" x="0" y="0" flags="0x1000"/>
      <component glyphName="tilde" x="121" y="182" flags="0x1000"/>
    </TTGlyph>
    <TTGlyph name="Uhungarumlaut" xMin="65" yMin="-8" xMax="590" yMax="871">
      <component glyphName="U" x="0" y="0" flags="0x1000"/>
      <component glyphName="hungarumlaut.cap" x="133" y="181" flags="0x1000"/>
    </TTGlyph>
    <TTGlyph name="Umacron" xMin="65" yMin="-8" xMax="590" yMax="824">
      <component glyphName="U" x="0" y="0" flags="0x1000"/>
      <component glyphName="macron" x="132" y="181" flags="0x1000"/>
    </TTGlyph>
    <TTGlyph name="Uogonek" xMin="65" yMin="-197" xMax="591" yMax="642">
      <contour>
        <pt x="547" y="315" on="1"/>
        <pt x="538" y="241" on="1"/>
        <pt x="521" y="89" on="0"/>
        <pt x="422" y="29" on="1"/>
        <pt x="374" y="-54" on="1"/>
        <pt x="357" y="-80" on="0"/>
        <pt x="357" y="-103" on="1"/>
        <pt x="357" y="-136" on="0"/>
        <pt x="391" y="-136" on="1"/>
        <pt x="428" y="-136" on="0"/>
        <pt x="457" y="-101" on="1"/>
        <pt x="463" y="-101" on="1"/>
        <pt x="475" y="-145" on="1"/>
        <pt x="426" y="-197" on="0"/>
        <pt x="378" y="-197" on="1"/>
        <pt x="342" y="-197" on="0"/>
        <pt x="299" y="-151" on="0"/>
        <pt x="299" y="-114" on="1"/>
        <pt x="299" y="-79" on="0"/>
        <pt x="322" y="-45" on="1"/>
        <pt x="351" y="0" on="1"/>
        <pt x="314" y="-8" on="0"/>
        <pt x="276" y="-8" on="1"/>
        <pt x="177" y="-8" on="0"/>
        <pt x="65" y="90" on="0"/>
        <pt x="65" y="180" on="1"/>
        <pt x="65" y="208" on="0"/>
        <pt x="69" y="233" on="1"/>
        <pt x="81" y="321" on="1"/>
        <pt x="119" y="642" on="1"/>
        <pt x="216" y="642" on="1"/>
        <pt x="162" y="246" on="1"/>
        <pt x="159" y="222" on="0"/>
        <pt x="159" y="203" on="1"/>
        <pt x="159" y="77" on="0"/>
        <pt x="283" y="77" on="1"/>
        <pt x="429" y="77" on="0"/>
        <pt x="447" y="236" on="1"/>
        <pt x="493" y="642" on="1"/>
        <pt x="591" y="642" on="1"/>
      </contour>
    </TTGlyph>
    <TTGlyph name="Uring" xMin="65" yMin="-8" xMax="590" yMax="887">
      <component glyphName="U" x="0" y="0" flags="0x1000"/>
      <component glyphName="ring" x="132" y="181" flags="0x1000"/>
    </TTGlyph>
    <TTGlyph name="Utilde" xMin="65" yMin="-8" xMax="590" yMax="860">
      <component glyphName="U" x="0" y="0" flags="0x1000"/>
      <component glyphName="tilde" x="132" y="181" flags="0x1000"/>
    </TTGlyph>
    <TTGlyph name="V" xMin="63" yMin="0" xMax="594" yMax="642">
      <contour>
        <pt x="182" y="0" on="1"/>
        <pt x="63" y="642" on="1"/>
        <pt x="163" y="642" on="1"/>
        <pt x="169" y="570" on="1"/>
        <pt x="251" y="96" on="1"/>
        <pt x="257" y="96" on="1"/>
        <pt x="472" y="565" on="1"/>
        <pt x="498" y="642" on="1"/>
        <pt x="594" y="642" on="1"/>
        <pt x="298" y="0" on="1"/>
      </contour>
    </TTGlyph>
    <TTGlyph name="V.ss01" xMin="-124" yMin="0" xMax="614" yMax="501">
      <contour>
        <pt x="280" y="39" on="1"/>
        <pt x="558" y="39" on="1"/>
        <pt x="552" y="0" on="1"/>
        <pt x="-124" y="0" on="1"/>
        <pt x="-119" y="39" on="1"/>
        <pt x="154" y="39" on="1"/>
        <pt x="70" y="461" on="1"/>
        <pt x="-67" y="461" on="1"/>
        <pt x="-62" y="501" on="1"/>
        <pt x="614" y="501" on="1"/>
        <pt x="609" y="461" on="1"/>
        <pt x="483" y="461" on="1"/>
      </contour>
      <contour>
        <pt x="156" y="461" on="1"/>
        <pt x="159" y="434" on="1"/>
        <pt x="221" y="91" on="1"/>
        <pt x="227" y="91" on="1"/>
        <pt x="390" y="429" on="1"/>
        <pt x="400" y="461" on="1"/>
      </contour>
    </TTGlyph>
    <TTGlyph name="W" xMin="71" yMin="0" xMax="904" yMax="642">
      <contour>
        <pt x="509" y="0" on="1"/>
        <pt x="444" y="351" on="1"/>
        <pt x="436" y="351" on="1"/>
        <pt x="280" y="0" on="1"/>
        <pt x="176" y="0" on="1"/>
        <pt x="71" y="642" on="1"/>
        <pt x="167" y="642" on="1"/>
        <pt x="169" y="575" on="1"/>
        <pt x="245" y="105" on="1"/>
        <pt x="252" y="105" on="1"/>
        <pt x="419" y="482" on="1"/>
        <pt x="390" y="642" on="1"/>
        <pt x="491" y="642" on="1"/>
        <pt x="496" y="565" on="1"/>
        <pt x="574" y="105" on="1"/>
        <pt x="581" y="105" on="1"/>
        <pt x="788" y="569" on="1"/>
        <pt x="812" y="642" on="1"/>
        <pt x="904" y="642" on="1"/>
        <pt x="611" y="0" on="1"/>
      </contour>
    </TTGlyph>
    <TTGlyph name="Wacute" xMin="71" yMin="0" xMax="904" yMax="872">
      <component glyphName="W" x="0" y="0" flags="0x1000"/>
      <component glyphName="acute.cap" x="247" y="181" flags="0x1000"/>
    </TTGlyph>
    <TTGlyph name="Wcircumflex" xMin="71" yMin="0" xMax="904" yMax="866">
      <component glyphName="W" x="0" y="0" flags="0x1000"/>
      <component glyphName="circumflex.cap" x="239" y="181" flags="0x1000"/>
    </TTGlyph>
    <TTGlyph name="Wdieresis" xMin="71" yMin="0" xMax="904" yMax="843">
      <component glyphName="W" x="0" y="0" flags="0x1000"/>
      <component glyphName="dieresis" x="236" y="181" flags="0x1000"/>
    </TTGlyph>
    <TTGlyph name="Wgrave" xMin="71" yMin="0" xMax="904" yMax="874">
      <component glyphName="W" x="0" y="0" flags="0x1000"/>
      <component glyphName="grave.cap" x="238" y="181" flags="0x1000"/>
    </TTGlyph>
    <TTGlyph name="X" xMin="-8" yMin="0" xMax="589" yMax="642">
      <contour>
        <pt x="519" y="0" on="1"/>
        <pt x="405" y="0" on="1"/>
        <pt x="386" y="56" on="1"/>
        <pt x="284" y="258" on="1"/>
        <pt x="126" y="50" on="1"/>
        <pt x="94" y="0" on="1"/>
        <pt x="-8" y="0" on="1"/>
        <pt x="235" y="327" on="1"/>
        <pt x="80" y="642" on="1"/>
        <pt x="195" y="642" on="1"/>
        <pt x="214" y="586" on="1"/>
        <pt x="309" y="397" on="1"/>
        <pt x="452" y="589" on="1"/>
        <pt x="484" y="642" on="1"/>
        <pt x="589" y="642" on="1"/>
        <pt x="360" y="329" on="1"/>
      </contour>
    </TTGlyph>
    <TTGlyph name="X.ss01" xMin="-124" yMin="0" xMax="634" yMax="501">
      <contour>
        <pt x="427" y="39" on="1"/>
        <pt x="576" y="39" on="1"/>
        <pt x="571" y="0" on="1"/>
        <pt x="-124" y="0" on="1"/>
        <pt x="-119" y="39" on="1"/>
        <pt x="33" y="39" on="1"/>
        <pt x="203" y="253" on="1"/>
        <pt x="90" y="461" on="1"/>
        <pt x="-67" y="461" on="1"/>
        <pt x="-62" y="501" on="1"/>
        <pt x="634" y="501" on="1"/>
        <pt x="629" y="461" on="1"/>
        <pt x="468" y="461" on="1"/>
        <pt x="311" y="260" on="1"/>
      </contour>
      <contour>
        <pt x="371" y="444" on="1"/>
        <pt x="381" y="461" on="1"/>
        <pt x="189" y="461" on="1"/>
        <pt x="196" y="442" on="1"/>
        <pt x="267" y="314" on="1"/>
      </contour>
      <contour>
        <pt x="131" y="57" on="1"/>
        <pt x="119" y="39" on="1"/>
        <pt x="328" y="39" on="1"/>
        <pt x="319" y="61" on="1"/>
        <pt x="245" y="198" on="1"/>
      </contour>
    </TTGlyph>
    <TTGlyph name="Y" xMin="62" yMin="0" xMax="562" yMax="642">
      <contour>
        <pt x="289" y="184" on="1"/>
        <pt x="270" y="0" on="1"/>
        <pt x="171" y="0" on="1"/>
        <pt x="201" y="184" on="1"/>
        <pt x="205" y="228" on="1"/>
        <pt x="62" y="642" on="1"/>
        <pt x="164" y="642" on="1"/>
        <pt x="171" y="603" on="1"/>
        <pt x="260" y="330" on="1"/>
        <pt x="269" y="330" on="1"/>
        <pt x="436" y="600" on="1"/>
        <pt x="457" y="642" on="1"/>
        <pt x="562" y="642" on="1"/>
        <pt x="295" y="226" on="1"/>
      </contour>
    </TTGlyph>
    <TTGlyph name="Yacute" xMin="62" yMin="0" xMax="562" yMax="872">
      <component glyphName="Y" x="0" y="0" flags="0x1000"/>
      <component glyphName="acute.cap" x="98" y="181" flags="0x1000"/>
    </TTGlyph>
    <TTGlyph name="Ycircumflex" xMin="62" yMin="0" xMax="562" yMax="866">
      <component glyphName="Y" x="0" y="0" flags="0x1000"/>
      <component glyphName="circumflex.cap" x="91" y="181" flags="0x1000"/>
    </TTGlyph>
    <TTGlyph name="Ydieresis" xMin="62" yMin="0" xMax="562" yMax="843">
      <component glyphName="Y" x="0" y="0" flags="0x1000"/>
      <component glyphName="dieresis" x="88" y="181" flags="0x1000"/>
    </TTGlyph>
    <TTGlyph name="Ydotbelow" xMin="62" yMin="-175" xMax="562" yMax="642">
      <component glyphName="Y" x="0" y="0" flags="0x1000"/>
      <component glyphName="dotbelowcomb" x="60" y="0" flags="0x1000"/>
    </TTGlyph>
    <TTGlyph name="Ygrave" xMin="62" yMin="0" xMax="562" yMax="874">
      <component glyphName="Y" x="0" y="0" flags="0x1000"/>
      <component glyphName="grave.cap" x="89" y="181" flags="0x1000"/>
    </TTGlyph>
    <TTGlyph name="Yhookabove" xMin="62" yMin="0" xMax="562" yMax="903">
      <component glyphName="Y" x="0" y="0" flags="0x1000"/>
      <component glyphName="hookabove" x="56" y="181" flags="0x1000"/>
    </TTGlyph>
    <TTGlyph name="Ytilde" xMin="62" yMin="0" xMax="562" yMax="860">
      <component glyphName="Y" x="0" y="0" flags="0x1000"/>
      <component glyphName="tilde" x="88" y="181" flags="0x1000"/>
    </TTGlyph>
    <TTGlyph name="Z" xMin="2" yMin="-3" xMax="529" yMax="643">
      <contour>
        <pt x="129" y="78" on="1"/>
        <pt x="363" y="78" on="1"/>
        <pt x="461" y="86" on="1"/>
        <pt x="465" y="80" on="1"/>
        <pt x="447" y="-2" on="1"/>
        <pt x="324" y="0" on="1"/>
        <pt x="65" y="0" on="1"/>
        <pt x="2" y="-3" on="1"/>
        <pt x="12" y="69" on="1"/>
        <pt x="404" y="563" on="1"/>
        <pt x="186" y="563" on="1"/>
        <pt x="86" y="555" on="1"/>
        <pt x="82" y="561" on="1"/>
        <pt x="101" y="643" on="1"/>
        <pt x="477" y="642" on="1"/>
        <pt x="529" y="643" on="1"/>
        <pt x="520" y="570" on="1"/>
      </contour>
    </TTGlyph>
    <TTGlyph name="Zacute" xMin="2" yMin="-3" xMax="529" yMax="872">
      <component glyphName="Z" x="0" y="0" flags="0x1000"/>
      <component glyphName="acute.cap" x="60" y="181" flags="0x1000"/>
    </TTGlyph>
    <TTGlyph name="Zcaron" xMin="2" yMin="-3" xMax="529" yMax="858">
      <component glyphName="Z" x="0" y="0" flags="0x1000"/>
      <component glyphName="caron.cap" x="46" y="181" flags="0x1000"/>
    </TTGlyph>
    <TTGlyph name="Zdotaccent" xMin="2" yMin="-3" xMax="529" yMax="855">
      <component glyphName="Z" x="0" y="0" flags="0x1000"/>
      <component glyphName="dotaccent" x="50" y="181" flags="0x1000"/>
    </TTGlyph>
    <TTGlyph name="a" xMin="-7" yMin="0" xMax="443" yMax="501">
      <contour>
        <pt x="350" y="0" on="1"/>
        <pt x="347" y="60" on="1"/>
        <pt x="336" y="118" on="1"/>
        <pt x="228" y="119" on="1"/>
        <pt x="132" y="118" on="1"/>
        <pt x="106" y="65" on="1"/>
        <pt x="83" y="0" on="1"/>
        <pt x="-7" y="0" on="1"/>
        <pt x="236" y="501" on="1"/>
        <pt x="343" y="501" on="1"/>
        <pt x="443" y="0" on="1"/>
      </contour>
      <contour>
        <pt x="279" y="413" on="1"/>
        <pt x="273" y="413" on="1"/>
        <pt x="167" y="192" on="1"/>
        <pt x="243" y="191" on="1"/>
        <pt x="322" y="192" on="1"/>
      </contour>
    </TTGlyph>
    <TTGlyph name="a.sups" xMin="58" yMin="328" xMax="324" yMax="649">
      <contour>
        <pt x="292" y="407" on="1"/>
        <pt x="287" y="335" on="1"/>
        <pt x="216" y="329" on="1"/>
        <pt x="233" y="459" on="1"/>
        <pt x="232" y="455" on="1"/>
        <pt x="224" y="455" on="1"/>
        <pt x="182" y="374" on="0"/>
        <pt x="136" y="328" on="1"/>
        <pt x="124" y="328" on="1"/>
        <pt x="87" y="341" on="0"/>
        <pt x="58" y="390" on="0"/>
        <pt x="58" y="431" on="1"/>
        <pt x="58" y="508" on="0"/>
        <pt x="139" y="629" on="0"/>
        <pt x="215" y="645" on="1"/>
        <pt x="219" y="645" on="1"/>
        <pt x="272" y="638" on="1"/>
        <pt x="317" y="649" on="1"/>
        <pt x="324" y="644" on="1"/>
      </contour>
      <contour>
        <pt x="155" y="395" on="0"/>
        <pt x="213" y="479" on="0"/>
        <pt x="244" y="547" on="1"/>
        <pt x="247" y="570" on="1"/>
        <pt x="248" y="585" on="1"/>
        <pt x="205" y="593" on="1"/>
        <pt x="168" y="592" on="0"/>
        <pt x="126" y="518" on="0"/>
        <pt x="126" y="459" on="1"/>
        <pt x="126" y="427" on="0"/>
        <pt x="138" y="395" on="0"/>
        <pt x="145" y="395" on="1"/>
      </contour>
    </TTGlyph>
    <TTGlyph name="aacute" xMin="-7" yMin="0" xMax="443" yMax="746">
      <component glyphName="a" x="0" y="0" flags="0x1000"/>
      <component glyphName="acute" x="64" y="40" flags="0x1000"/>
    </TTGlyph>
    <TTGlyph name="abreve" xMin="-7" yMin="0" xMax="443" yMax="721">
      <component glyphName="a" x="0" y="0" flags="0x1000"/>
      <component glyphName="breve" x="57" y="40" flags="0x1000"/>
    </TTGlyph>
    <TTGlyph name="abreveacute" xMin="-7" yMin="0" xMax="443" yMax="824">
      <component glyphName="a" x="0" y="0" flags="0x1000"/>
      <component glyphName="breveacute" x="63" y="40" flags="0x1000"/>
    </TTGlyph>
    <TTGlyph name="abrevedotbelow" xMin="-6" yMin="-175" xMax="444" yMax="721">
      <contour>
        <pt x="180" y="568" on="0"/>
        <pt x="168" y="686" on="1"/>
        <pt x="196" y="721" on="1"/>
        <pt x="211" y="721" on="1"/>
        <pt x="222" y="637" on="0"/>
        <pt x="296" y="637" on="1"/>
        <pt x="370" y="637" on="0"/>
        <pt x="401" y="721" on="1"/>
        <pt x="415" y="721" on="1"/>
        <pt x="436" y="686" on="1"/>
        <pt x="417" y="631" on="0"/>
        <pt x="345" y="568" on="0"/>
        <pt x="293" y="568" on="1"/>
      </contour>
      <contour>
        <pt x="351" y="0" on="1"/>
        <pt x="348" y="60" on="1"/>
        <pt x="337" y="118" on="1"/>
        <pt x="228" y="119" on="1"/>
        <pt x="133" y="118" on="1"/>
        <pt x="107" y="65" on="1"/>
        <pt x="84" y="0" on="1"/>
        <pt x="-6" y="0" on="1"/>
        <pt x="237" y="501" on="1"/>
        <pt x="344" y="501" on="1"/>
        <pt x="444" y="0" on="1"/>
      </contour>
      <contour>
        <pt x="280" y="413" on="1"/>
        <pt x="274" y="413" on="1"/>
        <pt x="168" y="192" on="1"/>
        <pt x="243" y="191" on="1"/>
        <pt x="323" y="192" on="1"/>
      </contour>
      <contour>
        <pt x="249" y="-66" on="0"/>
        <pt x="276" y="-94" on="0"/>
        <pt x="276" y="-118" on="1"/>
        <pt x="276" y="-144" on="0"/>
        <pt x="246" y="-175" on="0"/>
        <pt x="221" y="-175" on="1"/>
        <pt x="169" y="-175" on="0"/>
        <pt x="169" y="-122" on="1"/>
        <pt x="169" y="-96" on="0"/>
        <pt x="199" y="-66" on="0"/>
        <pt x="225" y="-66" on="1"/>
      </contour>
    </TTGlyph>
    <TTGlyph name="abrevegrave" xMin="-7" yMin="0" xMax="443" yMax="824">
      <component glyphName="a" x="0" y="0" flags="0x1000"/>
      <component glyphName="brevegrave" x="63" y="40" flags="0x1000"/>
    </TTGlyph>
    <TTGlyph name="abrevehookabove" xMin="-7" yMin="0" xMax="443" yMax="876">
      <component glyphName="a" x="0" y="0" flags="0x1000"/>
      <component glyphName="brevehookabove" x="63" y="40" flags="0x1000"/>
    </TTGlyph>
    <TTGlyph name="abrevetilde" xMin="-7" yMin="0" xMax="473" yMax="845">
      <component glyphName="a" x="0" y="0" flags="0x1000"/>
      <component glyphName="brevetilde" x="63" y="40" flags="0x1000"/>
    </TTGlyph>
    <TTGlyph name="acaron" xMin="-7" yMin="0" xMax="443" yMax="737">
      <component glyphName="a" x="0" y="0" flags="0x1000"/>
      <component glyphName="caron" x="56" y="40" flags="0x1000"/>
    </TTGlyph>
    <TTGlyph name="acircumflex" xMin="-7" yMin="0" xMax="443" yMax="739">
      <component glyphName="a" x="0" y="0" flags="0x1000"/>
      <component glyphName="circumflex" x="68" y="40" flags="0x1000"/>
    </TTGlyph>
    <TTGlyph name="acircumflexacute" xMin="-7" yMin="0" xMax="479" yMax="822">
      <component glyphName="a" x="0" y="0" flags="0x1000"/>
      <component glyphName="circumflexacute" x="63" y="40" flags="0x1000"/>
    </TTGlyph>
    <TTGlyph name="acircumflexdotbelow" xMin="-6" yMin="-175" xMax="444" yMax="739">
      <contour>
        <pt x="163" y="602" on="1"/>
        <pt x="216" y="649" on="0"/>
        <pt x="306" y="739" on="1"/>
        <pt x="331" y="739" on="1"/>
        <pt x="385" y="665" on="0"/>
        <pt x="442" y="602" on="1"/>
        <pt x="412" y="564" on="1"/>
        <pt x="402" y="564" on="1"/>
        <pt x="344" y="622" on="0"/>
        <pt x="311" y="664" on="1"/>
        <pt x="274" y="629" on="0"/>
        <pt x="194" y="564" on="1"/>
        <pt x="183" y="564" on="1"/>
      </contour>
      <contour>
        <pt x="351" y="0" on="1"/>
        <pt x="348" y="60" on="1"/>
        <pt x="337" y="118" on="1"/>
        <pt x="228" y="119" on="1"/>
        <pt x="133" y="118" on="1"/>
        <pt x="107" y="65" on="1"/>
        <pt x="84" y="0" on="1"/>
        <pt x="-6" y="0" on="1"/>
        <pt x="237" y="501" on="1"/>
        <pt x="344" y="501" on="1"/>
        <pt x="444" y="0" on="1"/>
      </contour>
      <contour>
        <pt x="280" y="413" on="1"/>
        <pt x="274" y="413" on="1"/>
        <pt x="168" y="192" on="1"/>
        <pt x="243" y="191" on="1"/>
        <pt x="323" y="192" on="1"/>
      </contour>
      <contour>
        <pt x="249" y="-66" on="0"/>
        <pt x="276" y="-94" on="0"/>
        <pt x="276" y="-118" on="1"/>
        <pt x="276" y="-144" on="0"/>
        <pt x="246" y="-175" on="0"/>
        <pt x="221" y="-175" on="1"/>
        <pt x="169" y="-175" on="0"/>
        <pt x="169" y="-122" on="1"/>
        <pt x="169" y="-96" on="0"/>
        <pt x="199" y="-66" on="0"/>
        <pt x="225" y="-66" on="1"/>
      </contour>
    </TTGlyph>
    <TTGlyph name="acircumflexgrave" xMin="-7" yMin="0" xMax="445" yMax="822">
      <component glyphName="a" x="0" y="0" flags="0x1000"/>
      <component glyphName="circumflexgrave" x="63" y="40" flags="0x1000"/>
    </TTGlyph>
    <TTGlyph name="acircumflexhookabove" xMin="-7" yMin="0" xMax="460" yMax="864">
      <component glyphName="a" x="0" y="0" flags="0x1000"/>
      <component glyphName="circumflexhookabove" x="63" y="40" flags="0x1000"/>
    </TTGlyph>
    <TTGlyph name="acircumflextilde" xMin="-7" yMin="0" xMax="490" yMax="845">
      <component glyphName="a" x="0" y="0" flags="0x1000"/>
      <component glyphName="circumflextilde" x="82" y="40" flags="0x1000"/>
    </TTGlyph>
    <TTGlyph name="acute" xMin="133" yMin="519" xMax="349" yMax="706">
      <contour>
        <pt x="349" y="653" on="1"/>
        <pt x="346" y="643" on="1"/>
        <pt x="248" y="572" on="0"/>
        <pt x="168" y="519" on="1"/>
        <pt x="158" y="520" on="1"/>
        <pt x="133" y="558" on="1"/>
        <pt x="242" y="649" on="0"/>
        <pt x="303" y="706" on="1"/>
        <pt x="312" y="705" on="1"/>
      </contour>
    </TTGlyph>
    <TTGlyph name="acute.cap" xMin="124" yMin="538" xMax="357" yMax="691">
      <contour>
        <pt x="357" y="631" on="1"/>
        <pt x="353" y="621" on="1"/>
        <pt x="275" y="586" on="0"/>
        <pt x="152" y="538" on="1"/>
        <pt x="141" y="542" on="1"/>
        <pt x="124" y="584" on="1"/>
        <pt x="254" y="650" on="0"/>
        <pt x="322" y="691" on="1"/>
        <pt x="332" y="688" on="1"/>
      </contour>
    </TTGlyph>
    <TTGlyph name="adieresis" xMin="-7" yMin="0" xMax="443" yMax="702">
      <component glyphName="a" x="0" y="0" flags="0x1000"/>
      <component glyphName="dieresis" x="62" y="40" flags="0x1000"/>
    </TTGlyph>
    <TTGlyph name="adotbelow" xMin="-7" yMin="-175" xMax="443" yMax="501">
      <component glyphName="a" x="0" y="0" flags="0x1000"/>
      <component glyphName="dotbelowcomb" x="72" y="0" flags="0x1000"/>
    </TTGlyph>
    <TTGlyph name="ae" xMin="-28" yMin="0" xMax="640" yMax="500">
      <contour>
        <pt x="625" y="0" on="1"/>
        <pt x="328" y="0" on="1"/>
        <pt x="333" y="59" on="1"/>
        <pt x="331" y="180" on="1"/>
        <pt x="134" y="133" on="1"/>
        <pt x="89" y="63" on="1"/>
        <pt x="59" y="0" on="1"/>
        <pt x="-28" y="0" on="1"/>
        <pt x="294" y="500" on="1"/>
        <pt x="622" y="500" on="1"/>
        <pt x="627" y="493" on="1"/>
        <pt x="610" y="424" on="1"/>
        <pt x="483" y="430" on="1"/>
        <pt x="410" y="430" on="1"/>
        <pt x="413" y="269" on="1"/>
        <pt x="582" y="309" on="1"/>
        <pt x="588" y="303" on="1"/>
        <pt x="586" y="233" on="1"/>
        <pt x="414" y="199" on="1"/>
        <pt x="416" y="72" on="1"/>
        <pt x="503" y="72" on="1"/>
        <pt x="635" y="77" on="1"/>
        <pt x="640" y="70" on="1"/>
      </contour>
      <contour>
        <pt x="326" y="415" on="1"/>
        <pt x="319" y="415" on="1"/>
        <pt x="190" y="217" on="1"/>
        <pt x="329" y="249" on="1"/>
      </contour>
    </TTGlyph>
    <TTGlyph name="aeacute" xMin="-28" yMin="0" xMax="640" yMax="746">
      <component glyphName="ae" x="0" y="0" flags="0x1000"/>
      <component glyphName="acute" x="219" y="40" flags="0x1000"/>
    </TTGlyph>
    <TTGlyph name="agrave" xMin="-7" yMin="0" xMax="443" yMax="746">
      <component glyphName="a" x="0" y="0" flags="0x1000"/>
      <component glyphName="grave" x="52" y="40" flags="0x1000"/>
    </TTGlyph>
    <TTGlyph name="ahookabove" xMin="-7" yMin="0" xMax="443" yMax="762">
      <component glyphName="a" x="0" y="0" flags="0x1000"/>
      <component glyphName="hookabove" x="30" y="40" flags="0x1000"/>
    </TTGlyph>
    <TTGlyph name="amacron" xMin="-7" yMin="0" xMax="450" yMax="683">
      <component glyphName="a" x="0" y="0" flags="0x1000"/>
      <component glyphName="macron" x="62" y="40" flags="0x1000"/>
    </TTGlyph>
    <TTGlyph name="ampersand" xMin="44" yMin="-11" xMax="809" yMax="711">
      <contour>
        <pt x="789" y="260" on="0"/>
        <pt x="741" y="224" on="0"/>
        <pt x="706" y="220" on="1"/>
        <pt x="677" y="220" on="0"/>
        <pt x="600" y="235" on="1"/>
        <pt x="592" y="162" on="0"/>
        <pt x="514" y="50" on="0"/>
        <pt x="386" y="-11" on="0"/>
        <pt x="305" y="-11" on="1"/>
        <pt x="183" y="-11" on="0"/>
        <pt x="44" y="130" on="0"/>
        <pt x="44" y="251" on="1"/>
        <pt x="44" y="328" on="0"/>
        <pt x="97" y="445" on="0"/>
        <pt x="190" y="508" on="0"/>
        <pt x="248" y="508" on="1"/>
        <pt x="303" y="508" on="0"/>
        <pt x="365" y="455" on="0"/>
        <pt x="365" y="414" on="1"/>
        <pt x="365" y="409" on="0"/>
        <pt x="363" y="393" on="1"/>
        <pt x="550" y="537" on="0"/>
        <pt x="628" y="711" on="1"/>
        <pt x="637" y="711" on="1"/>
        <pt x="666" y="682" on="0"/>
        <pt x="676" y="646" on="1"/>
        <pt x="641" y="567" on="0"/>
        <pt x="474" y="389" on="0"/>
        <pt x="251" y="235" on="0"/>
        <pt x="138" y="190" on="1"/>
        <pt x="153" y="129" on="0"/>
        <pt x="241" y="61" on="0"/>
        <pt x="313" y="61" on="1"/>
        <pt x="373" y="61" on="0"/>
        <pt x="469" y="108" on="0"/>
        <pt x="526" y="193" on="0"/>
        <pt x="529" y="249" on="1"/>
        <pt x="500" y="255" on="0"/>
        <pt x="481" y="255" on="1"/>
        <pt x="436" y="255" on="0"/>
        <pt x="405" y="198" on="1"/>
        <pt x="394" y="197" on="1"/>
        <pt x="377" y="252" on="1"/>
        <pt x="398" y="287" on="0"/>
        <pt x="447" y="322" on="0"/>
        <pt x="482" y="326" on="1"/>
        <pt x="512" y="326" on="0"/>
        <pt x="593" y="309" on="1"/>
        <pt x="684" y="292" on="0"/>
        <pt x="705" y="292" on="1"/>
        <pt x="758" y="292" on="0"/>
        <pt x="782" y="348" on="1"/>
        <pt x="793" y="349" on="1"/>
        <pt x="809" y="295" on="1"/>
      </contour>
      <contour>
        <pt x="192" y="443" on="0"/>
        <pt x="129" y="345" on="0"/>
        <pt x="129" y="264" on="1"/>
        <pt x="129" y="259" on="1"/>
        <pt x="189" y="282" on="0"/>
        <pt x="262" y="325" on="1"/>
        <pt x="304" y="357" on="0"/>
        <pt x="302" y="399" on="1"/>
        <pt x="298" y="443" on="0"/>
        <pt x="246" y="443" on="1"/>
      </contour>
    </TTGlyph>
    <TTGlyph name="aogonek" xMin="-6" yMin="-196" xMax="444" yMax="501">
      <contour>
        <pt x="439" y="-147" on="1"/>
        <pt x="395" y="-196" on="0"/>
        <pt x="350" y="-196" on="1"/>
        <pt x="319" y="-196" on="0"/>
        <pt x="279" y="-159" on="0"/>
        <pt x="279" y="-128" on="1"/>
        <pt x="279" y="-104" on="0"/>
        <pt x="309" y="-49" on="0"/>
        <pt x="350" y="0" on="1"/>
        <pt x="351" y="0" on="1"/>
        <pt x="348" y="60" on="1"/>
        <pt x="337" y="118" on="1"/>
        <pt x="228" y="119" on="1"/>
        <pt x="133" y="118" on="1"/>
        <pt x="107" y="65" on="1"/>
        <pt x="84" y="0" on="1"/>
        <pt x="-6" y="0" on="1"/>
        <pt x="237" y="501" on="1"/>
        <pt x="344" y="501" on="1"/>
        <pt x="444" y="0" on="1"/>
        <pt x="417" y="0" on="1"/>
        <pt x="373" y="-43" on="0"/>
        <pt x="343" y="-89" on="0"/>
        <pt x="343" y="-107" on="1"/>
        <pt x="343" y="-134" on="0"/>
        <pt x="368" y="-134" on="1"/>
        <pt x="397" y="-134" on="0"/>
        <pt x="431" y="-95" on="1"/>
        <pt x="436" y="-95" on="1"/>
      </contour>
      <contour>
        <pt x="280" y="413" on="1"/>
        <pt x="274" y="413" on="1"/>
        <pt x="168" y="192" on="1"/>
        <pt x="243" y="191" on="1"/>
        <pt x="323" y="192" on="1"/>
      </contour>
    </TTGlyph>
    <TTGlyph name="approxequal" xMin="51" yMin="113" xMax="472" yMax="416">
      <component glyphName="asciitilde" x="27" y="89" flags="0x1000"/>
      <component glyphName="asciitilde" x="7" y="-84" flags="0x1000"/>
    </TTGlyph>
    <TTGlyph name="aring" xMin="-7" yMin="0" xMax="443" yMax="746">
      <component glyphName="a" x="0" y="0" flags="0x1000"/>
      <component glyphName="ring" x="62" y="40" flags="0x1000"/>
    </TTGlyph>
    <TTGlyph name="aringacute" xMin="-7" yMin="0" xMax="443" yMax="865">
      <component glyphName="a" x="0" y="0" flags="0x1000"/>
      <component glyphName="newGlyph#3" x="63" y="40" flags="0x1000"/>
    </TTGlyph>
    <TTGlyph name="arrowdown" xMin="54" yMin="-5" xMax="468" yMax="467">
      <contour>
        <pt x="269" y="-5" on="1"/>
        <pt x="254" y="-5" on="1"/>
        <pt x="54" y="190" on="1"/>
        <pt x="68" y="243" on="1"/>
        <pt x="82" y="243" on="1"/>
        <pt x="230" y="100" on="1"/>
        <pt x="226" y="460" on="1"/>
        <pt x="233" y="467" on="1"/>
        <pt x="295" y="463" on="1"/>
        <pt x="291" y="99" on="1"/>
        <pt x="440" y="243" on="1"/>
        <pt x="454" y="243" on="1"/>
        <pt x="468" y="190" on="1"/>
      </contour>
    </TTGlyph>
    <TTGlyph name="arrowdownleft" xMin="96" yMin="55" xMax="460" yMax="418">
      <component glyphName="arrowdown" x="-76" y="252" scalex="0.706970214844" scale01="-0.706970214844" scale10="0.706970214844" scaley="0.706970214844" flags="0x1000"/>
    </TTGlyph>
    <TTGlyph name="arrowdownright" xMin="61" yMin="53" xMax="424" yMax="417">
      <component glyphName="arrowdown" x="227" y="-119" scalex="0.706970214844" scale01="0.706970214844" scale10="-0.706970214844" scaley="0.706970214844" flags="0x1000"/>
    </TTGlyph>
    <TTGlyph name="arrowleft" xMin="23" yMin="25" xMax="495" yMax="439">
      <component glyphName="arrowdown" x="28" y="493" scalex="0.0" scale01="-1.0" scale10="1.0" scaley="0.0" flags="0x1000"/>
    </TTGlyph>
    <TTGlyph name="arrowright" xMin="24" yMin="29" xMax="496" yMax="443">
      <component glyphName="arrowdown" x="491" y="-25" scalex="0.0" scale01="1.0" scale10="-1.0" scaley="0.0" flags="0x1000"/>
    </TTGlyph>
    <TTGlyph name="arrowup" xMin="52" yMin="0" xMax="466" yMax="472">
      <component glyphName="arrowdown" x="520" y="467" scale="-1.0" flags="0x1000"/>
    </TTGlyph>
    <TTGlyph name="arrowupleft" xMin="95" yMin="47" xMax="458" yMax="411">
      <component glyphName="arrowdown" x="292" y="583" scalex="-0.706970214844" scale01="-0.706970214844" scale10="0.706970214844" scaley="-0.706970214844" flags="0x1000"/>
    </TTGlyph>
    <TTGlyph name="arrowupright" xMin="60" yMin="51" xMax="424" yMax="414">
      <component glyphName="arrowdown" x="596" y="217" scalex="-0.706970214844" scale01="0.706970214844" scale10="-0.706970214844" scaley="-0.706970214844" flags="0x1000"/>
    </TTGlyph>
    <TTGlyph name="asciicircum" xMin="7" yMin="112" xMax="399" yMax="493">
      <contour>
        <pt x="391" y="129" on="1"/>
        <pt x="334" y="115" on="1"/>
        <pt x="246" y="422" on="1"/>
        <pt x="240" y="422" on="1"/>
        <pt x="70" y="117" on="1"/>
        <pt x="60" y="112" on="1"/>
        <pt x="7" y="133" on="1"/>
        <pt x="203" y="487" on="1"/>
        <pt x="214" y="493" on="1"/>
        <pt x="294" y="493" on="1"/>
        <pt x="399" y="138" on="1"/>
      </contour>
    </TTGlyph>
    <TTGlyph name="asciitilde" xMin="44" yMin="197" xMax="445" yMax="327">
      <contour>
        <pt x="135" y="250" on="0"/>
        <pt x="94" y="212" on="1"/>
        <pt x="94" y="212" on="0"/>
        <pt x="76" y="197" on="1"/>
        <pt x="66" y="197" on="1"/>
        <pt x="44" y="230" on="1"/>
        <pt x="45" y="240" on="1"/>
        <pt x="131" y="319" on="1"/>
        <pt x="142" y="324" on="1"/>
        <pt x="155" y="322" on="0"/>
        <pt x="237" y="299" on="1"/>
        <pt x="318" y="274" on="0"/>
        <pt x="338" y="274" on="1"/>
        <pt x="354" y="274" on="0"/>
        <pt x="398" y="313" on="1"/>
        <pt x="414" y="327" on="1"/>
        <pt x="424" y="327" on="1"/>
        <pt x="445" y="294" on="1"/>
        <pt x="444" y="284" on="1"/>
        <pt x="359" y="204" on="1"/>
        <pt x="347" y="200" on="1"/>
        <pt x="327" y="202" on="0"/>
        <pt x="248" y="226" on="1"/>
        <pt x="166" y="250" on="0"/>
        <pt x="152" y="250" on="1"/>
      </contour>
    </TTGlyph>
    <TTGlyph name="asterisk" xMin="83" yMin="397" xMax="402" yMax="737">
      <contour>
        <pt x="256" y="609" on="1"/>
        <pt x="219" y="604" on="1"/>
        <pt x="213" y="612" on="1"/>
        <pt x="211" y="726" on="1"/>
        <pt x="242" y="737" on="0"/>
        <pt x="277" y="737" on="1"/>
        <pt x="281" y="729" on="1"/>
      </contour>
      <contour>
        <pt x="194" y="560" on="1"/>
        <pt x="185" y="556" on="1"/>
        <pt x="83" y="590" on="1"/>
        <pt x="83" y="630" on="0"/>
        <pt x="92" y="657" on="1"/>
        <pt x="101" y="659" on="1"/>
        <pt x="199" y="597" on="1"/>
      </contour>
      <contour>
        <pt x="394" y="604" on="0"/>
        <pt x="402" y="575" on="1"/>
        <pt x="398" y="570" on="1"/>
        <pt x="284" y="556" on="1"/>
        <pt x="268" y="590" on="1"/>
        <pt x="272" y="599" on="1"/>
        <pt x="372" y="636" on="1"/>
      </contour>
      <contour>
        <pt x="342" y="445" on="1"/>
        <pt x="326" y="420" on="0"/>
        <pt x="295" y="397" on="1"/>
        <pt x="287" y="398" on="1"/>
        <pt x="243" y="513" on="1"/>
        <pt x="269" y="538" on="1"/>
        <pt x="279" y="537" on="1"/>
      </contour>
      <contour>
        <pt x="224" y="510" on="1"/>
        <pt x="166" y="416" on="1"/>
        <pt x="142" y="423" on="0"/>
        <pt x="104" y="446" on="1"/>
        <pt x="104" y="454" on="1"/>
        <pt x="191" y="537" on="1"/>
        <pt x="223" y="520" on="1"/>
      </contour>
    </TTGlyph>
    <TTGlyph name="at" xMin="33" yMin="-202" xMax="804" yMax="621">
      <contour>
        <pt x="804" y="160" on="0"/>
        <pt x="621" y="2" on="0"/>
        <pt x="452" y="-3" on="1"/>
        <pt x="479" y="186" on="1"/>
        <pt x="468" y="186" on="1"/>
        <pt x="399" y="68" on="0"/>
        <pt x="321" y="-8" on="1"/>
        <pt x="305" y="-8" on="1"/>
        <pt x="220" y="35" on="0"/>
        <pt x="220" y="152" on="1"/>
        <pt x="220" y="222" on="0"/>
        <pt x="274" y="355" on="0"/>
        <pt x="382" y="451" on="0"/>
        <pt x="458" y="465" on="1"/>
        <pt x="463" y="465" on="1"/>
        <pt x="530" y="442" on="1"/>
        <pt x="586" y="466" on="1"/>
        <pt x="596" y="460" on="1"/>
        <pt x="547" y="111" on="1"/>
        <pt x="545" y="67" on="1"/>
        <pt x="636" y="79" on="0"/>
        <pt x="738" y="202" on="0"/>
        <pt x="738" y="300" on="1"/>
        <pt x="738" y="377" on="0"/>
        <pt x="670" y="494" on="0"/>
        <pt x="544" y="558" on="0"/>
        <pt x="459" y="558" on="1"/>
        <pt x="353" y="558" on="0"/>
        <pt x="190" y="466" on="0"/>
        <pt x="100" y="303" on="0"/>
        <pt x="100" y="199" on="1"/>
        <pt x="100" y="92" on="0"/>
        <pt x="195" y="-63" on="0"/>
        <pt x="367" y="-145" on="0"/>
        <pt x="482" y="-145" on="1"/>
        <pt x="486" y="-155" on="1"/>
        <pt x="457" y="-202" on="1"/>
        <pt x="330" y="-201" on="0"/>
        <pt x="138" y="-107" on="0"/>
        <pt x="33" y="68" on="0"/>
        <pt x="33" y="187" on="1"/>
        <pt x="33" y="312" on="0"/>
        <pt x="140" y="510" on="0"/>
        <pt x="336" y="621" on="0"/>
        <pt x="463" y="621" on="1"/>
        <pt x="565" y="621" on="0"/>
        <pt x="720" y="543" on="0"/>
        <pt x="804" y="399" on="0"/>
        <pt x="804" y="303" on="1"/>
      </contour>
      <contour>
        <pt x="342" y="88" on="0"/>
        <pt x="397" y="149" on="0"/>
        <pt x="468" y="267" on="0"/>
        <pt x="502" y="347" on="1"/>
        <pt x="503" y="355" on="1"/>
        <pt x="504" y="370" on="1"/>
        <pt x="441" y="393" on="1"/>
        <pt x="377" y="393" on="0"/>
        <pt x="301" y="271" on="0"/>
        <pt x="301" y="179" on="1"/>
        <pt x="301" y="88" on="0"/>
        <pt x="330" y="88" on="1"/>
      </contour>
    </TTGlyph>
    <TTGlyph name="atilde" xMin="-7" yMin="0" xMax="466" yMax="719">
      <component glyphName="a" x="0" y="0" flags="0x1000"/>
      <component glyphName="tilde" x="62" y="40" flags="0x1000"/>
    </TTGlyph>
    <TTGlyph name="b" xMin="54" yMin="-3" xMax="430" yMax="501">
      <contour>
        <pt x="428" y="233" on="0"/>
        <pt x="428" y="152" on="1"/>
        <pt x="428" y="-3" on="0"/>
        <pt x="191" y="-3" on="1"/>
        <pt x="119" y="-3" on="0"/>
        <pt x="54" y="0" on="1"/>
        <pt x="76" y="150" on="1"/>
        <pt x="116" y="501" on="1"/>
        <pt x="280" y="501" on="1"/>
        <pt x="350" y="501" on="0"/>
        <pt x="430" y="444" on="0"/>
        <pt x="430" y="389" on="1"/>
        <pt x="430" y="345" on="0"/>
        <pt x="381" y="278" on="0"/>
        <pt x="337" y="259" on="1"/>
      </contour>
      <contour>
        <pt x="334" y="304" on="0"/>
        <pt x="334" y="376" on="1"/>
        <pt x="334" y="406" on="0"/>
        <pt x="294" y="432" on="0"/>
        <pt x="249" y="432" on="1"/>
        <pt x="197" y="432" on="1"/>
        <pt x="178" y="290" on="1"/>
        <pt x="260" y="287" on="1"/>
      </contour>
      <contour>
        <pt x="268" y="65" on="0"/>
        <pt x="334" y="110" on="0"/>
        <pt x="334" y="154" on="1"/>
        <pt x="334" y="208" on="0"/>
        <pt x="261" y="220" on="1"/>
        <pt x="168" y="219" on="1"/>
        <pt x="160" y="158" on="1"/>
        <pt x="151" y="68" on="1"/>
        <pt x="181" y="65" on="0"/>
        <pt x="208" y="65" on="1"/>
      </contour>
    </TTGlyph>
    <TTGlyph name="b.sups" xMin="64" yMin="328" xMax="332" yMax="811">
      <contour>
        <pt x="302" y="631" on="0"/>
        <pt x="332" y="584" on="0"/>
        <pt x="332" y="543" on="1"/>
        <pt x="332" y="465" on="0"/>
        <pt x="249" y="343" on="0"/>
        <pt x="175" y="328" on="1"/>
        <pt x="171" y="328" on="1"/>
        <pt x="135" y="334" on="1"/>
        <pt x="64" y="346" on="1"/>
        <pt x="116" y="736" on="1"/>
        <pt x="120" y="805" on="1"/>
        <pt x="194" y="811" on="1"/>
        <pt x="156" y="516" on="1"/>
        <pt x="163" y="516" on="1"/>
        <pt x="205" y="596" on="0"/>
        <pt x="254" y="644" on="1"/>
        <pt x="265" y="644" on="1"/>
      </contour>
      <contour>
        <pt x="221" y="380" on="0"/>
        <pt x="264" y="457" on="0"/>
        <pt x="264" y="514" on="1"/>
        <pt x="264" y="547" on="0"/>
        <pt x="252" y="579" on="0"/>
        <pt x="245" y="579" on="1"/>
        <pt x="235" y="579" on="0"/>
        <pt x="176" y="494" on="0"/>
        <pt x="144" y="426" on="1"/>
        <pt x="139" y="393" on="1"/>
        <pt x="185" y="380" on="1"/>
      </contour>
    </TTGlyph>
    <TTGlyph name="backslash" xMin="24" yMin="-114" xMax="304" yMax="679">
      <contour>
        <pt x="304" y="-105" on="1"/>
        <pt x="297" y="-114" on="1"/>
        <pt x="230" y="-114" on="1"/>
        <pt x="24" y="669" on="1"/>
        <pt x="32" y="679" on="1"/>
        <pt x="98" y="679" on="1"/>
      </contour>
    </TTGlyph>
    <TTGlyph name="bar" xMin="59" yMin="-261" xMax="263" yMax="799">
      <contour>
        <pt x="200" y="289" on="1"/>
        <pt x="133" y="-257" on="1"/>
        <pt x="65" y="-261" on="1"/>
        <pt x="59" y="-252" on="1"/>
        <pt x="124" y="283" on="1"/>
        <pt x="188" y="794" on="1"/>
        <pt x="257" y="799" on="1"/>
        <pt x="263" y="793" on="1"/>
      </contour>
    </TTGlyph>
    <TTGlyph name="braceleft" xMin="35" yMin="-128" xMax="323" yMax="655">
      <contour>
        <pt x="288" y="655" on="0"/>
        <pt x="320" y="648" on="1"/>
        <pt x="323" y="640" on="1"/>
        <pt x="308" y="589" on="1"/>
        <pt x="286" y="594" on="0"/>
        <pt x="272" y="594" on="1"/>
        <pt x="202" y="594" on="0"/>
        <pt x="202" y="500" on="1"/>
        <pt x="202" y="503" on="0"/>
        <pt x="205" y="443" on="1"/>
        <pt x="208" y="413" on="0"/>
        <pt x="208" y="389" on="1"/>
        <pt x="208" y="300" on="0"/>
        <pt x="127" y="266" on="1"/>
        <pt x="126" y="262" on="1"/>
        <pt x="182" y="235" on="0"/>
        <pt x="182" y="172" on="1"/>
        <pt x="182" y="147" on="0"/>
        <pt x="160" y="83" on="1"/>
        <pt x="138" y="17" on="0"/>
        <pt x="138" y="-11" on="1"/>
        <pt x="138" y="-67" on="0"/>
        <pt x="191" y="-67" on="1"/>
        <pt x="205" y="-67" on="0"/>
        <pt x="228" y="-62" on="1"/>
        <pt x="231" y="-113" on="1"/>
        <pt x="225" y="-120" on="1"/>
        <pt x="200" y="-128" on="0"/>
        <pt x="168" y="-128" on="1"/>
        <pt x="60" y="-128" on="0"/>
        <pt x="60" y="-31" on="1"/>
        <pt x="60" y="5" on="0"/>
        <pt x="83" y="82" on="1"/>
        <pt x="102" y="143" on="0"/>
        <pt x="102" y="167" on="1"/>
        <pt x="102" y="226" on="0"/>
        <pt x="35" y="239" on="1"/>
        <pt x="41" y="287" on="1"/>
        <pt x="87" y="297" on="0"/>
        <pt x="129" y="348" on="0"/>
        <pt x="129" y="396" on="1"/>
        <pt x="128" y="447" on="1"/>
        <pt x="126" y="487" on="0"/>
        <pt x="126" y="505" on="1"/>
        <pt x="126" y="655" on="0"/>
        <pt x="265" y="655" on="1"/>
      </contour>
    </TTGlyph>
    <TTGlyph name="braceright" xMin="-24" yMin="-128" xMax="264" yMax="655">
      <component glyphName="braceleft" x="299" y="527" scale="-1.0" flags="0x1000"/>
    </TTGlyph>
    <TTGlyph name="bracketleft" xMin="41" yMin="-128" xMax="328" yMax="647">
      <contour>
        <pt x="322" y="596" on="1"/>
        <pt x="206" y="583" on="1"/>
        <pt x="127" y="-65" on="1"/>
        <pt x="240" y="-77" on="1"/>
        <pt x="234" y="-123" on="1"/>
        <pt x="228" y="-128" on="1"/>
        <pt x="41" y="-118" on="1"/>
        <pt x="92" y="259" on="1"/>
        <pt x="133" y="637" on="1"/>
        <pt x="324" y="647" on="1"/>
        <pt x="328" y="641" on="1"/>
      </contour>
    </TTGlyph>
    <TTGlyph name="bracketright" xMin="-30" yMin="-129" xMax="257" yMax="646">
      <component glyphName="bracketleft" x="298" y="518" scale="-1.0" flags="0x1000"/>
    </TTGlyph>
    <TTGlyph name="breve" xMin="111" yMin="528" xMax="379" yMax="681">
      <contour>
        <pt x="360" y="591" on="0"/>
        <pt x="288" y="528" on="0"/>
        <pt x="236" y="528" on="1"/>
        <pt x="123" y="528" on="0"/>
        <pt x="111" y="646" on="1"/>
        <pt x="139" y="681" on="1"/>
        <pt x="154" y="681" on="1"/>
        <pt x="165" y="597" on="0"/>
        <pt x="239" y="597" on="1"/>
        <pt x="313" y="597" on="0"/>
        <pt x="344" y="681" on="1"/>
        <pt x="358" y="681" on="1"/>
        <pt x="379" y="646" on="1"/>
      </contour>
    </TTGlyph>
    <TTGlyph name="breve.cap" xMin="111" yMin="542" xMax="380" yMax="670">
      <contour>
        <pt x="336" y="542" on="0"/>
        <pt x="242" y="542" on="1"/>
        <pt x="189" y="542" on="0"/>
        <pt x="121" y="591" on="0"/>
        <pt x="111" y="637" on="1"/>
        <pt x="140" y="670" on="1"/>
        <pt x="155" y="670" on="1"/>
        <pt x="171" y="611" on="0"/>
        <pt x="243" y="611" on="1"/>
        <pt x="312" y="611" on="0"/>
        <pt x="345" y="670" on="1"/>
        <pt x="359" y="670" on="1"/>
        <pt x="380" y="637" on="1"/>
      </contour>
    </TTGlyph>
    <TTGlyph name="breveacute" xMin="108" yMin="522" xMax="377" yMax="784">
      <contour>
        <pt x="341" y="745" on="1"/>
        <pt x="296" y="699" on="0"/>
        <pt x="238" y="644" on="1"/>
        <pt x="229" y="642" on="1"/>
        <pt x="197" y="669" on="1"/>
        <pt x="244" y="725" on="0"/>
        <pt x="286" y="783" on="1"/>
        <pt x="295" y="784" on="1"/>
        <pt x="339" y="754" on="1"/>
      </contour>
      <contour>
        <pt x="333" y="522" on="0"/>
        <pt x="239" y="522" on="1"/>
        <pt x="186" y="522" on="0"/>
        <pt x="118" y="571" on="0"/>
        <pt x="108" y="617" on="1"/>
        <pt x="137" y="650" on="1"/>
        <pt x="152" y="650" on="1"/>
        <pt x="168" y="591" on="0"/>
        <pt x="240" y="591" on="1"/>
        <pt x="309" y="591" on="0"/>
        <pt x="342" y="650" on="1"/>
        <pt x="356" y="650" on="1"/>
        <pt x="377" y="617" on="1"/>
      </contour>
    </TTGlyph>
    <TTGlyph name="brevegrave" xMin="109" yMin="521" xMax="378" yMax="784">
      <contour>
        <pt x="245" y="644" on="1"/>
        <pt x="177" y="710" on="0"/>
        <pt x="144" y="745" on="1"/>
        <pt x="144" y="754" on="1"/>
        <pt x="189" y="784" on="1"/>
        <pt x="198" y="783" on="1"/>
        <pt x="240" y="725" on="0"/>
        <pt x="287" y="669" on="1"/>
        <pt x="255" y="642" on="1"/>
      </contour>
      <contour>
        <pt x="335" y="521" on="0"/>
        <pt x="240" y="521" on="1"/>
        <pt x="187" y="521" on="0"/>
        <pt x="119" y="571" on="0"/>
        <pt x="109" y="617" on="1"/>
        <pt x="138" y="649" on="1"/>
        <pt x="153" y="649" on="1"/>
        <pt x="169" y="590" on="0"/>
        <pt x="241" y="590" on="1"/>
        <pt x="310" y="590" on="0"/>
        <pt x="343" y="649" on="1"/>
        <pt x="357" y="649" on="1"/>
        <pt x="378" y="617" on="1"/>
      </contour>
    </TTGlyph>
    <TTGlyph name="brevehookabove" xMin="108" yMin="523" xMax="377" yMax="836">
      <contour>
        <pt x="271" y="836" on="0"/>
        <pt x="311" y="801" on="0"/>
        <pt x="311" y="775" on="1"/>
        <pt x="311" y="756" on="0"/>
        <pt x="287" y="721" on="0"/>
        <pt x="258" y="697" on="1"/>
        <pt x="279" y="661" on="1"/>
        <pt x="240" y="639" on="1"/>
        <pt x="205" y="698" on="1"/>
        <pt x="255" y="736" on="0"/>
        <pt x="255" y="765" on="1"/>
        <pt x="255" y="786" on="0"/>
        <pt x="228" y="786" on="1"/>
        <pt x="198" y="786" on="0"/>
        <pt x="168" y="762" on="1"/>
        <pt x="150" y="791" on="1"/>
        <pt x="193" y="836" on="0"/>
        <pt x="242" y="836" on="1"/>
      </contour>
      <contour>
        <pt x="333" y="523" on="0"/>
        <pt x="239" y="523" on="1"/>
        <pt x="186" y="523" on="0"/>
        <pt x="118" y="572" on="0"/>
        <pt x="108" y="618" on="1"/>
        <pt x="137" y="651" on="1"/>
        <pt x="152" y="651" on="1"/>
        <pt x="168" y="592" on="0"/>
        <pt x="240" y="592" on="1"/>
        <pt x="309" y="592" on="0"/>
        <pt x="342" y="651" on="1"/>
        <pt x="356" y="651" on="1"/>
        <pt x="377" y="618" on="1"/>
      </contour>
    </TTGlyph>
    <TTGlyph name="brevetilde" xMin="102" yMin="522" xMax="410" yMax="805">
      <contour>
        <pt x="410" y="768" on="1"/>
        <pt x="351" y="695" on="1"/>
        <pt x="341" y="691" on="1"/>
        <pt x="322" y="693" on="0"/>
        <pt x="264" y="710" on="1"/>
        <pt x="206" y="726" on="0"/>
        <pt x="196" y="726" on="1"/>
        <pt x="187" y="726" on="0"/>
        <pt x="170" y="711" on="0"/>
        <pt x="148" y="687" on="0"/>
        <pt x="142" y="680" on="1"/>
        <pt x="133" y="680" on="1"/>
        <pt x="105" y="709" on="1"/>
        <pt x="105" y="718" on="1"/>
        <pt x="165" y="790" on="1"/>
        <pt x="175" y="793" on="1"/>
        <pt x="194" y="791" on="0"/>
        <pt x="254" y="774" on="1"/>
        <pt x="310" y="758" on="0"/>
        <pt x="320" y="758" on="1"/>
        <pt x="332" y="758" on="0"/>
        <pt x="360" y="788" on="1"/>
        <pt x="364" y="794" on="0"/>
        <pt x="375" y="805" on="1"/>
        <pt x="383" y="805" on="1"/>
        <pt x="410" y="777" on="1"/>
      </contour>
      <contour>
        <pt x="343" y="570" on="0"/>
        <pt x="274" y="522" on="0"/>
        <pt x="229" y="522" on="1"/>
        <pt x="178" y="522" on="0"/>
        <pt x="113" y="571" on="0"/>
        <pt x="102" y="615" on="1"/>
        <pt x="130" y="646" on="1"/>
        <pt x="145" y="646" on="1"/>
        <pt x="160" y="589" on="0"/>
        <pt x="230" y="589" on="1"/>
        <pt x="299" y="589" on="0"/>
        <pt x="328" y="646" on="1"/>
        <pt x="343" y="646" on="1"/>
        <pt x="363" y="615" on="1"/>
      </contour>
    </TTGlyph>
    <TTGlyph name="brokenbar" xMin="59" yMin="-261" xMax="263" yMax="799">
      <contour>
        <pt x="211" y="374" on="1"/>
        <pt x="142" y="366" on="1"/>
        <pt x="136" y="372" on="1"/>
        <pt x="187" y="794" on="1"/>
        <pt x="257" y="799" on="1"/>
        <pt x="263" y="793" on="1"/>
      </contour>
      <contour>
        <pt x="133" y="-257" on="1"/>
        <pt x="66" y="-261" on="1"/>
        <pt x="59" y="-252" on="1"/>
        <pt x="109" y="152" on="1"/>
        <pt x="176" y="160" on="1"/>
        <pt x="183" y="150" on="1"/>
      </contour>
    </TTGlyph>
    <TTGlyph name="bullet" xMin="74" yMin="204" xMax="200" yMax="332">
      <component glyphName="period" x="29" y="211" scale="1.16381835938" flags="0x1000"/>
    </TTGlyph>
    <TTGlyph name="bulletoperator" xMin="90" yMin="176" xMax="215" yMax="303">
      <contour>
        <pt x="183" y="303" on="0"/>
        <pt x="215" y="271" on="0"/>
        <pt x="215" y="242" on="1"/>
        <pt x="215" y="212" on="0"/>
        <pt x="180" y="176" on="0"/>
        <pt x="151" y="176" on="1"/>
        <pt x="122" y="176" on="0"/>
        <pt x="90" y="209" on="0"/>
        <pt x="90" y="238" on="1"/>
        <pt x="90" y="267" on="0"/>
        <pt x="125" y="303" on="0"/>
        <pt x="155" y="303" on="1"/>
      </contour>
    </TTGlyph>
    <TTGlyph name="c" xMin="40" yMin="-6" xMax="448" yMax="506">
      <contour>
        <pt x="395" y="506" on="0"/>
        <pt x="448" y="474" on="1"/>
        <pt x="422" y="391" on="1"/>
        <pt x="411" y="388" on="1"/>
        <pt x="366" y="431" on="0"/>
        <pt x="296" y="431" on="1"/>
        <pt x="219" y="431" on="0"/>
        <pt x="137" y="322" on="0"/>
        <pt x="137" y="217" on="1"/>
        <pt x="137" y="145" on="0"/>
        <pt x="197" y="70" on="0"/>
        <pt x="254" y="70" on="1"/>
        <pt x="323" y="70" on="0"/>
        <pt x="386" y="113" on="1"/>
        <pt x="395" y="108" on="1"/>
        <pt x="377" y="26" on="1"/>
        <pt x="313" y="-6" on="0"/>
        <pt x="245" y="-6" on="1"/>
        <pt x="146" y="-6" on="0"/>
        <pt x="40" y="105" on="0"/>
        <pt x="40" y="206" on="1"/>
        <pt x="40" y="348" on="0"/>
        <pt x="184" y="506" on="0"/>
        <pt x="312" y="506" on="1"/>
      </contour>
    </TTGlyph>
    <TTGlyph name="c.sups" xMin="59" yMin="328" xMax="281" yMax="647">
      <contour>
        <pt x="281" y="624" on="1"/>
        <pt x="262" y="572" on="1"/>
        <pt x="245" y="570" on="1"/>
        <pt x="224" y="592" on="0"/>
        <pt x="206" y="592" on="1"/>
        <pt x="168" y="592" on="0"/>
        <pt x="128" y="522" on="0"/>
        <pt x="128" y="456" on="1"/>
        <pt x="128" y="388" on="0"/>
        <pt x="165" y="388" on="1"/>
        <pt x="196" y="388" on="0"/>
        <pt x="225" y="441" on="1"/>
        <pt x="235" y="441" on="1"/>
        <pt x="259" y="411" on="1"/>
        <pt x="238" y="374" on="0"/>
        <pt x="191" y="337" on="0"/>
        <pt x="158" y="328" on="1"/>
        <pt x="147" y="328" on="1"/>
        <pt x="100" y="335" on="0"/>
        <pt x="59" y="387" on="0"/>
        <pt x="59" y="444" on="1"/>
        <pt x="59" y="533" on="0"/>
        <pt x="144" y="647" on="0"/>
        <pt x="229" y="647" on="1"/>
        <pt x="278" y="631" on="1"/>
      </contour>
    </TTGlyph>
    <TTGlyph name="cacute" xMin="40" yMin="-6" xMax="448" yMax="746">
      <component glyphName="c" x="0" y="0" flags="0x1000"/>
      <component glyphName="acute" x="59" y="40" flags="0x1000"/>
    </TTGlyph>
    <TTGlyph name="caron" xMin="107" yMin="522" xMax="387" yMax="697">
      <contour>
        <pt x="344" y="620" on="0"/>
        <pt x="246" y="522" on="1"/>
        <pt x="221" y="522" on="1"/>
        <pt x="173" y="590" on="0"/>
        <pt x="107" y="659" on="1"/>
        <pt x="137" y="697" on="1"/>
        <pt x="147" y="697" on="1"/>
        <pt x="203" y="642" on="0"/>
        <pt x="239" y="597" on="1"/>
        <pt x="269" y="627" on="0"/>
        <pt x="356" y="697" on="1"/>
        <pt x="367" y="697" on="1"/>
        <pt x="387" y="659" on="1"/>
      </contour>
    </TTGlyph>
    <TTGlyph name="caron.alt" xMin="190" yMin="504" xMax="291" yMax="699">
      <contour>
        <pt x="242" y="510" on="1"/>
        <pt x="196" y="504" on="1"/>
        <pt x="190" y="510" on="1"/>
        <pt x="215" y="695" on="1"/>
        <pt x="285" y="699" on="1"/>
        <pt x="291" y="692" on="1"/>
      </contour>
    </TTGlyph>
    <TTGlyph name="caron.cap" xMin="110" yMin="541" xMax="379" yMax="677">
      <contour>
        <pt x="308" y="592" on="0"/>
        <pt x="247" y="541" on="1"/>
        <pt x="223" y="541" on="1"/>
        <pt x="170" y="591" on="0"/>
        <pt x="110" y="636" on="1"/>
        <pt x="134" y="677" on="1"/>
        <pt x="144" y="677" on="1"/>
        <pt x="240" y="612" on="1"/>
        <pt x="292" y="643" on="0"/>
        <pt x="354" y="677" on="1"/>
        <pt x="364" y="677" on="1"/>
        <pt x="379" y="636" on="1"/>
      </contour>
    </TTGlyph>
    <TTGlyph name="ccaron" xMin="40" yMin="-6" xMax="448" yMax="737">
      <component glyphName="c" x="0" y="0" flags="0x1000"/>
      <component glyphName="caron" x="51" y="40" flags="0x1000"/>
    </TTGlyph>
    <TTGlyph name="ccedilla" xMin="40" yMin="-196" xMax="448" yMax="506">
      <contour>
        <pt x="395" y="506" on="0"/>
        <pt x="448" y="474" on="1"/>
        <pt x="421" y="391" on="1"/>
        <pt x="411" y="388" on="1"/>
        <pt x="366" y="431" on="0"/>
        <pt x="296" y="431" on="1"/>
        <pt x="219" y="431" on="0"/>
        <pt x="137" y="322" on="0"/>
        <pt x="137" y="217" on="1"/>
        <pt x="137" y="145" on="0"/>
        <pt x="197" y="70" on="0"/>
        <pt x="254" y="70" on="1"/>
        <pt x="323" y="70" on="0"/>
        <pt x="386" y="113" on="1"/>
        <pt x="395" y="108" on="1"/>
        <pt x="377" y="26" on="1"/>
        <pt x="325" y="-1" on="0"/>
        <pt x="272" y="-5" on="1"/>
        <pt x="260" y="-49" on="1"/>
        <pt x="294" y="-69" on="1"/>
        <pt x="333" y="-91" on="0"/>
        <pt x="333" y="-126" on="1"/>
        <pt x="333" y="-157" on="0"/>
        <pt x="286" y="-196" on="0"/>
        <pt x="247" y="-196" on="1"/>
        <pt x="206" y="-196" on="0"/>
        <pt x="171" y="-165" on="1"/>
        <pt x="180" y="-120" on="1"/>
        <pt x="185" y="-118" on="1"/>
        <pt x="213" y="-148" on="0"/>
        <pt x="242" y="-148" on="1"/>
        <pt x="272" y="-148" on="0"/>
        <pt x="272" y="-124" on="1"/>
        <pt x="272" y="-110" on="0"/>
        <pt x="252" y="-101" on="1"/>
        <pt x="203" y="-72" on="1"/>
        <pt x="220" y="-5" on="1"/>
        <pt x="133" y="2" on="0"/>
        <pt x="40" y="112" on="0"/>
        <pt x="40" y="206" on="1"/>
        <pt x="40" y="348" on="0"/>
        <pt x="184" y="506" on="0"/>
        <pt x="312" y="506" on="1"/>
      </contour>
    </TTGlyph>
    <TTGlyph name="ccircumflex" xMin="40" yMin="-6" xMax="448" yMax="739">
      <component glyphName="c" x="0" y="0" flags="0x1000"/>
      <component glyphName="circumflex" x="63" y="40" flags="0x1000"/>
    </TTGlyph>
    <TTGlyph name="cdotaccent" xMin="40" yMin="-6" xMax="448" yMax="714">
      <component glyphName="c" x="0" y="0" flags="0x1000"/>
      <component glyphName="dotaccent" x="57" y="40" flags="0x1000"/>
    </TTGlyph>
    <TTGlyph name="cedilla" xMin="67" yMin="-197" xMax="229" yMax="21">
      <contour>
        <pt x="190" y="-70" on="1"/>
        <pt x="229" y="-92" on="0"/>
        <pt x="229" y="-127" on="1"/>
        <pt x="229" y="-158" on="0"/>
        <pt x="182" y="-197" on="0"/>
        <pt x="143" y="-197" on="1"/>
        <pt x="102" y="-197" on="0"/>
        <pt x="67" y="-166" on="1"/>
        <pt x="76" y="-121" on="1"/>
        <pt x="81" y="-119" on="1"/>
        <pt x="109" y="-149" on="0"/>
        <pt x="138" y="-149" on="1"/>
        <pt x="168" y="-149" on="0"/>
        <pt x="168" y="-125" on="1"/>
        <pt x="168" y="-111" on="0"/>
        <pt x="148" y="-102" on="1"/>
        <pt x="99" y="-73" on="1"/>
        <pt x="123" y="21" on="1"/>
        <pt x="176" y="21" on="1"/>
        <pt x="156" y="-50" on="1"/>
      </contour>
    </TTGlyph>
    <TTGlyph name="cent" xMin="37" yMin="-121" xMax="368" yMax="653">
      <contour>
        <pt x="301" y="438" on="0"/>
        <pt x="272" y="443" on="1"/>
        <pt x="217" y="112" on="1"/>
        <pt x="257" y="131" on="0"/>
        <pt x="292" y="192" on="1"/>
        <pt x="304" y="191" on="1"/>
        <pt x="330" y="156" on="1"/>
        <pt x="279" y="72" on="0"/>
        <pt x="206" y="45" on="1"/>
        <pt x="179" y="-121" on="1"/>
        <pt x="131" y="-121" on="1"/>
        <pt x="125" y="-112" on="1"/>
        <pt x="148" y="37" on="1"/>
        <pt x="91" y="49" on="0"/>
        <pt x="37" y="125" on="0"/>
        <pt x="37" y="207" on="1"/>
        <pt x="37" y="319" on="0"/>
        <pt x="131" y="478" on="0"/>
        <pt x="224" y="500" on="1"/>
        <pt x="249" y="653" on="1"/>
        <pt x="297" y="653" on="1"/>
        <pt x="304" y="644" on="1"/>
        <pt x="282" y="507" on="1"/>
        <pt x="290" y="507" on="1"/>
        <pt x="362" y="486" on="1"/>
        <pt x="368" y="475" on="1"/>
        <pt x="346" y="413" on="1"/>
        <pt x="329" y="410" on="1"/>
      </contour>
      <contour>
        <pt x="113" y="121" on="0"/>
        <pt x="159" y="106" on="1"/>
        <pt x="214" y="437" on="1"/>
        <pt x="166" y="420" on="0"/>
        <pt x="113" y="307" on="0"/>
        <pt x="113" y="221" on="1"/>
      </contour>
    </TTGlyph>
    <TTGlyph name="circle1" xMin="-10" yMin="-12" xMax="466" yMax="464">
      <contour>
        <pt x="292" y="464" on="0"/>
        <pt x="402" y="400" on="0"/>
        <pt x="466" y="290" on="0"/>
        <pt x="466" y="226" on="1"/>
        <pt x="466" y="162" on="0"/>
        <pt x="402" y="52" on="0"/>
        <pt x="292" y="-12" on="0"/>
        <pt x="228" y="-12" on="1"/>
        <pt x="164" y="-12" on="0"/>
        <pt x="54" y="52" on="0"/>
        <pt x="-10" y="162" on="0"/>
        <pt x="-10" y="226" on="1"/>
        <pt x="-10" y="290" on="0"/>
        <pt x="54" y="400" on="0"/>
        <pt x="164" y="464" on="0"/>
        <pt x="228" y="464" on="1"/>
      </contour>
    </TTGlyph>
    <TTGlyph name="circle2" xMin="-12" yMin="-14" xMax="651" yMax="649">
      <contour>
        <pt x="409" y="649" on="0"/>
        <pt x="562" y="560" on="0"/>
        <pt x="651" y="407" on="0"/>
        <pt x="651" y="317" on="1"/>
        <pt x="651" y="227" on="0"/>
        <pt x="562" y="75" on="0"/>
        <pt x="409" y="-14" on="0"/>
        <pt x="319" y="-14" on="1"/>
        <pt x="229" y="-14" on="0"/>
        <pt x="77" y="75" on="0"/>
        <pt x="-12" y="227" on="0"/>
        <pt x="-12" y="317" on="1"/>
        <pt x="-12" y="407" on="0"/>
        <pt x="77" y="560" on="0"/>
        <pt x="229" y="649" on="0"/>
        <pt x="319" y="649" on="1"/>
      </contour>
    </TTGlyph>
    <TTGlyph name="circumflex" xMin="96" yMin="524" xMax="375" yMax="699">
      <contour>
        <pt x="149" y="609" on="0"/>
        <pt x="239" y="699" on="1"/>
        <pt x="264" y="699" on="1"/>
        <pt x="318" y="625" on="0"/>
        <pt x="375" y="562" on="1"/>
        <pt x="345" y="524" on="1"/>
        <pt x="335" y="524" on="1"/>
        <pt x="277" y="582" on="0"/>
        <pt x="244" y="624" on="1"/>
        <pt x="207" y="589" on="0"/>
        <pt x="127" y="524" on="1"/>
        <pt x="116" y="524" on="1"/>
        <pt x="96" y="562" on="1"/>
      </contour>
    </TTGlyph>
    <TTGlyph name="circumflex.cap" xMin="105" yMin="549" xMax="374" yMax="685">
      <contour>
        <pt x="170" y="631" on="0"/>
        <pt x="236" y="685" on="1"/>
        <pt x="260" y="685" on="1"/>
        <pt x="309" y="639" on="0"/>
        <pt x="374" y="590" on="1"/>
        <pt x="349" y="549" on="1"/>
        <pt x="339" y="549" on="1"/>
        <pt x="295" y="578" on="0"/>
        <pt x="244" y="615" on="1"/>
        <pt x="168" y="571" on="1"/>
        <pt x="130" y="549" on="1"/>
        <pt x="119" y="549" on="1"/>
        <pt x="105" y="590" on="1"/>
      </contour>
    </TTGlyph>
    <TTGlyph name="circumflexacute" xMin="98" yMin="530" xMax="416" yMax="782">
      <contour>
        <pt x="416" y="750" on="1"/>
        <pt x="330" y="643" on="1"/>
        <pt x="322" y="643" on="1"/>
        <pt x="288" y="669" on="1"/>
        <pt x="358" y="779" on="1"/>
        <pt x="366" y="782" on="1"/>
        <pt x="414" y="759" on="1"/>
      </contour>
      <contour>
        <pt x="302" y="620" on="0"/>
        <pt x="367" y="571" on="1"/>
        <pt x="342" y="530" on="1"/>
        <pt x="332" y="530" on="1"/>
        <pt x="288" y="559" on="0"/>
        <pt x="237" y="596" on="1"/>
        <pt x="161" y="552" on="1"/>
        <pt x="123" y="530" on="1"/>
        <pt x="112" y="530" on="1"/>
        <pt x="98" y="571" on="1"/>
        <pt x="163" y="612" on="0"/>
        <pt x="229" y="666" on="1"/>
        <pt x="253" y="666" on="1"/>
      </contour>
    </TTGlyph>
    <TTGlyph name="circumflexgrave" xMin="102" yMin="529" xMax="382" yMax="782">
      <contour>
        <pt x="382" y="669" on="1"/>
        <pt x="348" y="643" on="1"/>
        <pt x="340" y="643" on="1"/>
        <pt x="254" y="750" on="1"/>
        <pt x="255" y="759" on="1"/>
        <pt x="304" y="782" on="1"/>
        <pt x="312" y="779" on="1"/>
      </contour>
      <contour>
        <pt x="303" y="620" on="0"/>
        <pt x="370" y="570" on="1"/>
        <pt x="346" y="529" on="1"/>
        <pt x="336" y="529" on="1"/>
        <pt x="276" y="569" on="0"/>
        <pt x="241" y="595" on="1"/>
        <pt x="165" y="551" on="1"/>
        <pt x="127" y="529" on="1"/>
        <pt x="116" y="529" on="1"/>
        <pt x="102" y="570" on="1"/>
        <pt x="167" y="611" on="0"/>
        <pt x="233" y="665" on="1"/>
        <pt x="257" y="665" on="1"/>
      </contour>
    </TTGlyph>
    <TTGlyph name="circumflexhookabove" xMin="100" yMin="530" xMax="397" yMax="824">
      <contour>
        <pt x="360" y="824" on="0"/>
        <pt x="397" y="790" on="0"/>
        <pt x="397" y="765" on="1"/>
        <pt x="397" y="747" on="0"/>
        <pt x="374" y="714" on="0"/>
        <pt x="347" y="691" on="1"/>
        <pt x="367" y="657" on="1"/>
        <pt x="329" y="636" on="1"/>
        <pt x="296" y="692" on="1"/>
        <pt x="344" y="729" on="0"/>
        <pt x="344" y="756" on="1"/>
        <pt x="344" y="776" on="0"/>
        <pt x="318" y="776" on="1"/>
        <pt x="290" y="776" on="0"/>
        <pt x="262" y="753" on="1"/>
        <pt x="244" y="781" on="1"/>
        <pt x="285" y="824" on="0"/>
        <pt x="332" y="824" on="1"/>
      </contour>
      <contour>
        <pt x="304" y="620" on="0"/>
        <pt x="369" y="571" on="1"/>
        <pt x="344" y="530" on="1"/>
        <pt x="334" y="530" on="1"/>
        <pt x="290" y="559" on="0"/>
        <pt x="239" y="596" on="1"/>
        <pt x="163" y="552" on="1"/>
        <pt x="125" y="530" on="1"/>
        <pt x="114" y="530" on="1"/>
        <pt x="100" y="571" on="1"/>
        <pt x="165" y="612" on="0"/>
        <pt x="231" y="666" on="1"/>
        <pt x="255" y="666" on="1"/>
      </contour>
    </TTGlyph>
    <TTGlyph name="circumflextilde" xMin="92" yMin="531" xMax="408" yMax="805">
      <contour>
        <pt x="408" y="767" on="1"/>
        <pt x="349" y="694" on="1"/>
        <pt x="339" y="690" on="1"/>
        <pt x="316" y="692" on="0"/>
        <pt x="261" y="710" on="1"/>
        <pt x="205" y="726" on="0"/>
        <pt x="194" y="726" on="1"/>
        <pt x="185" y="726" on="0"/>
        <pt x="167" y="710" on="0"/>
        <pt x="146" y="686" on="0"/>
        <pt x="140" y="680" on="1"/>
        <pt x="131" y="680" on="1"/>
        <pt x="103" y="709" on="1"/>
        <pt x="103" y="717" on="1"/>
        <pt x="163" y="789" on="1"/>
        <pt x="173" y="792" on="1"/>
        <pt x="198" y="788" on="0"/>
        <pt x="252" y="773" on="1"/>
        <pt x="305" y="758" on="0"/>
        <pt x="317" y="758" on="1"/>
        <pt x="326" y="758" on="0"/>
        <pt x="346" y="775" on="0"/>
        <pt x="368" y="800" on="0"/>
        <pt x="372" y="805" on="1"/>
        <pt x="381" y="805" on="1"/>
        <pt x="408" y="776" on="1"/>
      </contour>
      <contour>
        <pt x="293" y="621" on="0"/>
        <pt x="360" y="571" on="1"/>
        <pt x="336" y="531" on="1"/>
        <pt x="326" y="531" on="1"/>
        <pt x="274" y="564" on="0"/>
        <pt x="231" y="596" on="1"/>
        <pt x="193" y="573" on="0"/>
        <pt x="117" y="531" on="1"/>
        <pt x="106" y="531" on="1"/>
        <pt x="92" y="571" on="1"/>
        <pt x="157" y="612" on="0"/>
        <pt x="223" y="666" on="1"/>
        <pt x="247" y="666" on="1"/>
      </contour>
    </TTGlyph>
    <TTGlyph name="colon" xMin="39" yMin="-5" xMax="178" yMax="371">
      <component glyphName="period" x="0" y="0" flags="0x1000"/>
      <component glyphName="period" x="32" y="267" flags="0x1000"/>
    </TTGlyph>
    <TTGlyph name="comma" xMin="13" yMin="-118" xMax="149" yMax="102">
      <contour>
        <pt x="149" y="73" on="0"/>
        <pt x="149" y="29" on="1"/>
        <pt x="149" y="-43" on="0"/>
        <pt x="46" y="-118" on="1"/>
        <pt x="13" y="-89" on="1"/>
        <pt x="13" y="-81" on="1"/>
        <pt x="68" y="-37" on="0"/>
        <pt x="68" y="10" on="1"/>
        <pt x="68" y="39" on="0"/>
        <pt x="37" y="62" on="1"/>
        <pt x="37" y="71" on="1"/>
        <pt x="71" y="92" on="0"/>
        <pt x="106" y="102" on="1"/>
      </contour>
    </TTGlyph>
    <TTGlyph name="commaaccentcomb" xMin="82" yMin="-257" xMax="206" yMax="-55">
      <contour>
        <pt x="206" y="-83" on="0"/>
        <pt x="206" y="-122" on="1"/>
        <pt x="206" y="-189" on="0"/>
        <pt x="112" y="-257" on="1"/>
        <pt x="83" y="-230" on="1"/>
        <pt x="82" y="-223" on="1"/>
        <pt x="133" y="-181" on="0"/>
        <pt x="133" y="-140" on="1"/>
        <pt x="133" y="-113" on="0"/>
        <pt x="104" y="-92" on="1"/>
        <pt x="104" y="-84" on="1"/>
        <pt x="137" y="-64" on="0"/>
        <pt x="167" y="-55" on="1"/>
      </contour>
    </TTGlyph>
    <TTGlyph name="copyright" xMin="56" yMin="-12" xMax="650" yMax="598">
      <contour>
        <pt x="442" y="598" on="0"/>
        <pt x="576" y="522" on="0"/>
        <pt x="650" y="384" on="0"/>
        <pt x="650" y="293" on="1"/>
        <pt x="650" y="202" on="0"/>
        <pt x="576" y="64" on="0"/>
        <pt x="442" y="-12" on="0"/>
        <pt x="353" y="-12" on="1"/>
        <pt x="265" y="-12" on="0"/>
        <pt x="130" y="64" on="0"/>
        <pt x="56" y="202" on="0"/>
        <pt x="56" y="293" on="1"/>
        <pt x="56" y="384" on="0"/>
        <pt x="130" y="522" on="0"/>
        <pt x="265" y="598" on="0"/>
        <pt x="353" y="598" on="1"/>
      </contour>
      <contour>
        <pt x="276" y="560" on="0"/>
        <pt x="159" y="493" on="0"/>
        <pt x="94" y="372" on="0"/>
        <pt x="94" y="293" on="1"/>
        <pt x="94" y="214" on="0"/>
        <pt x="159" y="93" on="0"/>
        <pt x="276" y="26" on="0"/>
        <pt x="353" y="26" on="1"/>
        <pt x="430" y="26" on="0"/>
        <pt x="547" y="93" on="0"/>
        <pt x="612" y="214" on="0"/>
        <pt x="612" y="293" on="1"/>
        <pt x="612" y="372" on="0"/>
        <pt x="547" y="493" on="0"/>
        <pt x="430" y="560" on="0"/>
        <pt x="353" y="560" on="1"/>
      </contour>
      <contour>
        <pt x="414" y="465" on="0"/>
        <pt x="463" y="444" on="1"/>
        <pt x="450" y="391" on="1"/>
        <pt x="444" y="388" on="1"/>
        <pt x="410" y="409" on="0"/>
        <pt x="368" y="409" on="1"/>
        <pt x="274" y="409" on="0"/>
        <pt x="274" y="300" on="1"/>
        <pt x="274" y="182" on="0"/>
        <pt x="369" y="182" on="1"/>
        <pt x="410" y="182" on="0"/>
        <pt x="450" y="202" on="1"/>
        <pt x="457" y="200" on="1"/>
        <pt x="451" y="146" on="1"/>
        <pt x="409" y="126" on="0"/>
        <pt x="365" y="126" on="1"/>
        <pt x="286" y="126" on="0"/>
        <pt x="205" y="212" on="0"/>
        <pt x="205" y="294" on="1"/>
        <pt x="205" y="376" on="0"/>
        <pt x="291" y="465" on="0"/>
        <pt x="371" y="465" on="1"/>
      </contour>
    </TTGlyph>
    <TTGlyph name="currency" xMin="22" yMin="162" xMax="442" yMax="549">
      <contour>
        <pt x="440" y="497" on="1"/>
        <pt x="365" y="434" on="1"/>
        <pt x="382" y="406" on="0"/>
        <pt x="382" y="369" on="1"/>
        <pt x="382" y="320" on="0"/>
        <pt x="347" y="279" on="1"/>
        <pt x="409" y="218" on="1"/>
        <pt x="409" y="208" on="1"/>
        <pt x="361" y="164" on="1"/>
        <pt x="351" y="165" on="1"/>
        <pt x="297" y="232" on="1"/>
        <pt x="256" y="206" on="0"/>
        <pt x="214" y="206" on="1"/>
        <pt x="171" y="206" on="0"/>
        <pt x="141" y="231" on="1"/>
        <pt x="72" y="162" on="1"/>
        <pt x="62" y="162" on="1"/>
        <pt x="22" y="204" on="1"/>
        <pt x="25" y="214" on="1"/>
        <pt x="99" y="276" on="1"/>
        <pt x="82" y="304" on="0"/>
        <pt x="82" y="342" on="1"/>
        <pt x="82" y="387" on="0"/>
        <pt x="118" y="432" on="1"/>
        <pt x="57" y="493" on="1"/>
        <pt x="57" y="503" on="1"/>
        <pt x="104" y="547" on="1"/>
        <pt x="114" y="547" on="1"/>
        <pt x="170" y="478" on="1"/>
        <pt x="207" y="503" on="0"/>
        <pt x="251" y="503" on="1"/>
        <pt x="294" y="503" on="0"/>
        <pt x="323" y="480" on="1"/>
        <pt x="393" y="548" on="1"/>
        <pt x="403" y="549" on="1"/>
        <pt x="442" y="507" on="1"/>
      </contour>
      <contour>
        <pt x="201" y="448" on="0"/>
        <pt x="138" y="388" on="0"/>
        <pt x="138" y="345" on="1"/>
        <pt x="138" y="308" on="0"/>
        <pt x="184" y="262" on="0"/>
        <pt x="221" y="262" on="1"/>
        <pt x="266" y="262" on="0"/>
        <pt x="328" y="321" on="0"/>
        <pt x="328" y="365" on="1"/>
        <pt x="328" y="401" on="0"/>
        <pt x="281" y="448" on="0"/>
        <pt x="244" y="448" on="1"/>
      </contour>
    </TTGlyph>
    <TTGlyph name="d" xMin="54" yMin="-5" xMax="519" yMax="504">
      <contour>
        <pt x="409" y="504" on="0"/>
        <pt x="519" y="400" on="0"/>
        <pt x="519" y="306" on="1"/>
        <pt x="519" y="160" on="0"/>
        <pt x="371" y="-5" on="0"/>
        <pt x="234" y="-5" on="1"/>
        <pt x="137" y="-5" on="0"/>
        <pt x="54" y="0" on="1"/>
        <pt x="76" y="150" on="1"/>
        <pt x="116" y="501" on="1"/>
        <pt x="311" y="504" on="1"/>
      </contour>
      <contour>
        <pt x="334" y="68" on="0"/>
        <pt x="423" y="179" on="0"/>
        <pt x="423" y="289" on="1"/>
        <pt x="423" y="428" on="0"/>
        <pt x="298" y="428" on="1"/>
        <pt x="259" y="428" on="0"/>
        <pt x="197" y="424" on="1"/>
        <pt x="161" y="158" on="1"/>
        <pt x="152" y="74" on="1"/>
        <pt x="216" y="68" on="0"/>
        <pt x="253" y="68" on="1"/>
      </contour>
    </TTGlyph>
    <TTGlyph name="d.sups" xMin="56" yMin="328" xMax="345" yMax="811">
      <contour>
        <pt x="292" y="407" on="1"/>
        <pt x="287" y="335" on="1"/>
        <pt x="214" y="329" on="1"/>
        <pt x="231" y="456" on="1"/>
        <pt x="225" y="456" on="1"/>
        <pt x="185" y="378" on="0"/>
        <pt x="135" y="328" on="1"/>
        <pt x="123" y="328" on="1"/>
        <pt x="86" y="340" on="0"/>
        <pt x="56" y="388" on="0"/>
        <pt x="56" y="429" on="1"/>
        <pt x="56" y="507" on="0"/>
        <pt x="140" y="629" on="0"/>
        <pt x="216" y="644" on="1"/>
        <pt x="220" y="644" on="1"/>
        <pt x="255" y="640" on="1"/>
        <pt x="268" y="736" on="1"/>
        <pt x="271" y="805" on="1"/>
        <pt x="345" y="811" on="1"/>
      </contour>
      <contour>
        <pt x="153" y="394" on="0"/>
        <pt x="210" y="475" on="0"/>
        <pt x="242" y="542" on="1"/>
        <pt x="248" y="584" on="1"/>
        <pt x="205" y="592" on="1"/>
        <pt x="166" y="592" on="0"/>
        <pt x="124" y="516" on="0"/>
        <pt x="124" y="456" on="1"/>
        <pt x="124" y="425" on="0"/>
        <pt x="136" y="394" on="0"/>
        <pt x="143" y="394" on="1"/>
      </contour>
    </TTGlyph>
    <TTGlyph name="dagger" xMin="56" yMin="-94" xMax="469" yMax="590">
      <contour>
        <pt x="291" y="339" on="1"/>
        <pt x="284" y="287" on="1"/>
        <pt x="238" y="-90" on="1"/>
        <pt x="176" y="-94" on="1"/>
        <pt x="170" y="-86" on="1"/>
        <pt x="216" y="283" on="1"/>
        <pt x="223" y="339" on="1"/>
        <pt x="61" y="339" on="1"/>
        <pt x="56" y="347" on="1"/>
        <pt x="69" y="406" on="1"/>
        <pt x="231" y="406" on="1"/>
        <pt x="253" y="585" on="1"/>
        <pt x="316" y="590" on="1"/>
        <pt x="322" y="585" on="1"/>
        <pt x="299" y="406" on="1"/>
        <pt x="463" y="406" on="1"/>
        <pt x="469" y="399" on="1"/>
        <pt x="456" y="339" on="1"/>
      </contour>
    </TTGlyph>
    <TTGlyph name="daggerdbl" xMin="23" yMin="-94" xMax="469" yMax="590">
      <contour>
        <pt x="266" y="145" on="1"/>
        <pt x="430" y="145" on="1"/>
        <pt x="436" y="138" on="1"/>
        <pt x="424" y="79" on="1"/>
        <pt x="258" y="79" on="1"/>
        <pt x="237" y="-90" on="1"/>
        <pt x="176" y="-94" on="1"/>
        <pt x="170" y="-86" on="1"/>
        <pt x="190" y="79" on="1"/>
        <pt x="30" y="79" on="1"/>
        <pt x="23" y="86" on="1"/>
        <pt x="36" y="145" on="1"/>
        <pt x="198" y="145" on="1"/>
        <pt x="215" y="283" on="1"/>
        <pt x="223" y="347" on="1"/>
        <pt x="62" y="347" on="1"/>
        <pt x="56" y="354" on="1"/>
        <pt x="69" y="413" on="1"/>
        <pt x="231" y="413" on="1"/>
        <pt x="252" y="585" on="1"/>
        <pt x="316" y="590" on="1"/>
        <pt x="321" y="585" on="1"/>
        <pt x="300" y="413" on="1"/>
        <pt x="463" y="413" on="1"/>
        <pt x="469" y="406" on="1"/>
        <pt x="457" y="347" on="1"/>
        <pt x="291" y="347" on="1"/>
        <pt x="284" y="287" on="1"/>
      </contour>
    </TTGlyph>
    <TTGlyph name="dcaron" xMin="54" yMin="-5" xMax="519" yMax="737">
      <component glyphName="d" x="0" y="0" flags="0x1000"/>
      <component glyphName="caron" x="63" y="40" flags="0x1000"/>
    </TTGlyph>
    <TTGlyph name="dcroat" xMin="54" yMin="-5" xMax="519" yMax="683">
      <component glyphName="d" x="0" y="0" flags="0x1000"/>
      <component glyphName="macron" x="69" y="40" flags="0x1000"/>
    </TTGlyph>
    <TTGlyph name="degree" xMin="54" yMin="397" xMax="311" yMax="649">
      <contour>
        <pt x="247" y="649" on="0"/>
        <pt x="311" y="584" on="0"/>
        <pt x="311" y="536" on="1"/>
        <pt x="311" y="499" on="0"/>
        <pt x="271" y="435" on="0"/>
        <pt x="205" y="397" on="0"/>
        <pt x="168" y="397" on="1"/>
        <pt x="118" y="397" on="0"/>
        <pt x="54" y="462" on="0"/>
        <pt x="54" y="510" on="1"/>
        <pt x="54" y="548" on="0"/>
        <pt x="94" y="612" on="0"/>
        <pt x="160" y="649" on="0"/>
        <pt x="198" y="649" on="1"/>
      </contour>
      <contour>
        <pt x="156" y="604" on="0"/>
        <pt x="100" y="551" on="0"/>
        <pt x="100" y="515" on="1"/>
        <pt x="100" y="485" on="0"/>
        <pt x="142" y="442" on="0"/>
        <pt x="172" y="442" on="1"/>
        <pt x="210" y="442" on="0"/>
        <pt x="265" y="494" on="0"/>
        <pt x="265" y="531" on="1"/>
        <pt x="265" y="562" on="0"/>
        <pt x="224" y="604" on="0"/>
        <pt x="193" y="604" on="1"/>
      </contour>
    </TTGlyph>
    <TTGlyph name="dieresis" xMin="109" yMin="558" xMax="373" yMax="662">
      <contour>
        <pt x="184" y="662" on="0"/>
        <pt x="209" y="635" on="0"/>
        <pt x="209" y="613" on="1"/>
        <pt x="209" y="588" on="0"/>
        <pt x="181" y="559" on="0"/>
        <pt x="158" y="559" on="1"/>
        <pt x="109" y="559" on="0"/>
        <pt x="109" y="609" on="1"/>
        <pt x="109" y="633" on="0"/>
        <pt x="137" y="662" on="0"/>
        <pt x="162" y="662" on="1"/>
      </contour>
      <contour>
        <pt x="348" y="661" on="0"/>
        <pt x="373" y="635" on="0"/>
        <pt x="373" y="612" on="1"/>
        <pt x="373" y="587" on="0"/>
        <pt x="346" y="558" on="0"/>
        <pt x="323" y="558" on="1"/>
        <pt x="274" y="558" on="0"/>
        <pt x="274" y="608" on="1"/>
        <pt x="274" y="632" on="0"/>
        <pt x="302" y="661" on="0"/>
        <pt x="326" y="661" on="1"/>
      </contour>
    </TTGlyph>
    <TTGlyph name="dieresis.i" xMin="124" yMin="558" xMax="359" yMax="661">
      <contour>
        <pt x="198" y="661" on="0"/>
        <pt x="224" y="635" on="0"/>
        <pt x="224" y="612" on="1"/>
        <pt x="224" y="587" on="0"/>
        <pt x="196" y="558" on="0"/>
        <pt x="173" y="558" on="1"/>
        <pt x="124" y="558" on="0"/>
        <pt x="124" y="608" on="1"/>
        <pt x="124" y="632" on="0"/>
        <pt x="152" y="661" on="0"/>
        <pt x="176" y="661" on="1"/>
      </contour>
      <contour>
        <pt x="333" y="661" on="0"/>
        <pt x="359" y="635" on="0"/>
        <pt x="359" y="612" on="1"/>
        <pt x="359" y="587" on="0"/>
        <pt x="331" y="558" on="0"/>
        <pt x="308" y="558" on="1"/>
        <pt x="259" y="558" on="0"/>
        <pt x="259" y="608" on="1"/>
        <pt x="259" y="632" on="0"/>
        <pt x="287" y="661" on="0"/>
        <pt x="311" y="661" on="1"/>
      </contour>
    </TTGlyph>
    <TTGlyph name="dieresisacute" xMin="108" yMin="542" xMax="367" yMax="810">
      <contour>
        <pt x="365" y="745" on="1"/>
        <pt x="360" y="735" on="1"/>
        <pt x="260" y="711" on="0"/>
        <pt x="147" y="690" on="1"/>
        <pt x="137" y="695" on="1"/>
        <pt x="128" y="740" on="1"/>
        <pt x="256" y="778" on="0"/>
        <pt x="341" y="810" on="1"/>
        <pt x="350" y="806" on="1"/>
      </contour>
      <contour>
        <pt x="204" y="639" on="0"/>
        <pt x="204" y="592" on="1"/>
        <pt x="204" y="569" on="0"/>
        <pt x="177" y="542" on="0"/>
        <pt x="154" y="542" on="1"/>
        <pt x="108" y="542" on="0"/>
        <pt x="108" y="589" on="1"/>
        <pt x="108" y="612" on="0"/>
        <pt x="135" y="639" on="0"/>
        <pt x="158" y="639" on="1"/>
      </contour>
      <contour>
        <pt x="342" y="639" on="0"/>
        <pt x="367" y="614" on="0"/>
        <pt x="367" y="592" on="1"/>
        <pt x="367" y="569" on="0"/>
        <pt x="340" y="542" on="0"/>
        <pt x="317" y="542" on="1"/>
        <pt x="271" y="542" on="0"/>
        <pt x="271" y="589" on="1"/>
        <pt x="271" y="612" on="0"/>
        <pt x="298" y="639" on="0"/>
        <pt x="321" y="639" on="1"/>
      </contour>
    </TTGlyph>
    <TTGlyph name="dieresiscaron" xMin="111" yMin="542" xMax="388" yMax="795">
      <contour>
        <pt x="316" y="709" on="0"/>
        <pt x="257" y="659" on="1"/>
        <pt x="233" y="659" on="1"/>
        <pt x="184" y="705" on="0"/>
        <pt x="119" y="754" on="1"/>
        <pt x="144" y="795" on="1"/>
        <pt x="154" y="795" on="1"/>
        <pt x="166" y="787" on="0"/>
        <pt x="172" y="782" on="1"/>
        <pt x="215" y="754" on="0"/>
        <pt x="249" y="729" on="1"/>
        <pt x="290" y="754" on="0"/>
        <pt x="363" y="795" on="1"/>
        <pt x="374" y="795" on="1"/>
        <pt x="388" y="754" on="1"/>
      </contour>
      <contour>
        <pt x="207" y="639" on="0"/>
        <pt x="207" y="592" on="1"/>
        <pt x="207" y="569" on="0"/>
        <pt x="181" y="542" on="0"/>
        <pt x="158" y="542" on="1"/>
        <pt x="136" y="542" on="0"/>
        <pt x="111" y="567" on="0"/>
        <pt x="111" y="589" on="1"/>
        <pt x="111" y="612" on="0"/>
        <pt x="138" y="639" on="0"/>
        <pt x="161" y="639" on="1"/>
      </contour>
      <contour>
        <pt x="370" y="639" on="0"/>
        <pt x="370" y="592" on="1"/>
        <pt x="370" y="569" on="0"/>
        <pt x="343" y="542" on="0"/>
        <pt x="321" y="542" on="1"/>
        <pt x="299" y="542" on="0"/>
        <pt x="274" y="567" on="0"/>
        <pt x="274" y="589" on="1"/>
        <pt x="274" y="612" on="0"/>
        <pt x="301" y="639" on="0"/>
        <pt x="324" y="639" on="1"/>
      </contour>
    </TTGlyph>
    <TTGlyph name="dieresisgrave" xMin="107" yMin="542" xMax="379" yMax="810">
      <contour>
        <pt x="252" y="779" on="0"/>
        <pt x="379" y="740" on="1"/>
        <pt x="364" y="695" on="1"/>
        <pt x="353" y="690" on="1"/>
        <pt x="237" y="713" on="0"/>
        <pt x="147" y="735" on="1"/>
        <pt x="143" y="745" on="1"/>
        <pt x="164" y="806" on="1"/>
        <pt x="175" y="810" on="1"/>
      </contour>
      <contour>
        <pt x="182" y="639" on="0"/>
        <pt x="204" y="617" on="0"/>
        <pt x="204" y="597" on="1"/>
        <pt x="204" y="572" on="0"/>
        <pt x="174" y="542" on="0"/>
        <pt x="149" y="542" on="1"/>
        <pt x="107" y="542" on="0"/>
        <pt x="107" y="584" on="1"/>
        <pt x="107" y="609" on="0"/>
        <pt x="137" y="639" on="0"/>
        <pt x="162" y="639" on="1"/>
      </contour>
      <contour>
        <pt x="345" y="639" on="0"/>
        <pt x="367" y="617" on="0"/>
        <pt x="367" y="597" on="1"/>
        <pt x="367" y="572" on="0"/>
        <pt x="337" y="542" on="0"/>
        <pt x="312" y="542" on="1"/>
        <pt x="270" y="542" on="0"/>
        <pt x="270" y="584" on="1"/>
        <pt x="270" y="609" on="0"/>
        <pt x="300" y="639" on="0"/>
        <pt x="325" y="639" on="1"/>
      </contour>
    </TTGlyph>
    <TTGlyph name="dieresismacron" xMin="121" yMin="542" xMax="402" yMax="766">
      <contour>
        <pt x="396" y="702" on="1"/>
        <pt x="131" y="702" on="1"/>
        <pt x="124" y="710" on="1"/>
        <pt x="129" y="766" on="1"/>
        <pt x="395" y="766" on="1"/>
        <pt x="402" y="759" on="1"/>
      </contour>
      <contour>
        <pt x="217" y="639" on="0"/>
        <pt x="217" y="592" on="1"/>
        <pt x="217" y="569" on="0"/>
        <pt x="191" y="542" on="0"/>
        <pt x="168" y="542" on="1"/>
        <pt x="146" y="542" on="0"/>
        <pt x="121" y="567" on="0"/>
        <pt x="121" y="589" on="1"/>
        <pt x="121" y="612" on="0"/>
        <pt x="148" y="639" on="0"/>
        <pt x="171" y="639" on="1"/>
      </contour>
      <contour>
        <pt x="380" y="639" on="0"/>
        <pt x="380" y="592" on="1"/>
        <pt x="380" y="569" on="0"/>
        <pt x="353" y="542" on="0"/>
        <pt x="331" y="542" on="1"/>
        <pt x="309" y="542" on="0"/>
        <pt x="284" y="567" on="0"/>
        <pt x="284" y="589" on="1"/>
        <pt x="284" y="612" on="0"/>
        <pt x="311" y="639" on="0"/>
        <pt x="334" y="639" on="1"/>
      </contour>
    </TTGlyph>
    <TTGlyph name="divide" xMin="31" yMin="38" xMax="455" yMax="458">
      <component glyphName="minus" x="0" y="0" flags="0x1000"/>
      <component glyphName="period" x="124" y="43" scale="0.921081542969" flags="0x1000"/>
      <component glyphName="period" x="163" y="362" scale="0.921081542969" flags="0x1000"/>
    </TTGlyph>
    <TTGlyph name="divisionslash" xMin="-12" yMin="-114" xMax="321" yMax="679">
      <component glyphName="slash" x="0" y="0" flags="0x1000"/>
    </TTGlyph>
    <TTGlyph name="dollar" xMin="22" yMin="-131" xMax="391" yMax="641">
      <contour>
        <pt x="318" y="431" on="0"/>
        <pt x="277" y="439" on="1"/>
        <pt x="256" y="280" on="1"/>
        <pt x="310" y="255" on="0"/>
        <pt x="370" y="199" on="0"/>
        <pt x="370" y="151" on="1"/>
        <pt x="370" y="98" on="0"/>
        <pt x="290" y="10" on="0"/>
        <pt x="220" y="-2" on="1"/>
        <pt x="204" y="-131" on="1"/>
        <pt x="156" y="-131" on="1"/>
        <pt x="148" y="-122" on="1"/>
        <pt x="162" y="-6" on="1"/>
        <pt x="81" y="-2" on="0"/>
        <pt x="22" y="27" on="1"/>
        <pt x="40" y="108" on="1"/>
        <pt x="51" y="113" on="1"/>
        <pt x="74" y="89" on="0"/>
        <pt x="138" y="60" on="0"/>
        <pt x="169" y="57" on="1"/>
        <pt x="191" y="219" on="1"/>
        <pt x="134" y="245" on="0"/>
        <pt x="71" y="301" on="0"/>
        <pt x="71" y="351" on="1"/>
        <pt x="71" y="407" on="0"/>
        <pt x="156" y="493" on="0"/>
        <pt x="228" y="502" on="1"/>
        <pt x="244" y="641" on="1"/>
        <pt x="292" y="641" on="1"/>
        <pt x="301" y="632" on="1"/>
        <pt x="284" y="503" on="1"/>
        <pt x="345" y="500" on="0"/>
        <pt x="391" y="480" on="1"/>
        <pt x="370" y="403" on="1"/>
        <pt x="356" y="399" on="1"/>
      </contour>
      <contour>
        <pt x="152" y="333" on="0"/>
        <pt x="202" y="305" on="1"/>
        <pt x="220" y="437" on="1"/>
        <pt x="188" y="430" on="0"/>
        <pt x="152" y="390" on="0"/>
        <pt x="152" y="366" on="1"/>
      </contour>
      <contour>
        <pt x="289" y="168" on="0"/>
        <pt x="245" y="193" on="1"/>
        <pt x="228" y="63" on="1"/>
        <pt x="256" y="73" on="0"/>
        <pt x="289" y="111" on="0"/>
        <pt x="289" y="134" on="1"/>
      </contour>
    </TTGlyph>
    <TTGlyph name="dotaccent" xMin="189" yMin="565" xMax="296" yMax="674">
      <contour>
        <pt x="269" y="674" on="0"/>
        <pt x="296" y="646" on="0"/>
        <pt x="296" y="622" on="1"/>
        <pt x="296" y="596" on="0"/>
        <pt x="266" y="565" on="0"/>
        <pt x="241" y="565" on="1"/>
        <pt x="189" y="565" on="0"/>
        <pt x="189" y="618" on="1"/>
        <pt x="189" y="644" on="0"/>
        <pt x="219" y="674" on="0"/>
        <pt x="244" y="674" on="1"/>
      </contour>
    </TTGlyph>
    <TTGlyph name="dotbelowcomb" xMin="97" yMin="-175" xMax="204" yMax="-66">
      <contour>
        <pt x="177" y="-66" on="0"/>
        <pt x="204" y="-94" on="0"/>
        <pt x="204" y="-118" on="1"/>
        <pt x="204" y="-144" on="0"/>
        <pt x="174" y="-175" on="0"/>
        <pt x="149" y="-175" on="1"/>
        <pt x="97" y="-175" on="0"/>
        <pt x="97" y="-122" on="1"/>
        <pt x="97" y="-96" on="0"/>
        <pt x="127" y="-66" on="0"/>
        <pt x="153" y="-66" on="1"/>
      </contour>
    </TTGlyph>
    <TTGlyph name="dotlessi" xMin="54" yMin="0" xMax="209" yMax="501">
      <component glyphName="i" x="0" y="0" flags="0x1000"/>
    </TTGlyph>
    <TTGlyph name="dotlessj" xMin="-4" yMin="-82" xMax="235" yMax="501">
      <component glyphName="j" x="0" y="0" flags="0x1000"/>
    </TTGlyph>
    <TTGlyph name="down" xMin="64" yMin="74" xMax="351" yMax="361">
      <contour>
        <pt x="64" y="361" on="1"/>
        <pt x="351" y="361" on="1"/>
        <pt x="207" y="74" on="1"/>
      </contour>
    </TTGlyph>
    <TTGlyph name="e" xMin="54" yMin="0" xMax="432" yMax="501">
      <contour>
        <pt x="179" y="292" on="1"/>
        <pt x="273" y="291" on="1"/>
        <pt x="356" y="294" on="1"/>
        <pt x="361" y="287" on="1"/>
        <pt x="346" y="216" on="1"/>
        <pt x="256" y="219" on="1"/>
        <pt x="169" y="218" on="1"/>
        <pt x="161" y="158" on="1"/>
        <pt x="152" y="74" on="1"/>
        <pt x="242" y="73" on="1"/>
        <pt x="372" y="77" on="1"/>
        <pt x="378" y="70" on="1"/>
        <pt x="362" y="0" on="1"/>
        <pt x="54" y="0" on="1"/>
        <pt x="76" y="150" on="1"/>
        <pt x="116" y="501" on="1"/>
        <pt x="428" y="501" on="1"/>
        <pt x="432" y="493" on="1"/>
        <pt x="416" y="423" on="1"/>
        <pt x="295" y="428" on="1"/>
        <pt x="198" y="427" on="1"/>
      </contour>
    </TTGlyph>
    <TTGlyph name="e.sups" xMin="60" yMin="328" xMax="293" yMax="648">
      <contour>
        <pt x="276" y="405" on="1"/>
        <pt x="233" y="342" on="0"/>
        <pt x="166" y="328" on="1"/>
        <pt x="158" y="328" on="1"/>
        <pt x="106" y="333" on="0"/>
        <pt x="60" y="390" on="0"/>
        <pt x="60" y="442" on="1"/>
        <pt x="60" y="531" on="0"/>
        <pt x="147" y="644" on="0"/>
        <pt x="219" y="648" on="1"/>
        <pt x="227" y="648" on="1"/>
        <pt x="293" y="636" on="0"/>
        <pt x="293" y="580" on="1"/>
        <pt x="293" y="540" on="0"/>
        <pt x="215" y="477" on="0"/>
        <pt x="129" y="451" on="1"/>
        <pt x="130" y="414" on="0"/>
        <pt x="150" y="382" on="0"/>
        <pt x="171" y="382" on="1"/>
        <pt x="212" y="382" on="0"/>
        <pt x="242" y="436" on="1"/>
        <pt x="253" y="435" on="1"/>
      </contour>
      <contour>
        <pt x="173" y="601" on="0"/>
        <pt x="135" y="544" on="0"/>
        <pt x="131" y="494" on="1"/>
        <pt x="228" y="527" on="0"/>
        <pt x="228" y="575" on="1"/>
        <pt x="228" y="601" on="0"/>
        <pt x="202" y="601" on="1"/>
      </contour>
    </TTGlyph>
    <TTGlyph name="eacute" xMin="54" yMin="0" xMax="432" yMax="746">
      <component glyphName="e" x="0" y="0" flags="0x1000"/>
      <component glyphName="acute" x="48" y="40" flags="0x1000"/>
    </TTGlyph>
    <TTGlyph name="ebreve" xMin="54" yMin="0" xMax="432" yMax="721">
      <component glyphName="e" x="0" y="0" flags="0x1000"/>
      <component glyphName="breve" x="41" y="40" flags="0x1000"/>
    </TTGlyph>
    <TTGlyph name="ecaron" xMin="54" yMin="0" xMax="432" yMax="737">
      <component glyphName="e" x="0" y="0" flags="0x1000"/>
      <component glyphName="caron" x="40" y="40" flags="0x1000"/>
    </TTGlyph>
    <TTGlyph name="ecircumflex" xMin="54" yMin="0" xMax="432" yMax="739">
      <component glyphName="e" x="0" y="0" flags="0x1000"/>
      <component glyphName="circumflex" x="52" y="40" flags="0x1000"/>
    </TTGlyph>
    <TTGlyph name="ecircumflexacute" xMin="54" yMin="0" xMax="463" yMax="822">
      <component glyphName="e" x="0" y="0" flags="0x1000"/>
      <component glyphName="circumflexacute" x="47" y="40" flags="0x1000"/>
    </TTGlyph>
    <TTGlyph name="ecircumflexdotbelow" xMin="54" yMin="-175" xMax="432" yMax="739">
      <component glyphName="e" x="0" y="0" flags="0x1000"/>
      <component glyphName="dotbelowcomb" x="60" y="0" flags="0x1000"/>
      <component glyphName="circumflex" x="52" y="40" flags="0x1000"/>
    </TTGlyph>
    <TTGlyph name="ecircumflexgrave" xMin="54" yMin="0" xMax="432" yMax="822">
      <component glyphName="e" x="0" y="0" flags="0x1000"/>
      <component glyphName="circumflexgrave" x="47" y="40" flags="0x1000"/>
    </TTGlyph>
    <TTGlyph name="ecircumflexhookabove" xMin="54" yMin="0" xMax="444" yMax="864">
      <component glyphName="e" x="0" y="0" flags="0x1000"/>
      <component glyphName="circumflexhookabove" x="47" y="40" flags="0x1000"/>
    </TTGlyph>
    <TTGlyph name="ecircumflextilde" xMin="54" yMin="0" xMax="474" yMax="845">
      <component glyphName="e" x="0" y="0" flags="0x1000"/>
      <component glyphName="circumflextilde" x="66" y="40" flags="0x1000"/>
    </TTGlyph>
    <TTGlyph name="edieresis" xMin="54" yMin="0" xMax="432" yMax="702">
      <component glyphName="e" x="0" y="0" flags="0x1000"/>
      <component glyphName="dieresis" x="46" y="40" flags="0x1000"/>
    </TTGlyph>
    <TTGlyph name="edotaccent" xMin="54" yMin="0" xMax="432" yMax="714">
      <component glyphName="e" x="0" y="0" flags="0x1000"/>
      <component glyphName="dotaccent" x="46" y="40" flags="0x1000"/>
    </TTGlyph>
    <TTGlyph name="edotbelow" xMin="54" yMin="-175" xMax="432" yMax="501">
      <component glyphName="e" x="0" y="0" flags="0x1000"/>
      <component glyphName="dotbelowcomb" x="60" y="0" flags="0x1000"/>
    </TTGlyph>
    <TTGlyph name="egrave" xMin="54" yMin="0" xMax="432" yMax="746">
      <component glyphName="e" x="0" y="0" flags="0x1000"/>
      <component glyphName="grave" x="36" y="40" flags="0x1000"/>
    </TTGlyph>
    <TTGlyph name="ehookabove" xMin="54" yMin="0" xMax="432" yMax="762">
      <component glyphName="e" x="0" y="0" flags="0x1000"/>
      <component glyphName="hookabove" x="15" y="40" flags="0x1000"/>
    </TTGlyph>
    <TTGlyph name="eight" xMin="36" yMin="-8" xMax="438" yMax="593">
      <contour>
        <pt x="351" y="593" on="0"/>
        <pt x="438" y="521" on="0"/>
        <pt x="438" y="458" on="1"/>
        <pt x="438" y="366" on="0"/>
        <pt x="327" y="309" on="1"/>
        <pt x="326" y="304" on="1"/>
        <pt x="373" y="280" on="0"/>
        <pt x="424" y="219" on="0"/>
        <pt x="424" y="166" on="1"/>
        <pt x="424" y="116" on="0"/>
        <pt x="373" y="37" on="0"/>
        <pt x="280" y="-8" on="0"/>
        <pt x="219" y="-8" on="1"/>
        <pt x="135" y="-8" on="0"/>
        <pt x="36" y="73" on="0"/>
        <pt x="36" y="139" on="1"/>
        <pt x="36" y="195" on="0"/>
        <pt x="106" y="265" on="0"/>
        <pt x="169" y="293" on="1"/>
        <pt x="170" y="298" on="1"/>
        <pt x="132" y="320" on="0"/>
        <pt x="90" y="377" on="0"/>
        <pt x="90" y="425" on="1"/>
        <pt x="90" y="474" on="0"/>
        <pt x="137" y="550" on="0"/>
        <pt x="223" y="593" on="0"/>
        <pt x="278" y="593" on="1"/>
      </contour>
      <contour>
        <pt x="229" y="525" on="0"/>
        <pt x="170" y="474" on="0"/>
        <pt x="170" y="433" on="1"/>
        <pt x="170" y="395" on="0"/>
        <pt x="214" y="354" on="0"/>
        <pt x="259" y="335" on="1"/>
        <pt x="306" y="356" on="0"/>
        <pt x="359" y="407" on="0"/>
        <pt x="359" y="449" on="1"/>
        <pt x="359" y="485" on="0"/>
        <pt x="316" y="525" on="0"/>
        <pt x="276" y="525" on="1"/>
      </contour>
      <contour>
        <pt x="179" y="244" on="0"/>
        <pt x="119" y="196" on="0"/>
        <pt x="119" y="151" on="1"/>
        <pt x="119" y="108" on="0"/>
        <pt x="172" y="59" on="0"/>
        <pt x="221" y="59" on="1"/>
        <pt x="275" y="59" on="0"/>
        <pt x="343" y="117" on="0"/>
        <pt x="343" y="160" on="1"/>
        <pt x="343" y="199" on="0"/>
        <pt x="291" y="242" on="0"/>
        <pt x="235" y="265" on="1"/>
      </contour>
    </TTGlyph>
    <TTGlyph name="eight.dnom" xMin="21" yMin="-5" xMax="303" yMax="385">
      <contour>
        <pt x="245" y="385" on="0"/>
        <pt x="303" y="338" on="0"/>
        <pt x="303" y="300" on="1"/>
        <pt x="303" y="266" on="0"/>
        <pt x="263" y="222" on="0"/>
        <pt x="226" y="203" on="1"/>
        <pt x="225" y="199" on="1"/>
        <pt x="257" y="184" on="0"/>
        <pt x="292" y="147" on="0"/>
        <pt x="292" y="116" on="1"/>
        <pt x="292" y="61" on="0"/>
        <pt x="209" y="-5" on="0"/>
        <pt x="141" y="-5" on="1"/>
        <pt x="84" y="-5" on="0"/>
        <pt x="21" y="45" on="0"/>
        <pt x="21" y="87" on="1"/>
        <pt x="21" y="154" on="0"/>
        <pt x="113" y="186" on="1"/>
        <pt x="113" y="190" on="1"/>
        <pt x="56" y="219" on="0"/>
        <pt x="56" y="269" on="1"/>
        <pt x="56" y="322" on="0"/>
        <pt x="133" y="385" on="0"/>
        <pt x="196" y="385" on="1"/>
      </contour>
      <contour>
        <pt x="159" y="332" on="0"/>
        <pt x="124" y="302" on="0"/>
        <pt x="124" y="277" on="1"/>
        <pt x="124" y="257" on="0"/>
        <pt x="153" y="232" on="0"/>
        <pt x="180" y="221" on="1"/>
        <pt x="209" y="235" on="0"/>
        <pt x="239" y="265" on="0"/>
        <pt x="239" y="289" on="1"/>
        <pt x="239" y="309" on="0"/>
        <pt x="212" y="332" on="0"/>
        <pt x="189" y="332" on="1"/>
      </contour>
      <contour>
        <pt x="126" y="156" on="0"/>
        <pt x="89" y="123" on="0"/>
        <pt x="89" y="95" on="1"/>
        <pt x="89" y="72" on="0"/>
        <pt x="120" y="46" on="0"/>
        <pt x="149" y="46" on="1"/>
        <pt x="184" y="46" on="0"/>
        <pt x="225" y="80" on="0"/>
        <pt x="225" y="106" on="1"/>
        <pt x="225" y="128" on="0"/>
        <pt x="193" y="152" on="0"/>
        <pt x="159" y="166" on="1"/>
      </contour>
    </TTGlyph>
    <TTGlyph name="eight.lf" xMin="36" yMin="-8" xMax="438" yMax="593">
      <component glyphName="eight" x="0" y="0" flags="0x1000"/>
    </TTGlyph>
    <TTGlyph name="eight.numr" xMin="53" yMin="257" xMax="335" yMax="647">
      <component glyphName="eight.dnom" x="32" y="262" flags="0x1000"/>
    </TTGlyph>
    <TTGlyph name="eight.sinf" xMin="-3" yMin="-125" xMax="279" yMax="265">
      <component glyphName="eight.dnom" x="-24" y="-120" flags="0x1000"/>
    </TTGlyph>
    <TTGlyph name="eight.tf" xMin="35" yMin="-8" xMax="437" yMax="593">
      <contour>
        <pt x="351" y="593" on="0"/>
        <pt x="437" y="521" on="0"/>
        <pt x="437" y="458" on="1"/>
        <pt x="437" y="365" on="0"/>
        <pt x="326" y="309" on="1"/>
        <pt x="325" y="304" on="1"/>
        <pt x="372" y="279" on="0"/>
        <pt x="424" y="219" on="0"/>
        <pt x="424" y="166" on="1"/>
        <pt x="424" y="116" on="0"/>
        <pt x="373" y="37" on="0"/>
        <pt x="279" y="-8" on="0"/>
        <pt x="218" y="-8" on="1"/>
        <pt x="135" y="-8" on="0"/>
        <pt x="35" y="72" on="0"/>
        <pt x="35" y="138" on="1"/>
        <pt x="35" y="195" on="0"/>
        <pt x="104" y="265" on="0"/>
        <pt x="167" y="293" on="1"/>
        <pt x="168" y="298" on="1"/>
        <pt x="130" y="320" on="0"/>
        <pt x="89" y="377" on="0"/>
        <pt x="89" y="425" on="1"/>
        <pt x="89" y="474" on="0"/>
        <pt x="136" y="550" on="0"/>
        <pt x="222" y="593" on="0"/>
        <pt x="278" y="593" on="1"/>
      </contour>
      <contour>
        <pt x="228" y="525" on="0"/>
        <pt x="169" y="474" on="0"/>
        <pt x="169" y="433" on="1"/>
        <pt x="169" y="395" on="0"/>
        <pt x="213" y="354" on="0"/>
        <pt x="258" y="335" on="1"/>
        <pt x="305" y="356" on="0"/>
        <pt x="359" y="408" on="0"/>
        <pt x="359" y="449" on="1"/>
        <pt x="359" y="485" on="0"/>
        <pt x="315" y="525" on="0"/>
        <pt x="275" y="525" on="1"/>
      </contour>
      <contour>
        <pt x="178" y="244" on="0"/>
        <pt x="118" y="196" on="0"/>
        <pt x="118" y="151" on="1"/>
        <pt x="118" y="108" on="0"/>
        <pt x="171" y="59" on="0"/>
        <pt x="220" y="59" on="1"/>
        <pt x="274" y="59" on="0"/>
        <pt x="343" y="117" on="0"/>
        <pt x="343" y="160" on="1"/>
        <pt x="343" y="199" on="0"/>
        <pt x="291" y="242" on="0"/>
        <pt x="234" y="265" on="1"/>
      </contour>
    </TTGlyph>
    <TTGlyph name="eight.tosf" xMin="35" yMin="-8" xMax="435" yMax="593">
      <contour>
        <pt x="349" y="593" on="0"/>
        <pt x="435" y="521" on="0"/>
        <pt x="435" y="458" on="1"/>
        <pt x="435" y="365" on="0"/>
        <pt x="324" y="309" on="1"/>
        <pt x="323" y="304" on="1"/>
        <pt x="370" y="280" on="0"/>
        <pt x="421" y="219" on="0"/>
        <pt x="421" y="166" on="1"/>
        <pt x="421" y="116" on="0"/>
        <pt x="370" y="37" on="0"/>
        <pt x="277" y="-8" on="0"/>
        <pt x="217" y="-8" on="1"/>
        <pt x="134" y="-8" on="0"/>
        <pt x="35" y="72" on="0"/>
        <pt x="35" y="138" on="1"/>
        <pt x="35" y="195" on="0"/>
        <pt x="104" y="265" on="0"/>
        <pt x="167" y="293" on="1"/>
        <pt x="168" y="298" on="1"/>
        <pt x="130" y="320" on="0"/>
        <pt x="89" y="377" on="0"/>
        <pt x="89" y="425" on="1"/>
        <pt x="89" y="500" on="0"/>
        <pt x="192" y="593" on="0"/>
        <pt x="276" y="593" on="1"/>
      </contour>
      <contour>
        <pt x="227" y="525" on="0"/>
        <pt x="169" y="474" on="0"/>
        <pt x="169" y="433" on="1"/>
        <pt x="169" y="395" on="0"/>
        <pt x="213" y="354" on="0"/>
        <pt x="257" y="335" on="1"/>
        <pt x="304" y="356" on="0"/>
        <pt x="356" y="407" on="0"/>
        <pt x="356" y="449" on="1"/>
        <pt x="356" y="485" on="0"/>
        <pt x="314" y="525" on="0"/>
        <pt x="274" y="525" on="1"/>
      </contour>
      <contour>
        <pt x="177" y="244" on="0"/>
        <pt x="118" y="196" on="0"/>
        <pt x="118" y="151" on="1"/>
        <pt x="118" y="108" on="0"/>
        <pt x="171" y="59" on="0"/>
        <pt x="219" y="59" on="1"/>
        <pt x="273" y="59" on="0"/>
        <pt x="341" y="117" on="0"/>
        <pt x="341" y="160" on="1"/>
        <pt x="341" y="199" on="0"/>
        <pt x="289" y="242" on="0"/>
        <pt x="233" y="265" on="1"/>
      </contour>
    </TTGlyph>
    <TTGlyph name="eightsuperior" xMin="60" yMin="315" xMax="342" yMax="705">
      <component glyphName="eight.dnom" x="39" y="320" flags="0x1000"/>
    </TTGlyph>
    <TTGlyph name="ellipsis" xMin="14" yMin="-5" xMax="488" yMax="104">
      <component glyphName="period" x="159" y="0" flags="0x1000"/>
      <component glyphName="period" x="342" y="0" flags="0x1000"/>
      <component glyphName="period" x="-25" y="0" flags="0x1000"/>
    </TTGlyph>
    <TTGlyph name="emacron" xMin="54" yMin="0" xMax="434" yMax="683">
      <component glyphName="e" x="0" y="0" flags="0x1000"/>
      <component glyphName="macron" x="46" y="40" flags="0x1000"/>
    </TTGlyph>
    <TTGlyph name="emdash" xMin="-16" yMin="223" xMax="939" yMax="290">
      <contour>
        <pt x="927" y="223" on="1"/>
        <pt x="-10" y="223" on="1"/>
        <pt x="-16" y="230" on="1"/>
        <pt x="-3" y="290" on="1"/>
        <pt x="933" y="290" on="1"/>
        <pt x="939" y="283" on="1"/>
      </contour>
    </TTGlyph>
    <TTGlyph name="endash" xMin="-15" yMin="223" xMax="495" yMax="290">
      <contour>
        <pt x="484" y="223" on="1"/>
        <pt x="-9" y="223" on="1"/>
        <pt x="-15" y="230" on="1"/>
        <pt x="-2" y="290" on="1"/>
        <pt x="490" y="290" on="1"/>
        <pt x="495" y="283" on="1"/>
      </contour>
    </TTGlyph>
    <TTGlyph name="eng" xMin="54" yMin="-128" xMax="535" yMax="503">
      <contour>
        <pt x="473" y="39" on="1"/>
        <pt x="465" y="-21" on="0"/>
        <pt x="405" y="-95" on="0"/>
        <pt x="336" y="-128" on="1"/>
        <pt x="311" y="-90" on="1"/>
        <pt x="312" y="-80" on="1"/>
        <pt x="367" y="-44" on="0"/>
        <pt x="380" y="-2" on="1"/>
        <pt x="186" y="359" on="1"/>
        <pt x="179" y="359" on="1"/>
        <pt x="156" y="170" on="1"/>
        <pt x="137" y="0" on="1"/>
        <pt x="54" y="0" on="1"/>
        <pt x="77" y="147" on="1"/>
        <pt x="117" y="501" on="1"/>
        <pt x="215" y="501" on="1"/>
        <pt x="402" y="152" on="1"/>
        <pt x="408" y="152" on="1"/>
        <pt x="450" y="497" on="1"/>
        <pt x="535" y="503" on="1"/>
        <pt x="485" y="152" on="1"/>
      </contour>
    </TTGlyph>
    <TTGlyph name="eogonek" xMin="54" yMin="-197" xMax="431" yMax="501">
      <contour>
        <pt x="179" y="292" on="1"/>
        <pt x="272" y="291" on="1"/>
        <pt x="356" y="294" on="1"/>
        <pt x="360" y="287" on="1"/>
        <pt x="346" y="216" on="1"/>
        <pt x="256" y="219" on="1"/>
        <pt x="169" y="218" on="1"/>
        <pt x="161" y="158" on="1"/>
        <pt x="152" y="74" on="1"/>
        <pt x="243" y="73" on="1"/>
        <pt x="373" y="77" on="1"/>
        <pt x="378" y="70" on="1"/>
        <pt x="363" y="0" on="1"/>
        <pt x="287" y="0" on="1"/>
        <pt x="256" y="-48" on="1"/>
        <pt x="239" y="-74" on="0"/>
        <pt x="239" y="-96" on="1"/>
        <pt x="239" y="-135" on="0"/>
        <pt x="278" y="-135" on="1"/>
        <pt x="310" y="-135" on="0"/>
        <pt x="345" y="-100" on="1"/>
        <pt x="351" y="-100" on="1"/>
        <pt x="362" y="-146" on="1"/>
        <pt x="309" y="-197" on="0"/>
        <pt x="263" y="-197" on="1"/>
        <pt x="225" y="-197" on="0"/>
        <pt x="179" y="-150" on="0"/>
        <pt x="179" y="-114" on="1"/>
        <pt x="179" y="-75" on="0"/>
        <pt x="206" y="-37" on="1"/>
        <pt x="231" y="0" on="1"/>
        <pt x="54" y="0" on="1"/>
        <pt x="76" y="150" on="1"/>
        <pt x="116" y="501" on="1"/>
        <pt x="427" y="501" on="1"/>
        <pt x="431" y="493" on="1"/>
        <pt x="416" y="423" on="1"/>
        <pt x="295" y="428" on="1"/>
        <pt x="198" y="427" on="1"/>
      </contour>
    </TTGlyph>
    <TTGlyph name="equal" xMin="24" yMin="143" xMax="468" yMax="383">
      <component glyphName="minus" x="13" y="86" flags="0x1000"/>
      <component glyphName="minus" x="-7" y="-87" flags="0x1000"/>
    </TTGlyph>
    <TTGlyph name="estimated" xMin="51" yMin="-12" xMax="788" yMax="651">
      <contour>
        <pt x="520" y="651" on="0"/>
        <pt x="689" y="562" on="0"/>
        <pt x="788" y="409" on="0"/>
        <pt x="788" y="319" on="1"/>
        <pt x="788" y="311" on="1"/>
        <pt x="191" y="311" on="1"/>
        <pt x="186" y="311" on="0"/>
        <pt x="186" y="307" on="1"/>
        <pt x="186" y="126" on="1"/>
        <pt x="186" y="116" on="0"/>
        <pt x="195" y="105" on="1"/>
        <pt x="238" y="59" on="0"/>
        <pt x="355" y="8" on="0"/>
        <pt x="421" y="8" on="1"/>
        <pt x="491" y="8" on="0"/>
        <pt x="614" y="66" on="0"/>
        <pt x="658" y="117" on="1"/>
        <pt x="712" y="117" on="1"/>
        <pt x="661" y="57" on="0"/>
        <pt x="507" y="-12" on="0"/>
        <pt x="420" y="-12" on="1"/>
        <pt x="320" y="-12" on="0"/>
        <pt x="151" y="77" on="0"/>
        <pt x="51" y="229" on="0"/>
        <pt x="51" y="319" on="1"/>
        <pt x="51" y="409" on="0"/>
        <pt x="151" y="562" on="0"/>
        <pt x="320" y="651" on="0"/>
        <pt x="420" y="651" on="1"/>
      </contour>
      <contour>
        <pt x="356" y="631" on="0"/>
        <pt x="240" y="580" on="0"/>
        <pt x="196" y="535" on="1"/>
        <pt x="186" y="525" on="0"/>
        <pt x="186" y="512" on="1"/>
        <pt x="186" y="334" on="1"/>
        <pt x="186" y="329" on="0"/>
        <pt x="191" y="329" on="1"/>
        <pt x="649" y="329" on="1"/>
        <pt x="654" y="329" on="0"/>
        <pt x="654" y="334" on="1"/>
        <pt x="654" y="516" on="1"/>
        <pt x="654" y="528" on="0"/>
        <pt x="644" y="538" on="1"/>
        <pt x="600" y="582" on="0"/>
        <pt x="485" y="631" on="0"/>
        <pt x="421" y="631" on="1"/>
      </contour>
    </TTGlyph>
    <TTGlyph name="eth" xMin="3" yMin="-5" xMax="524" yMax="504">
      <contour>
        <pt x="414" y="504" on="0"/>
        <pt x="524" y="400" on="0"/>
        <pt x="524" y="306" on="1"/>
        <pt x="524" y="160" on="0"/>
        <pt x="376" y="-5" on="0"/>
        <pt x="239" y="-5" on="1"/>
        <pt x="142" y="-5" on="0"/>
        <pt x="59" y="0" on="1"/>
        <pt x="81" y="150" on="1"/>
        <pt x="88" y="215" on="1"/>
        <pt x="7" y="215" on="1"/>
        <pt x="3" y="223" on="1"/>
        <pt x="14" y="279" on="1"/>
        <pt x="96" y="279" on="1"/>
        <pt x="121" y="501" on="1"/>
        <pt x="316" y="504" on="1"/>
      </contour>
      <contour>
        <pt x="339" y="68" on="0"/>
        <pt x="428" y="179" on="0"/>
        <pt x="428" y="289" on="1"/>
        <pt x="428" y="428" on="0"/>
        <pt x="303" y="428" on="1"/>
        <pt x="265" y="428" on="0"/>
        <pt x="203" y="424" on="1"/>
        <pt x="183" y="279" on="1"/>
        <pt x="297" y="279" on="1"/>
        <pt x="300" y="271" on="1"/>
        <pt x="290" y="215" on="1"/>
        <pt x="174" y="215" on="1"/>
        <pt x="166" y="158" on="1"/>
        <pt x="157" y="74" on="1"/>
        <pt x="221" y="68" on="0"/>
        <pt x="258" y="68" on="1"/>
      </contour>
    </TTGlyph>
    <TTGlyph name="etilde" xMin="54" yMin="0" xMax="450" yMax="719">
      <component glyphName="e" x="0" y="0" flags="0x1000"/>
      <component glyphName="tilde" x="46" y="40" flags="0x1000"/>
    </TTGlyph>
    <TTGlyph name="exclam" xMin="62" yMin="-5" xMax="246" yMax="662">
      <contour>
        <pt x="167" y="224" on="1"/>
        <pt x="109" y="217" on="1"/>
        <pt x="100" y="228" on="1"/>
        <pt x="149" y="646" on="1"/>
        <pt x="160" y="657" on="1"/>
        <pt x="236" y="662" on="1"/>
        <pt x="246" y="650" on="1"/>
      </contour>
      <contour>
        <pt x="142" y="104" on="0"/>
        <pt x="169" y="76" on="0"/>
        <pt x="169" y="51" on="1"/>
        <pt x="169" y="25" on="0"/>
        <pt x="139" y="-5" on="0"/>
        <pt x="114" y="-5" on="1"/>
        <pt x="62" y="-5" on="0"/>
        <pt x="62" y="48" on="1"/>
        <pt x="62" y="74" on="0"/>
        <pt x="92" y="104" on="0"/>
        <pt x="118" y="104" on="1"/>
      </contour>
    </TTGlyph>
    <TTGlyph name="exclamdown" xMin="23" yMin="-197" xMax="207" yMax="470">
      <component glyphName="exclam" x="269" y="465" scale="-1.0" flags="0x1000"/>
    </TTGlyph>
    <TTGlyph name="f" xMin="49" yMin="0" xMax="410" yMax="501">
      <contour>
        <pt x="173" y="278" on="1"/>
        <pt x="250" y="277" on="1"/>
        <pt x="337" y="280" on="1"/>
        <pt x="342" y="273" on="1"/>
        <pt x="327" y="203" on="1"/>
        <pt x="233" y="205" on="1"/>
        <pt x="162" y="204" on="1"/>
        <pt x="156" y="158" on="1"/>
        <pt x="140" y="0" on="1"/>
        <pt x="49" y="0" on="1"/>
        <pt x="71" y="150" on="1"/>
        <pt x="111" y="501" on="1"/>
        <pt x="406" y="501" on="1"/>
        <pt x="410" y="493" on="1"/>
        <pt x="394" y="423" on="1"/>
        <pt x="275" y="428" on="1"/>
        <pt x="194" y="427" on="1"/>
      </contour>
    </TTGlyph>
    <TTGlyph name="f.sups" xMin="68" yMin="239" xMax="317" yMax="809">
      <contour>
        <pt x="304" y="747" on="1"/>
        <pt x="293" y="743" on="1"/>
        <pt x="263" y="758" on="0"/>
        <pt x="244" y="758" on="1"/>
        <pt x="205" y="758" on="0"/>
        <pt x="197" y="693" on="1"/>
        <pt x="189" y="638" on="1"/>
        <pt x="253" y="638" on="1"/>
        <pt x="259" y="631" on="1"/>
        <pt x="253" y="596" on="1"/>
        <pt x="184" y="596" on="1"/>
        <pt x="166" y="467" on="1"/>
        <pt x="147" y="317" on="1"/>
        <pt x="142" y="244" on="1"/>
        <pt x="68" y="239" on="1"/>
        <pt x="97" y="459" on="1"/>
        <pt x="112" y="596" on="1"/>
        <pt x="72" y="596" on="1"/>
        <pt x="68" y="600" on="1"/>
        <pt x="74" y="638" on="1"/>
        <pt x="117" y="638" on="1"/>
        <pt x="121" y="674" on="1"/>
        <pt x="129" y="739" on="0"/>
        <pt x="199" y="809" on="0"/>
        <pt x="255" y="809" on="1"/>
        <pt x="315" y="801" on="1"/>
        <pt x="317" y="796" on="1"/>
      </contour>
    </TTGlyph>
    <TTGlyph name="firstofchinese" xMin="94" yMin="580" xMax="388" yMax="643">
      <component glyphName="macron" x="0" y="0" flags="0x1000"/>
    </TTGlyph>
    <TTGlyph name="firsttonechinese" xMin="94" yMin="580" xMax="388" yMax="643">
      <contour>
        <pt x="383" y="580" on="1"/>
        <pt x="101" y="580" on="1"/>
        <pt x="94" y="588" on="1"/>
        <pt x="100" y="643" on="1"/>
        <pt x="382" y="643" on="1"/>
        <pt x="388" y="636" on="1"/>
      </contour>
    </TTGlyph>
    <TTGlyph name="five" xMin="-1" yMin="-98" xMax="412" yMax="505">
      <contour>
        <pt x="393" y="422" on="1"/>
        <pt x="385" y="415" on="1"/>
        <pt x="306" y="422" on="1"/>
        <pt x="170" y="422" on="1"/>
        <pt x="151" y="281" on="1"/>
        <pt x="213" y="268" on="1"/>
        <pt x="365" y="236" on="0"/>
        <pt x="365" y="116" on="1"/>
        <pt x="365" y="57" on="0"/>
        <pt x="296" y="-41" on="0"/>
        <pt x="175" y="-98" on="0"/>
        <pt x="102" y="-98" on="1"/>
        <pt x="58" y="-98" on="0"/>
        <pt x="-1" y="-87" on="1"/>
        <pt x="3" y="-4" on="1"/>
        <pt x="11" y="4" on="1"/>
        <pt x="67" y="-22" on="0"/>
        <pt x="122" y="-22" on="1"/>
        <pt x="189" y="-22" on="0"/>
        <pt x="272" y="49" on="0"/>
        <pt x="272" y="104" on="1"/>
        <pt x="272" y="175" on="0"/>
        <pt x="174" y="195" on="1"/>
        <pt x="76" y="213" on="1"/>
        <pt x="69" y="221" on="1"/>
        <pt x="102" y="490" on="1"/>
        <pt x="118" y="503" on="1"/>
        <pt x="173" y="501" on="1"/>
        <pt x="310" y="501" on="1"/>
        <pt x="407" y="505" on="1"/>
        <pt x="412" y="498" on="1"/>
      </contour>
    </TTGlyph>
</ttFont>
